<svg xmlns="http://www.w3.org/2000/svg" width="200" height="133" viewBox="0 0 200 133" version="1.1"><path d="M 2.425 59 C 2.425 70.825, 2.569 75.663, 2.746 69.750 C 2.923 63.838, 2.923 54.163, 2.746 48.250 C 2.569 42.338, 2.425 47.175, 2.425 59 M 33 39.634 L 33 41.269 18.500 40.551 L 4 39.833 4 59.916 L 4 80 19.500 80 C 30.544 80, 35 79.668, 35 78.846 C 35 78.006, 30.995 77.818, 20.250 78.155 C 12.137 78.410, 7.750 78.461, 10.500 78.269 L 15.500 77.920 15.172 69.290 C 14.960 63.713, 15.284 59.837, 16.091 58.331 L 17.338 56 23.596 56 C 28.714 56, 29.937 56.318, 30.311 57.750 C 30.644 59.025, 30.800 58.868, 30.884 57.174 L 31 54.848 22.998 55.174 L 14.995 55.500 14.995 48.500 L 14.996 41.500 24.498 41.819 L 34 42.137 34 40.069 C 34 38.931, 33.775 38, 33.500 38 C 33.225 38, 33 38.736, 33 39.634 M 98.425 59 C 98.425 70.825, 98.569 75.663, 98.746 69.750 C 98.923 63.838, 98.923 54.163, 98.746 48.250 C 98.569 42.338, 98.425 47.175, 98.425 59 M 121.425 59 C 121.425 70.825, 121.569 75.663, 121.746 69.750 C 121.923 63.838, 121.923 54.163, 121.746 48.250 C 121.569 42.338, 121.425 47.175, 121.425 59 M 194.425 59 C 194.425 70.825, 194.569 75.663, 194.746 69.750 C 194.923 63.838, 194.923 54.163, 194.746 48.250 C 194.569 42.338, 194.425 47.175, 194.425 59 M 65.685 40.886 C 66.218 42.956, 60.924 61.269, 59.292 63 L 57.878 64.500 56.689 62.892 C 56.035 62.008, 54.194 56.495, 52.598 50.642 L 49.695 40 44.455 40 C 40.598 40, 39.054 40.418, 38.607 41.582 C 37.742 43.835, 37.884 44.731, 38.861 43.190 C 39.622 41.990, 41.443 47.477, 48.503 72.250 L 50.142 78 53.321 78.118 L 56.500 78.237 53.500 79 L 50.500 79.763 53.628 79.882 L 56.756 80 59.569 69.931 C 64.279 53.064, 66.051 52.994, 70.569 69.495 L 73.446 80 76.615 80 L 79.783 80 80.456 77.250 C 82.905 67.233, 86.368 57.962, 87.208 59.171 C 87.833 60.072, 87.925 59.768, 87.491 58.228 C 87.126 56.931, 87.775 53.071, 89.004 49.228 C 90.188 45.528, 91.332 41.938, 91.547 41.250 C 91.762 40.563, 91.519 40, 91.009 40 C 90.498 40, 89.536 41.816, 88.871 44.036 C 88.016 46.891, 87.400 47.695, 86.766 46.786 C 86.174 45.937, 86.077 46.243, 86.481 47.685 C 87.179 50.174, 84.652 59.734, 82.542 62.594 C 81.477 64.036, 80.850 64.219, 79.966 63.348 C 78.226 61.634, 74.840 48.117, 75.532 45.644 C 75.965 44.093, 75.866 43.883, 75.174 44.883 C 74.449 45.932, 74.046 45.485, 73.508 43.036 L 72.798 39.805 69.415 40.200 C 67.554 40.417, 65.873 40.348, 65.680 40.047 C 65.486 39.746, 65.488 40.124, 65.685 40.886 M 100 59 L 100 78 105.500 78 L 111 78 111 59 L 111 40 105.500 40 L 100 40 100 59 M 123 59.920 L 123 80 138 80 C 147.333 80, 153 79.622, 153 79 C 153 78.420, 149.120 77.918, 143.750 77.804 L 134.500 77.609 145 77 L 155.500 76.391 145.250 76.196 L 135 76 134.811 67.250 L 134.622 58.500 134 67.500 L 133.378 76.500 133.221 68 C 133.017 56.976, 133.606 56.204, 142.574 55.746 L 149.500 55.392 142.250 55.196 L 135 55 135 48.500 L 135 42 143.167 42 C 147.658 42, 151.146 41.832, 150.917 41.627 C 150.687 41.421, 144.313 40.935, 136.750 40.546 L 123 39.839 123 59.920 M 161 60 C 161 71.074, 161.399 80, 161.893 80 C 162.385 80, 162.856 74.264, 162.941 67.252 C 163.026 60.241, 163.513 54.087, 164.024 53.576 C 165.261 52.339, 169.094 55.833, 168.757 57.889 C 168.616 58.750, 168.950 59.472, 169.500 59.493 C 171.054 59.552, 173 61.011, 173 62.118 C 173 62.668, 172.550 62.840, 172 62.500 C 170.372 61.494, 170.860 62.642, 172.692 64.128 L 174.384 65.500 173.500 64 L 172.616 62.500 174.308 63.872 C 176.200 65.407, 176.648 67.518, 174.845 66.405 C 174.108 65.949, 173.963 66.132, 174.446 66.912 C 174.861 67.584, 175.451 67.882, 175.758 67.575 C 176.458 66.876, 179 68.919, 179 70.181 C 179 70.697, 178.550 70.840, 178 70.500 C 176.372 69.494, 176.860 70.642, 178.692 72.128 L 180.384 73.500 179.537 72.095 C 178.956 71.131, 179.061 70.919, 179.872 71.421 C 180.522 71.822, 180.929 72.894, 180.777 73.803 C 180.624 74.712, 181.040 75.465, 181.700 75.478 C 182.360 75.490, 183.463 76.063, 184.150 76.750 C 184.838 77.438, 187.110 78, 189.200 78 L 193 78 192.783 58.750 C 192.608 43.300, 192.507 42.066, 192.271 52.500 C 191.924 67.818, 191.774 68.485, 189.015 67.008 C 187.907 66.415, 187 65.469, 187 64.906 C 187 64.343, 187.563 64.220, 188.250 64.633 C 189.099 65.143, 189.060 64.842, 188.128 63.692 C 186.529 61.721, 185.538 61.428, 186.633 63.250 C 187.143 64.099, 186.842 64.060, 185.692 63.128 C 183.800 61.593, 183.352 59.482, 185.155 60.595 C 185.876 61.041, 186.037 60.869, 185.585 60.138 C 185.187 59.494, 184.494 59.195, 184.044 59.473 C 182.938 60.156, 180.860 57.532, 181.215 55.901 C 181.372 55.180, 181.050 54.564, 180.500 54.530 C 178.924 54.434, 177 52.979, 177 51.882 C 177 51.332, 177.450 51.160, 178 51.500 C 179.628 52.506, 179.140 51.358, 177.308 49.872 L 175.616 48.500 176.463 49.905 C 177.044 50.869, 176.939 51.081, 176.128 50.579 C 175.478 50.178, 175.071 49.238, 175.223 48.490 C 175.376 47.743, 175.050 47.063, 174.500 46.981 C 172.637 46.700, 170.972 44.741, 171.237 43.139 C 171.382 42.262, 170.975 41.535, 170.333 41.522 C 169.692 41.510, 168.829 41.163, 168.417 40.750 C 168.004 40.337, 166.167 40, 164.333 40 L 161 40 161 60 M 133.415 42.362 C 133.127 43.111, 133.035 46.374, 133.211 49.612 L 133.530 55.500 134.015 48.248 C 134.502 40.971, 134.385 39.832, 133.415 42.362 M 61.079 53.583 C 61.127 54.748, 61.364 54.985, 61.683 54.188 C 61.972 53.466, 61.936 52.603, 61.604 52.271 C 61.272 51.939, 61.036 52.529, 61.079 53.583 M 59 60.250 C 59 61.121, 58.438 62.060, 57.750 62.338 C 56.771 62.733, 56.778 62.859, 57.781 62.921 C 59.207 63.009, 60.599 60.266, 59.624 59.290 C 59.281 58.947, 59 59.379, 59 60.250 M 60.079 71.583 C 60.127 72.748, 60.364 72.985, 60.683 72.188 C 60.972 71.466, 60.936 70.603, 60.604 70.271 C 60.272 69.939, 60.036 70.529, 60.079 71.583 M 47.079 73.583 C 47.127 74.748, 47.364 74.985, 47.683 74.188 C 47.972 73.466, 47.936 72.603, 47.604 72.271 C 47.272 71.939, 47.036 72.529, 47.079 73.583 M 20.750 76.737 C 23.638 76.939, 28.363 76.939, 31.250 76.737 C 34.138 76.535, 31.775 76.370, 26 76.370 C 20.225 76.370, 17.863 76.535, 20.750 76.737 M 75.269 78.693 C 76.242 78.947, 77.592 78.930, 78.269 78.656 C 78.946 78.382, 78.150 78.175, 76.500 78.195 C 74.850 78.215, 74.296 78.439, 75.269 78.693 M 126.250 78.716 C 127.763 78.945, 130.238 78.945, 131.750 78.716 C 133.262 78.487, 132.025 78.300, 129 78.300 C 125.975 78.300, 124.737 78.487, 126.250 78.716 M 102.768 79.725 C 104.565 79.947, 107.265 79.943, 108.768 79.715 C 110.271 79.486, 108.800 79.304, 105.500 79.310 C 102.200 79.315, 100.971 79.502, 102.768 79.725 M 187.762 79.707 C 189.006 79.946, 190.806 79.937, 191.762 79.687 C 192.718 79.437, 191.700 79.241, 189.500 79.252 C 187.300 79.263, 186.518 79.468, 187.762 79.707 M 20.086 85 C 19.981 87.866, 21.423 88.689, 23.250 86.805 L 25 85 23.500 85 C 22.675 85, 21.968 85.563, 21.930 86.250 C 21.891 86.938, 21.473 86.600, 21 85.500 C 20.433 84.181, 20.122 84.011, 20.086 85 M 59 85 C 59 85.550, 59.477 86, 60.059 86 C 60.641 86, 60.840 85.550, 60.500 85 C 60.160 84.450, 59.684 84, 59.441 84 C 59.198 84, 59 84.450, 59 85 M 33.825 87.674 C 34.251 89.767, 34.503 90.019, 34.794 88.644 C 35.011 87.623, 34.751 86.351, 34.218 85.818 C 33.592 85.192, 33.452 85.849, 33.825 87.674 M 85.079 86.583 C 85.127 87.748, 85.364 87.985, 85.683 87.188 C 85.972 86.466, 85.936 85.603, 85.604 85.271 C 85.272 84.939, 85.036 85.529, 85.079 86.583 M 87.267 87 C 87.361 88.375, 87.107 90.031, 86.703 90.681 C 86.298 91.330, 86.537 92.190, 87.234 92.591 C 87.930 92.992, 88.166 92.952, 87.759 92.502 C 87.351 92.052, 87.392 91.193, 87.850 90.592 C 88.308 89.991, 88.325 88.375, 87.889 87 L 87.095 84.500 87.267 87 M 146.813 85.683 C 147.534 85.972, 148.397 85.936, 148.729 85.604 C 149.061 85.272, 148.471 85.036, 147.417 85.079 C 146.252 85.127, 146.015 85.364, 146.813 85.683 M 37.211 87.399 C 37.920 88.169, 38.658 88.649, 38.850 88.466 C 39.443 87.902, 37.940 86, 36.902 86 C 36.362 86, 36.501 86.630, 37.211 87.399 M 46.644 86.627 C 47.273 86.885, 47.601 88.087, 47.373 89.298 L 46.959 91.500 47.854 89.500 C 48.870 87.231, 48.439 85.963, 46.691 86.079 C 45.831 86.136, 45.818 86.288, 46.644 86.627 M 54 86.393 C 54 86.609, 54.698 87.054, 55.552 87.382 C 56.442 87.723, 56.843 87.555, 56.493 86.989 C 55.906 86.038, 54 85.583, 54 86.393 M 67.564 87.293 C 67.940 88.279, 68.499 88.834, 68.807 88.526 C 69.115 88.219, 68.808 87.412, 68.124 86.733 C 67.136 85.753, 67.022 85.868, 67.564 87.293 M 114.981 86.660 C 115.548 86.941, 115.777 87.551, 115.490 88.016 C 115.203 88.481, 115.385 89.120, 115.896 89.436 C 116.407 89.751, 116.712 89.244, 116.575 88.309 C 116.438 87.374, 115.791 86.505, 115.138 86.379 C 114.484 86.253, 114.414 86.380, 114.981 86.660 M 137.825 88.674 C 138.251 90.767, 138.503 91.019, 138.794 89.644 C 139.011 88.623, 138.751 87.351, 138.218 86.818 C 137.592 86.192, 137.452 86.849, 137.825 88.674 M 173.872 87.750 L 172.500 89.500 174.250 88.128 C 175.213 87.373, 176 86.585, 176 86.378 C 176 85.555, 175.179 86.084, 173.872 87.750 M 27.158 89 C 27.158 90.375, 27.385 90.938, 27.662 90.250 C 27.940 89.563, 27.940 88.438, 27.662 87.750 C 27.385 87.063, 27.158 87.625, 27.158 89 M 60.079 88.583 C 60.127 89.748, 60.364 89.985, 60.683 89.188 C 60.972 88.466, 60.936 87.603, 60.604 87.271 C 60.272 86.939, 60.036 87.529, 60.079 88.583 M 98.100 88.628 C 97.981 91.165, 100.472 93.664, 101.485 92.024 C 101.850 91.433, 101.593 91.074, 100.913 91.225 C 100.233 91.376, 99.345 90.375, 98.938 89 L 98.199 86.500 98.100 88.628 M 106 88 C 106 88.550, 106.477 89, 107.059 89 C 107.641 89, 107.840 88.550, 107.500 88 C 107.160 87.450, 106.684 87, 106.441 87 C 106.198 87, 106 87.450, 106 88 M 129.632 89.399 C 130.099 91.452, 129.957 92.092, 129.146 91.590 C 128.516 91.201, 128 91.359, 128 91.941 C 128 93.512, 129.977 93.224, 130.615 91.561 C 130.919 90.769, 130.674 89.307, 130.070 88.311 L 128.973 86.500 129.632 89.399 M 165.325 89.697 C 165.421 91.455, 165.851 92.544, 166.280 92.116 C 166.710 91.689, 166.631 90.250, 166.105 88.920 L 165.149 86.500 165.325 89.697 M 177.079 88.583 C 177.127 89.748, 177.364 89.985, 177.683 89.188 C 177.972 88.466, 177.936 87.603, 177.604 87.271 C 177.272 86.939, 177.036 87.529, 177.079 88.583 M 43 89.167 C 43 89.625, 43.423 90, 43.941 90 C 44.459 90, 45.114 89.625, 45.397 89.167 C 45.680 88.708, 45.257 88.333, 44.456 88.333 C 43.655 88.333, 43 88.708, 43 89.167 M 52.329 89.584 C 51.840 90.859, 51.557 90.908, 50.876 89.834 C 50.299 88.924, 50.026 88.879, 50.015 89.691 C 49.988 91.818, 51.604 91.944, 53.312 89.949 C 54.230 88.877, 54.521 88, 53.959 88 C 53.397 88, 52.664 88.713, 52.329 89.584 M 94.459 89.067 C 93.433 90.727, 94.354 90.957, 95.789 89.399 C 96.499 88.630, 96.638 88, 96.098 88 C 95.559 88, 94.821 88.480, 94.459 89.067 M 111.408 90 C 111.602 91.723, 112.393 92.604, 113.956 92.834 C 115.467 93.057, 115.985 92.784, 115.510 92.016 C 115.118 91.382, 114.105 91.130, 113.257 91.455 L 111.717 92.046 113.109 90.331 C 113.874 89.388, 113.976 88.930, 113.335 89.314 C 112.695 89.698, 111.936 89.447, 111.649 88.756 C 111.362 88.065, 111.253 88.625, 111.408 90 M 134.459 89.067 C 134.096 89.653, 134.070 90.403, 134.400 90.733 C 134.730 91.063, 135.007 90.696, 135.015 89.917 L 135.031 88.500 136 90 L 136.969 91.500 136.985 89.750 C 137.002 87.813, 135.487 87.403, 134.459 89.067 M 151.804 90.358 C 152.147 91.669, 151.934 92.077, 151.158 91.597 C 150.521 91.204, 150 91.359, 150 91.941 C 150 93.661, 152.008 93.149, 152.708 91.250 C 153.064 90.287, 153.831 89.182, 154.414 88.794 C 154.998 88.406, 154.534 88.159, 153.384 88.246 C 151.831 88.363, 151.424 88.906, 151.804 90.358 M 156.079 89.809 C 156.036 91.079, 155.550 91.840, 155 91.500 C 154.450 91.160, 154 91.359, 154 91.941 C 154 93.525, 155.979 93.218, 156.626 91.533 C 156.935 90.726, 156.957 89.489, 156.673 88.783 C 156.390 88.077, 156.122 88.539, 156.079 89.809 M 181 89.059 C 181 89.641, 180.438 89.794, 179.750 89.399 C 179.063 89.003, 178.851 89.065, 179.279 89.535 C 180.617 91.006, 182.901 90.906, 182.324 89.401 C 181.688 87.744, 181 87.566, 181 89.059 M 171.906 90.824 C 172.513 91.959, 173.503 93.193, 174.105 93.565 C 174.889 94.050, 174.886 93.656, 174.094 92.176 C 173.487 91.041, 172.497 89.807, 171.895 89.435 C 171.111 88.950, 171.114 89.344, 171.906 90.824 M 19.079 91.313 C 19.016 92.762, 19.639 93.064, 22.173 92.813 C 23.918 92.641, 25.459 91.926, 25.598 91.225 C 25.737 90.524, 25.621 90.411, 25.342 90.975 C 24.623 92.424, 20.268 92.252, 19.662 90.750 C 19.370 90.026, 19.125 90.264, 19.079 91.313 M 39.079 91.333 C 38.989 93.431, 41.177 93.108, 41.764 90.938 L 42.152 89.500 41.197 90.863 L 40.242 92.226 39.700 90.863 C 39.335 89.946, 39.132 90.100, 39.079 91.333 M 69 91.500 C 69 92.325, 69.436 93, 69.969 93 C 70.501 93, 70.678 92.325, 70.362 91.500 C 70.045 90.675, 69.609 90, 69.393 90 C 69.177 90, 69 90.675, 69 91.500 M 73 91.500 C 73 92.325, 73.436 93, 73.969 93 C 74.501 93, 74.678 92.325, 74.362 91.500 C 74.045 90.675, 73.609 90, 73.393 90 C 73.177 90, 73 90.675, 73 91.500 M 105 90.892 C 105 91.566, 104.480 91.797, 103.845 91.405 C 103.101 90.945, 102.964 91.132, 103.458 91.933 C 104.004 92.815, 104.536 92.864, 105.296 92.104 C 105.885 91.515, 106.059 90.726, 105.683 90.350 C 105.308 89.974, 105 90.218, 105 90.892 M 107 91.500 C 107 92.325, 107.436 93, 107.969 93 C 108.501 93, 108.678 92.325, 108.362 91.500 C 108.045 90.675, 107.609 90, 107.393 90 C 107.177 90, 107 90.675, 107 91.500 M 123 90.892 C 123 91.566, 122.480 91.797, 121.845 91.405 C 121.101 90.945, 120.964 91.132, 121.458 91.933 C 122.004 92.815, 122.536 92.864, 123.296 92.104 C 123.885 91.515, 124.059 90.726, 123.683 90.350 C 123.308 89.974, 123 90.218, 123 90.892 M 43.768 92.168 C 44.350 92.750, 45.415 93.028, 46.137 92.788 C 46.886 92.538, 46.432 92.085, 45.080 91.731 C 43.417 91.296, 43.026 91.426, 43.768 92.168 M 83 92 C 82.099 92.582, 81.975 92.975, 82.691 92.985 C 83.346 92.993, 84.160 92.550, 84.500 92 C 85.267 90.758, 84.921 90.758, 83 92 M 117.613 92.183 C 117.902 92.650, 118.557 92.774, 119.069 92.457 C 120.377 91.649, 120.230 91.333, 118.544 91.333 C 117.743 91.333, 117.324 91.716, 117.613 92.183 M 159.628 91.792 C 159.359 92.228, 160.017 92.651, 161.091 92.732 C 162.165 92.813, 162.782 92.456, 162.463 91.939 C 161.754 90.793, 160.293 90.717, 159.628 91.792 M 27.813 92.683 C 28.534 92.972, 29.397 92.936, 29.729 92.604 C 30.061 92.272, 29.471 92.036, 28.417 92.079 C 27.252 92.127, 27.015 92.364, 27.813 92.683 M 94.813 92.683 C 95.534 92.972, 96.397 92.936, 96.729 92.604 C 97.061 92.272, 96.471 92.036, 95.417 92.079 C 94.252 92.127, 94.015 92.364, 94.813 92.683 M 144.250 92.689 C 145.213 92.941, 146.787 92.941, 147.750 92.689 C 148.713 92.438, 147.925 92.232, 146 92.232 C 144.075 92.232, 143.287 92.438, 144.250 92.689" stroke="none" fill="#136734" fill-rule="evenodd"/><path d="M 111.460 3.595 C 113.681 5.218, 112.751 5.472, 109.991 3.995 L 108.113 2.990 108.488 4.937 C 108.767 6.385, 108.451 6.727, 107.258 6.269 C 106.076 5.815, 105.817 6.081, 106.275 7.275 C 106.714 8.418, 106.469 8.734, 105.449 8.342 C 104.652 8.036, 104 8.311, 104 8.952 C 104 9.593, 103.480 9.797, 102.845 9.405 C 102.163 8.983, 101.961 9.128, 102.352 9.760 C 102.715 10.348, 102.447 11.057, 101.756 11.336 C 100.975 11.650, 101.140 11.872, 102.191 11.921 C 103.121 11.964, 104.152 11.563, 104.482 11.029 C 104.812 10.495, 107.314 9.762, 110.041 9.400 L 115 8.742 115 5.988 C 115 3.781, 114.456 3.129, 112.269 2.711 L 109.538 2.189 111.460 3.595 M 96.677 3.714 C 96.298 4.327, 96.328 4.980, 96.744 5.165 C 97.160 5.349, 97.230 7.525, 96.900 10 L 96.300 14.500 96.150 10.809 C 96.068 8.779, 95.482 6.798, 94.848 6.406 C 92.957 5.238, 94.523 13.562, 96.889 17.256 L 98.966 20.500 98.983 16.961 C 98.992 15.015, 99.875 11.707, 100.944 9.609 L 102.888 5.796 101.019 6.285 C 99.643 6.645, 99.307 6.364, 99.745 5.223 C 100.115 4.259, 99.929 3.926, 99.255 4.342 C 98.659 4.711, 97.990 4.469, 97.768 3.805 C 97.480 2.940, 97.171 2.914, 96.677 3.714 M 113.500 11.882 L 110.500 12.500 114.610 16.640 L 118.720 20.780 121.887 18.775 C 124.475 17.136, 124.834 16.505, 123.851 15.321 C 123.083 14.395, 121.719 14.086, 120.074 14.466 C 118.023 14.940, 117.805 14.834, 119 13.944 L 120.500 12.827 118.325 13.300 C 116.765 13.640, 116.300 13.381, 116.682 12.387 C 116.975 11.624, 117.053 11.059, 116.857 11.132 C 116.661 11.204, 115.150 11.542, 113.500 11.882 M 94 18.060 C 95.186 18.874, 94.977 19.028, 93 18.795 C 91.455 18.613, 90.591 18.964, 90.738 19.714 C 90.882 20.450, 90.291 20.709, 89.238 20.371 C 88.124 20.014, 88.393 20.541, 89.987 21.840 C 92.729 24.074, 98.392 25.494, 100.172 24.394 C 100.870 23.962, 101.034 24.136, 100.595 24.845 C 100.168 25.538, 100.535 26, 101.512 26 C 102.409 26, 103.812 26.669, 104.629 27.487 L 106.116 28.973 102.808 28.400 C 100.989 28.085, 98.938 27.655, 98.250 27.445 C 97.393 27.183, 97 28.333, 97 31.099 L 97 35.135 99.250 34.436 C 102.024 33.575, 105.871 30.912, 108.426 28.084 L 110.353 25.953 109.030 24.726 C 108.189 23.947, 107.940 23.917, 108.348 24.645 C 109.073 25.941, 105.976 27.495, 105.080 26.284 C 103.931 24.732, 94.123 17, 93.321 17.015 C 92.869 17.024, 93.175 17.494, 94 18.060 M 114.583 21.500 C 114.822 24.250, 114.752 25.938, 114.426 25.250 C 113.535 23.370, 111.966 23.747, 112.701 25.664 C 113.154 26.843, 112.970 27.099, 112.070 26.543 C 111.045 25.910, 111.044 26.215, 112.064 28.129 L 113.327 30.500 111.641 29.109 L 109.954 27.717 110.530 29.218 C 111.142 30.812, 115.692 33.641, 116.441 32.893 C 117.597 31.736, 117.113 23.118, 115.716 20 L 114.149 16.500 114.583 21.500 M 99.158 31 C 99.158 32.375, 99.385 32.938, 99.662 32.250 C 99.940 31.563, 99.940 30.438, 99.662 29.750 C 99.385 29.063, 99.158 29.625, 99.158 31 M 159.419 59 C 159.419 69.725, 159.566 74.112, 159.746 68.750 C 159.925 63.387, 159.925 54.612, 159.746 49.250 C 159.566 43.887, 159.419 48.275, 159.419 59 M 149.158 57 C 149.158 58.375, 149.385 58.938, 149.662 58.250 C 149.940 57.563, 149.940 56.438, 149.662 55.750 C 149.385 55.063, 149.158 55.625, 149.158 57 M 40.079 85.583 C 40.127 86.748, 40.364 86.985, 40.683 86.188 C 40.972 85.466, 40.936 84.603, 40.604 84.271 C 40.272 83.939, 40.036 84.529, 40.079 85.583" stroke="none" fill="#ffbf00" fill-rule="evenodd"/><path d="M 96.079 9.750 C 96.166 14.978, 96.651 14.555, 97.227 8.750 C 97.431 6.688, 97.239 5, 96.799 5 C 96.360 5, 96.036 7.138, 96.079 9.750 M 110.250 9.689 C 111.213 9.941, 112.787 9.941, 113.750 9.689 C 114.713 9.438, 113.925 9.232, 112 9.232 C 110.075 9.232, 109.287 9.438, 110.250 9.689 M 92.813 18.683 C 93.534 18.972, 94.397 18.936, 94.729 18.604 C 95.061 18.272, 94.471 18.036, 93.417 18.079 C 92.252 18.127, 92.015 18.364, 92.813 18.683 M 114.232 23 C 114.232 24.925, 114.438 25.712, 114.689 24.750 C 114.941 23.788, 114.941 22.212, 114.689 21.250 C 114.438 20.288, 114.232 21.075, 114.232 23 M 99 25 C 98.099 25.582, 97.975 25.975, 98.691 25.985 C 99.346 25.993, 100.160 25.550, 100.500 25 C 101.267 23.758, 100.921 23.758, 99 25 M 117.195 27.500 C 117.215 29.150, 117.439 29.704, 117.693 28.731 C 117.947 27.758, 117.930 26.408, 117.656 25.731 C 117.382 25.054, 117.175 25.850, 117.195 27.500 M 99.158 31 C 99.158 32.375, 99.385 32.938, 99.662 32.250 C 99.940 31.563, 99.940 30.438, 99.662 29.750 C 99.385 29.063, 99.158 29.625, 99.158 31" stroke="none" fill="#ffc400" fill-rule="evenodd"/><path d="M 96.079 9.750 C 96.166 14.978, 96.651 14.555, 97.227 8.750 C 97.431 6.688, 97.239 5, 96.799 5 C 96.360 5, 96.036 7.138, 96.079 9.750 M 110.250 9.689 C 111.213 9.941, 112.787 9.941, 113.750 9.689 C 114.713 9.438, 113.925 9.232, 112 9.232 C 110.075 9.232, 109.287 9.438, 110.250 9.689 M 92.813 18.683 C 93.534 18.972, 94.397 18.936, 94.729 18.604 C 95.061 18.272, 94.471 18.036, 93.417 18.079 C 92.252 18.127, 92.015 18.364, 92.813 18.683 M 114.232 23 C 114.232 24.925, 114.438 25.712, 114.689 24.750 C 114.941 23.788, 114.941 22.212, 114.689 21.250 C 114.438 20.288, 114.232 21.075, 114.232 23 M 99 25 C 98.099 25.582, 97.975 25.975, 98.691 25.985 C 99.346 25.993, 100.160 25.550, 100.500 25 C 101.267 23.758, 100.921 23.758, 99 25 M 117.195 27.500 C 117.215 29.150, 117.439 29.704, 117.693 28.731 C 117.947 27.758, 117.930 26.408, 117.656 25.731 C 117.382 25.054, 117.175 25.850, 117.195 27.500 M 99.158 31 C 99.158 32.375, 99.385 32.938, 99.662 32.250 C 99.940 31.563, 99.940 30.438, 99.662 29.750 C 99.385 29.063, 99.158 29.625, 99.158 31" stroke="none" fill="#ffc400" fill-rule="evenodd"/><path d="M 111.460 3.595 C 113.681 5.218, 112.751 5.472, 109.991 3.995 L 108.113 2.990 108.488 4.937 C 108.767 6.385, 108.451 6.727, 107.258 6.269 C 106.076 5.815, 105.817 6.081, 106.275 7.275 C 106.714 8.418, 106.469 8.734, 105.449 8.342 C 104.652 8.036, 104 8.311, 104 8.952 C 104 9.593, 103.480 9.797, 102.845 9.405 C 102.163 8.983, 101.961 9.128, 102.352 9.760 C 102.715 10.348, 102.447 11.057, 101.756 11.336 C 100.975 11.650, 101.140 11.872, 102.191 11.921 C 103.121 11.964, 104.152 11.563, 104.482 11.029 C 104.812 10.495, 107.314 9.762, 110.041 9.400 L 115 8.742 115 5.988 C 115 3.781, 114.456 3.129, 112.269 2.711 L 109.538 2.189 111.460 3.595 M 96.677 3.714 C 96.298 4.327, 96.328 4.980, 96.744 5.165 C 97.160 5.349, 97.230 7.525, 96.900 10 L 96.300 14.500 96.150 10.809 C 96.068 8.779, 95.482 6.798, 94.848 6.406 C 92.957 5.238, 94.523 13.562, 96.889 17.256 L 98.966 20.500 98.983 16.961 C 98.992 15.015, 99.875 11.707, 100.944 9.609 L 102.888 5.796 101.019 6.285 C 99.643 6.645, 99.307 6.364, 99.745 5.223 C 100.115 4.259, 99.929 3.926, 99.255 4.342 C 98.659 4.711, 97.990 4.469, 97.768 3.805 C 97.480 2.940, 97.171 2.914, 96.677 3.714 M 113.500 11.882 L 110.500 12.500 114.610 16.640 L 118.720 20.780 121.887 18.775 C 124.475 17.136, 124.834 16.505, 123.851 15.321 C 123.083 14.395, 121.719 14.086, 120.074 14.466 C 118.023 14.940, 117.805 14.834, 119 13.944 L 120.500 12.827 118.325 13.300 C 116.765 13.640, 116.300 13.381, 116.682 12.387 C 116.975 11.624, 117.053 11.059, 116.857 11.132 C 116.661 11.204, 115.150 11.542, 113.500 11.882 M 94 18.060 C 95.186 18.874, 94.977 19.028, 93 18.795 C 91.455 18.613, 90.591 18.964, 90.738 19.714 C 90.882 20.450, 90.291 20.709, 89.238 20.371 C 88.124 20.014, 88.393 20.541, 89.987 21.840 C 92.729 24.074, 98.392 25.494, 100.172 24.394 C 100.870 23.962, 101.034 24.136, 100.595 24.845 C 100.168 25.538, 100.535 26, 101.512 26 C 102.409 26, 103.812 26.669, 104.629 27.487 L 106.116 28.973 102.808 28.400 C 100.989 28.085, 98.938 27.655, 98.250 27.445 C 97.393 27.183, 97 28.333, 97 31.099 L 97 35.135 99.250 34.436 C 102.024 33.575, 105.871 30.912, 108.426 28.084 L 110.353 25.953 109.030 24.726 C 108.189 23.947, 107.940 23.917, 108.348 24.645 C 109.073 25.941, 105.976 27.495, 105.080 26.284 C 103.931 24.732, 94.123 17, 93.321 17.015 C 92.869 17.024, 93.175 17.494, 94 18.060 M 114.583 21.500 C 114.822 24.250, 114.752 25.938, 114.426 25.250 C 113.535 23.370, 111.966 23.747, 112.701 25.664 C 113.154 26.843, 112.970 27.099, 112.070 26.543 C 111.045 25.910, 111.044 26.215, 112.064 28.129 L 113.327 30.500 111.641 29.109 L 109.954 27.717 110.530 29.218 C 111.142 30.812, 115.692 33.641, 116.441 32.893 C 117.597 31.736, 117.113 23.118, 115.716 20 L 114.149 16.500 114.583 21.500 M 99.158 31 C 99.158 32.375, 99.385 32.938, 99.662 32.250 C 99.940 31.563, 99.940 30.438, 99.662 29.750 C 99.385 29.063, 99.158 29.625, 99.158 31 M 159.419 59 C 159.419 69.725, 159.566 74.112, 159.746 68.750 C 159.925 63.387, 159.925 54.612, 159.746 49.250 C 159.566 43.887, 159.419 48.275, 159.419 59 M 149.158 57 C 149.158 58.375, 149.385 58.938, 149.662 58.250 C 149.940 57.563, 149.940 56.438, 149.662 55.750 C 149.385 55.063, 149.158 55.625, 149.158 57 M 40.079 85.583 C 40.127 86.748, 40.364 86.985, 40.683 86.188 C 40.972 85.466, 40.936 84.603, 40.604 84.271 C 40.272 83.939, 40.036 84.529, 40.079 85.583" stroke="none" fill="#ffbf00" fill-rule="evenodd"/><path d="M 111.460 3.595 C 113.681 5.218, 112.751 5.472, 109.991 3.995 L 108.113 2.990 108.488 4.937 C 108.767 6.385, 108.451 6.727, 107.258 6.269 C 106.076 5.815, 105.817 6.081, 106.275 7.275 C 106.714 8.418, 106.469 8.734, 105.449 8.342 C 104.652 8.036, 104 8.311, 104 8.952 C 104 9.593, 103.480 9.797, 102.845 9.405 C 102.163 8.983, 101.961 9.128, 102.352 9.760 C 102.715 10.348, 102.447 11.057, 101.756 11.336 C 100.975 11.650, 101.140 11.872, 102.191 11.921 C 103.121 11.964, 104.152 11.563, 104.482 11.029 C 104.812 10.495, 107.314 9.762, 110.041 9.400 L 115 8.742 115 5.988 C 115 3.781, 114.456 3.129, 112.269 2.711 L 109.538 2.189 111.460 3.595 M 96.677 3.714 C 96.298 4.327, 96.328 4.980, 96.744 5.165 C 97.160 5.349, 97.230 7.525, 96.900 10 L 96.300 14.500 96.150 10.809 C 96.068 8.779, 95.482 6.798, 94.848 6.406 C 92.957 5.238, 94.523 13.562, 96.889 17.256 L 98.966 20.500 98.983 16.961 C 98.992 15.015, 99.875 11.707, 100.944 9.609 L 102.888 5.796 101.019 6.285 C 99.643 6.645, 99.307 6.364, 99.745 5.223 C 100.115 4.259, 99.929 3.926, 99.255 4.342 C 98.659 4.711, 97.990 4.469, 97.768 3.805 C 97.480 2.940, 97.171 2.914, 96.677 3.714 M 113.500 11.882 L 110.500 12.500 114.610 16.640 L 118.720 20.780 121.887 18.775 C 124.475 17.136, 124.834 16.505, 123.851 15.321 C 123.083 14.395, 121.719 14.086, 120.074 14.466 C 118.023 14.940, 117.805 14.834, 119 13.944 L 120.500 12.827 118.325 13.300 C 116.765 13.640, 116.300 13.381, 116.682 12.387 C 116.975 11.624, 117.053 11.059, 116.857 11.132 C 116.661 11.204, 115.150 11.542, 113.500 11.882 M 94 18.060 C 95.186 18.874, 94.977 19.028, 93 18.795 C 91.455 18.613, 90.591 18.964, 90.738 19.714 C 90.882 20.450, 90.291 20.709, 89.238 20.371 C 88.124 20.014, 88.393 20.541, 89.987 21.840 C 92.729 24.074, 98.392 25.494, 100.172 24.394 C 100.870 23.962, 101.034 24.136, 100.595 24.845 C 100.168 25.538, 100.535 26, 101.512 26 C 102.409 26, 103.812 26.669, 104.629 27.487 L 106.116 28.973 102.808 28.400 C 100.989 28.085, 98.938 27.655, 98.250 27.445 C 97.393 27.183, 97 28.333, 97 31.099 L 97 35.135 99.250 34.436 C 102.024 33.575, 105.871 30.912, 108.426 28.084 L 110.353 25.953 109.030 24.726 C 108.189 23.947, 107.940 23.917, 108.348 24.645 C 109.073 25.941, 105.976 27.495, 105.080 26.284 C 103.931 24.732, 94.123 17, 93.321 17.015 C 92.869 17.024, 93.175 17.494, 94 18.060 M 114.583 21.500 C 114.822 24.250, 114.752 25.938, 114.426 25.250 C 113.535 23.370, 111.966 23.747, 112.701 25.664 C 113.154 26.843, 112.970 27.099, 112.070 26.543 C 111.045 25.910, 111.044 26.215, 112.064 28.129 L 113.327 30.500 111.641 29.109 L 109.954 27.717 110.530 29.218 C 111.142 30.812, 115.692 33.641, 116.441 32.893 C 117.597 31.736, 117.113 23.118, 115.716 20 L 114.149 16.500 114.583 21.500 M 99.158 31 C 99.158 32.375, 99.385 32.938, 99.662 32.250 C 99.940 31.563, 99.940 30.438, 99.662 29.750 C 99.385 29.063, 99.158 29.625, 99.158 31 M 159.419 59 C 159.419 69.725, 159.566 74.112, 159.746 68.750 C 159.925 63.387, 159.925 54.612, 159.746 49.250 C 159.566 43.887, 159.419 48.275, 159.419 59 M 149.158 57 C 149.158 58.375, 149.385 58.938, 149.662 58.250 C 149.940 57.563, 149.940 56.438, 149.662 55.750 C 149.385 55.063, 149.158 55.625, 149.158 57 M 40.079 85.583 C 40.127 86.748, 40.364 86.985, 40.683 86.188 C 40.972 85.466, 40.936 84.603, 40.604 84.271 C 40.272 83.939, 40.036 84.529, 40.079 85.583" stroke="none" fill="#ffbf00" fill-rule="evenodd"/><path d="M 3.228 58.750 L 3.456 79.500 3.749 59.250 L 4.041 39 17.937 39 C 28.118 39, 31.968 39.334, 32.338 40.250 C 32.639 40.997, 32.874 40.795, 32.921 39.750 L 33 38 18 38 L 3 38 3.228 58.750 M 38.116 40.250 C 38.199 41.866, 38.358 42.021, 38.680 40.798 C 39.020 39.506, 40.497 39.010, 44.814 38.737 L 50.500 38.378 44.250 38.189 L 38 38 38.116 40.250 M 66 38.739 C 66 39.212, 67.533 39.419, 69.408 39.201 C 71.915 38.908, 72.945 39.230, 73.306 40.421 C 73.702 41.727, 73.766 41.698, 73.640 40.270 C 73.526 38.983, 72.462 38.415, 69.742 38.190 C 67.684 38.019, 66 38.266, 66 38.739 M 88.560 40.618 C 88.198 42.058, 88.150 43.483, 88.451 43.785 C 88.753 44.086, 89.007 43.696, 89.015 42.917 C 89.024 42.138, 89.474 40.825, 90.015 40 C 90.821 38.772, 91.156 38.742, 91.861 39.834 C 92.555 40.909, 92.839 40.861, 93.329 39.584 C 93.778 38.414, 93.320 38, 91.577 38 C 89.865 38, 89.036 38.719, 88.560 40.618 M 99.229 59.250 L 99.457 80.500 99.749 59.750 L 100.041 39 105.500 39 L 110.959 39 111.251 59.750 L 111.543 80.500 111.771 59.250 L 112 38 105.500 38 L 99 38 99.229 59.250 M 121.998 38.750 C 121.998 39.163, 128.564 39.364, 136.590 39.198 C 146.619 38.990, 150.979 39.224, 150.532 39.948 C 150.175 40.526, 150.359 41, 150.941 41 C 151.523 41, 152 40.325, 152 39.500 L 152 38 137 38 C 128.750 38, 121.999 38.337, 121.998 38.750 M 160.229 59.250 L 160.457 80.500 160.749 59.750 L 161.041 39 164.197 39 C 166.499 39, 168.139 39.881, 170.249 42.250 L 173.144 45.500 170.453 41.750 L 167.763 38 163.881 38 L 160 38 160.229 59.250 M 191.218 52.250 L 191.437 66.500 191.749 53.040 C 191.962 43.842, 192.447 39.335, 193.280 38.805 C 194.125 38.269, 193.963 38.026, 192.750 38.015 L 191 38 191.218 52.250 M 50.086 40.500 C 50.190 42.394, 51.856 45.584, 51.914 44 C 51.945 43.175, 51.533 41.825, 51 41 C 50.467 40.175, 50.055 39.950, 50.086 40.500 M 15.328 48.500 C 15.333 52.350, 15.513 53.802, 15.730 51.728 C 15.946 49.653, 15.943 46.503, 15.722 44.728 C 15.501 42.952, 15.324 44.650, 15.328 48.500 M 91.079 43.583 C 91.127 44.748, 91.364 44.985, 91.683 44.188 C 91.972 43.466, 91.936 42.603, 91.604 42.271 C 91.272 41.939, 91.036 42.529, 91.079 43.583 M 133.328 48.500 C 133.333 52.350, 133.513 53.802, 133.730 51.728 C 133.946 49.653, 133.943 46.503, 133.722 44.728 C 133.501 42.952, 133.324 44.650, 133.328 48.500 M 64.079 45.583 C 64.127 46.748, 64.364 46.985, 64.683 46.188 C 64.972 45.466, 64.936 44.603, 64.604 44.271 C 64.272 43.939, 64.036 44.529, 64.079 45.583 M 40.079 47.583 C 40.127 48.748, 40.364 48.985, 40.683 48.188 C 40.972 47.466, 40.936 46.603, 40.604 46.271 C 40.272 45.939, 40.036 46.529, 40.079 47.583 M 75.079 47.583 C 75.127 48.748, 75.364 48.985, 75.683 48.188 C 75.972 47.466, 75.936 46.603, 75.604 46.271 C 75.272 45.939, 75.036 46.529, 75.079 47.583 M 173 46.378 C 173 46.585, 173.787 47.373, 174.750 48.128 L 176.500 49.500 175.128 47.750 C 173.821 46.084, 173 45.555, 173 46.378 M 52.086 47.500 C 52.190 49.394, 53.856 52.584, 53.914 51 C 53.945 50.175, 53.533 48.825, 53 48 C 52.467 47.175, 52.055 46.950, 52.086 47.500 M 62.624 49.539 C 62.281 50.432, 62.039 51.914, 62.086 52.832 C 62.133 53.749, 62.568 53.173, 63.053 51.550 C 63.996 48.394, 63.662 46.832, 62.624 49.539 M 86.079 49.583 C 86.127 50.748, 86.364 50.985, 86.683 50.188 C 86.972 49.466, 86.936 48.603, 86.604 48.271 C 86.272 47.939, 86.036 48.529, 86.079 49.583 M 89.079 49.668 C 89.036 50.311, 88.741 51.661, 88.424 52.668 L 87.849 54.500 88.995 52.712 C 89.626 51.729, 89.920 50.379, 89.650 49.712 C 89.295 48.837, 89.136 48.825, 89.079 49.668 M 178.437 53.329 C 179.977 55.348, 181.440 57, 181.687 57 C 182.381 57, 178.052 51.150, 176.772 50.359 C 176.148 49.973, 176.897 51.310, 178.437 53.329 M 84.624 53.539 C 84.281 54.432, 84.029 55.689, 84.063 56.332 C 84.098 56.974, 84.558 56.422, 85.085 55.105 C 85.612 53.787, 85.864 52.531, 85.645 52.312 C 85.426 52.093, 84.966 52.645, 84.624 53.539 M 42.079 54.583 C 42.127 55.748, 42.364 55.985, 42.683 55.188 C 42.972 54.466, 42.936 53.603, 42.604 53.271 C 42.272 52.939, 42.036 53.529, 42.079 54.583 M 77.079 54.583 C 77.127 55.748, 77.364 55.985, 77.683 55.188 C 77.972 54.466, 77.936 53.603, 77.604 53.271 C 77.272 52.939, 77.036 53.529, 77.079 54.583 M 163.436 54.305 C 163.161 55.023, 163.065 61.211, 163.223 68.055 L 163.510 80.500 164.005 66.748 C 164.277 59.185, 164.373 52.997, 164.219 52.998 C 164.064 52.999, 163.712 53.587, 163.436 54.305 M 54.086 54.500 C 54.190 56.394, 55.856 59.584, 55.914 58 C 55.945 57.175, 55.533 55.825, 55 55 C 54.467 54.175, 54.055 53.950, 54.086 54.500 M 87.079 56.583 C 87.127 57.748, 87.364 57.985, 87.683 57.188 C 87.972 56.466, 87.936 55.603, 87.604 55.271 C 87.272 54.939, 87.036 55.529, 87.079 56.583 M 29.079 57.583 C 29.127 58.748, 29.364 58.985, 29.683 58.188 C 29.972 57.466, 29.936 56.603, 29.604 56.271 C 29.272 55.939, 29.036 56.529, 29.079 57.583 M 148.079 57.583 C 148.127 58.748, 148.364 58.985, 148.683 58.188 C 148.972 57.466, 148.936 56.603, 148.604 56.271 C 148.272 55.939, 148.036 56.529, 148.079 57.583 M 78.086 58 C 78.055 58.825, 78.467 60.175, 79 61 C 80.181 62.828, 80.181 61.249, 79 58.500 C 78.433 57.181, 78.122 57.011, 78.086 58 M 169.978 59.970 C 171.142 61.603, 172.604 63.255, 173.228 63.641 C 173.852 64.027, 173.103 62.690, 171.563 60.671 C 168.220 56.289, 166.960 55.731, 169.978 59.970 M 15.424 59.338 C 15.141 60.075, 15.047 64.237, 15.215 68.588 L 15.520 76.500 16.010 67.248 C 16.497 58.044, 16.404 56.784, 15.424 59.338 M 60.079 59.583 C 60.127 60.748, 60.364 60.985, 60.683 60.188 C 60.972 59.466, 60.936 58.603, 60.604 58.271 C 60.272 57.939, 60.036 58.529, 60.079 59.583 M 62.571 60.571 C 62.204 62.037, 62.096 63.429, 62.331 63.665 C 62.567 63.900, 63.061 62.894, 63.429 61.429 C 63.796 59.963, 63.904 58.571, 63.669 58.335 C 63.433 58.100, 62.939 59.106, 62.571 60.571 M 184.437 61.329 C 185.977 63.348, 187.440 65, 187.687 65 C 188.381 65, 184.052 59.150, 182.772 58.359 C 182.148 57.973, 182.897 59.310, 184.437 61.329 M 133.355 67.500 C 133.352 72.450, 133.521 74.601, 133.731 72.280 C 133.940 69.959, 133.943 65.909, 133.736 63.280 C 133.530 60.651, 133.358 62.550, 133.355 67.500 M 44.086 61 C 44.055 61.825, 44.467 63.175, 45 64 C 46.181 65.828, 46.181 64.249, 45 61.500 C 44.433 60.181, 44.122 60.011, 44.086 61 M 85.079 62.668 C 85.036 63.311, 84.741 64.661, 84.424 65.668 L 83.849 67.500 84.995 65.712 C 85.626 64.729, 85.920 63.379, 85.650 62.712 C 85.295 61.837, 85.136 61.825, 85.079 62.668 M 68.079 64.583 C 68.127 65.748, 68.364 65.985, 68.683 65.188 C 68.972 64.466, 68.936 63.603, 68.604 63.271 C 68.272 62.939, 68.036 63.529, 68.079 64.583 M 61.079 65.668 C 61.036 66.311, 60.741 67.661, 60.424 68.668 L 59.849 70.500 60.995 68.712 C 61.626 67.729, 61.920 66.379, 61.650 65.712 C 61.295 64.837, 61.136 64.825, 61.079 65.668 M 175.978 67.970 C 177.142 69.603, 178.604 71.255, 179.228 71.641 C 179.852 72.027, 179.103 70.690, 177.563 68.671 C 174.220 64.289, 172.960 63.731, 175.978 67.970 M 46.015 67.583 C 46.024 68.638, 46.487 70.175, 47.046 71 C 47.787 72.095, 47.880 71.691, 47.390 69.500 C 46.567 65.823, 45.995 65.025, 46.015 67.583 M 83.079 69.583 C 83.127 70.748, 83.364 70.985, 83.683 70.188 C 83.972 69.466, 83.936 68.603, 83.604 68.271 C 83.272 67.939, 83.036 68.529, 83.079 69.583 M 70.079 71.583 C 70.127 72.748, 70.364 72.985, 70.683 72.188 C 70.972 71.466, 70.936 70.603, 70.604 70.271 C 70.272 69.939, 70.036 70.529, 70.079 71.583 M 59.079 72.583 C 59.127 73.748, 59.364 73.985, 59.683 73.188 C 59.972 72.466, 59.936 71.603, 59.604 71.271 C 59.272 70.939, 59.036 71.529, 59.079 72.583 M 48.079 74.583 C 48.127 75.748, 48.364 75.985, 48.683 75.188 C 48.972 74.466, 48.936 73.603, 48.604 73.271 C 48.272 72.939, 48.036 73.529, 48.079 74.583 M 181.100 74.705 C 181.829 75.917, 182.640 76.694, 182.903 76.431 C 183.166 76.168, 182.570 75.176, 181.579 74.226 L 179.776 72.500 181.100 74.705 M 81.079 75.583 C 81.127 76.748, 81.364 76.985, 81.683 76.188 C 81.972 75.466, 81.936 74.603, 81.604 74.271 C 81.272 73.939, 81.036 74.529, 81.079 75.583 M 35.079 78.583 C 35.127 79.748, 35.364 79.985, 35.683 79.188 C 35.972 78.466, 35.936 77.603, 35.604 77.271 C 35.272 76.939, 35.036 77.529, 35.079 78.583 M 72.079 78.583 C 72.127 79.748, 72.364 79.985, 72.683 79.188 C 72.972 78.466, 72.936 77.603, 72.604 77.271 C 72.272 76.939, 72.036 77.529, 72.079 78.583 M 20.630 86.250 C 19.406 90.819, 19.853 92.006, 22.750 91.884 C 24.275 91.820, 24.758 91.572, 23.835 91.327 C 20.248 90.377, 20.622 85.419, 24.335 84.695 L 26.500 84.272 23.867 84.136 C 21.919 84.035, 21.076 84.586, 20.630 86.250 M 33.465 86.632 C 33.117 88.209, 32.660 90.063, 32.448 90.750 C 32.236 91.438, 32.449 92, 32.922 92 C 33.395 92, 33.992 90.313, 34.249 88.250 C 34.818 83.686, 34.334 82.689, 33.465 86.632 M 81.853 85.063 C 81.117 86.841, 81.892 92, 82.894 92 C 84.012 92, 86.641 88.481, 87.243 86.180 C 87.556 84.981, 87.405 84, 86.906 84 C 86.408 84, 85.986 84.787, 85.968 85.750 C 85.951 86.713, 85.306 88.333, 84.535 89.350 L 83.133 91.201 82.816 87.350 C 82.624 85.011, 82.246 84.113, 81.853 85.063 M 89.446 87.250 C 88.904 89.072, 87.902 90.379, 87.165 90.225 C 86.443 90.074, 86.136 90.412, 86.485 90.975 C 86.833 91.539, 87.444 92, 87.843 92 C 88.743 92, 92 86.590, 92 85.096 C 92 82.775, 90.369 84.152, 89.446 87.250 M 144.667 84.667 C 144.300 85.033, 144 86.833, 144 88.667 L 144 92 146.750 91.900 L 149.500 91.801 147 90.989 L 144.500 90.178 146.750 89.472 C 147.988 89.084, 149 88.369, 149 87.883 C 149 86.649, 147.618 86.782, 146.251 88.149 C 145.385 89.015, 145.143 88.749, 145.269 87.074 C 145.401 85.329, 145.928 84.944, 147.718 85.287 C 148.973 85.526, 150 85.335, 150 84.861 C 150 83.851, 145.641 83.692, 144.667 84.667 M 28 85.893 C 28 86.384, 28.652 87.036, 29.449 87.342 C 30.418 87.714, 30.714 87.418, 30.342 86.449 C 29.735 84.867, 28 84.455, 28 85.893 M 22.500 88 C 22.160 88.550, 22.557 89, 23.382 89 C 24.207 89, 25.160 88.550, 25.500 88 C 25.840 87.450, 25.443 87, 24.618 87 C 23.793 87, 22.840 87.450, 22.500 88 M 35.784 87.845 C 36.492 88.294, 36.780 89.409, 36.427 90.330 C 36.066 91.270, 36.270 92, 36.893 92 C 37.502 92, 38 90.875, 38 89.500 C 38 87.780, 37.454 87.005, 36.250 87.015 C 34.963 87.027, 34.840 87.246, 35.784 87.845 M 40.070 89.750 L 40.141 92.500 41 90.500 C 42.174 87.769, 42.174 87, 41 87 C 40.450 87, 40.032 88.237, 40.070 89.750 M 44.592 87.851 C 44.252 88.401, 44.855 88.589, 45.999 88.290 C 47.364 87.933, 48 88.259, 48 89.314 C 48 90.165, 47.212 91.049, 46.250 91.279 C 44.918 91.597, 44.978 91.673, 46.500 91.598 C 47.796 91.535, 48.500 90.801, 48.500 89.514 C 48.500 87.428, 45.613 86.200, 44.592 87.851 M 50.618 90.160 C 49.995 93.276, 50.852 95.680, 51.720 93.250 C 51.966 92.563, 52.981 92, 53.976 92 C 55.876 92, 57.405 89.465, 56.444 87.910 C 56.135 87.409, 54.840 87, 53.566 87 C 51.767 87, 51.109 87.705, 50.618 90.160 M 58.755 89.500 C 58.492 90.875, 58.665 92, 59.139 92 C 59.612 92, 60 90.875, 60 89.500 C 60 88.125, 59.827 87, 59.617 87 C 59.406 87, 59.018 88.125, 58.755 89.500 M 62.667 87.667 C 62.300 88.033, 62 89.158, 62 90.167 C 62 91.537, 62.758 92, 65 92 L 68 92 68 89.500 C 68 87.548, 67.489 87, 65.667 87 C 64.383 87, 63.033 87.300, 62.667 87.667 M 70.063 89.750 L 70.127 92.500 71.031 90.250 C 71.529 89.013, 72.400 88, 72.968 88 C 73.535 88, 74.032 89.013, 74.070 90.250 L 74.141 92.500 75 90.500 C 76.364 87.325, 76.178 87, 73 87 L 70 87 70.063 89.750 M 93.667 87.667 C 93.300 88.033, 93 89.158, 93 90.167 C 93 91.456, 93.742 92, 95.500 92 C 97.500 92, 98 91.500, 98 89.500 C 98 87.742, 97.456 87, 96.167 87 C 95.158 87, 94.033 87.300, 93.667 87.667 M 100 89.559 C 100 91.010, 100.433 91.851, 101 91.500 C 101.550 91.160, 102 90.234, 102 89.441 C 102 88.648, 102.450 88, 103 88 C 103.550 88, 104.007 89.013, 104.015 90.250 C 104.028 92.069, 104.216 92.213, 105 91 C 106.745 88.300, 106.095 87, 103 87 L 100 87 100 89.559 M 107.798 89.722 L 108.318 92.444 109.089 90.472 C 110.222 87.571, 110.148 87, 108.639 87 C 107.696 87, 107.437 87.838, 107.798 89.722 M 112.592 87.851 C 112.249 88.406, 112.950 88.605, 114.249 88.320 L 116.500 87.827 115 88.989 C 113.973 89.786, 113.918 90.042, 114.825 89.801 C 115.554 89.608, 116.140 89.011, 116.128 88.475 C 116.098 87.146, 113.330 86.658, 112.592 87.851 M 118 89.559 C 118 91.010, 118.433 91.851, 119 91.500 C 119.550 91.160, 120 90.009, 120 88.941 C 120 87.873, 119.550 87, 119 87 C 118.450 87, 118 88.152, 118 89.559 M 121.773 89.592 C 122.135 91.485, 122.498 91.822, 123.119 90.842 C 124.398 88.824, 124.170 87, 122.639 87 C 121.713 87, 121.436 87.829, 121.773 89.592 M 129.624 88.539 C 129.281 89.432, 129.029 90.689, 129.063 91.332 C 129.098 91.974, 129.558 91.422, 130.085 90.105 C 130.612 88.787, 130.864 87.531, 130.645 87.312 C 130.426 87.093, 129.966 87.645, 129.624 88.539 M 132.755 89.500 C 132.492 90.875, 132.665 92, 133.139 92 C 133.612 92, 134 91.100, 134 90 C 134 88.825, 134.667 88, 135.617 88 C 136.741 88, 137.074 88.609, 136.710 90 C 136.423 91.100, 136.595 92, 137.094 92 C 137.592 92, 138 90.875, 138 89.500 C 138 87.533, 137.492 87, 135.617 87 C 133.868 87, 133.106 87.666, 132.755 89.500 M 151.607 88.582 C 151.273 89.452, 151.029 90.689, 151.063 91.332 C 151.098 91.974, 151.534 91.487, 152.031 90.250 C 152.529 89.013, 153.369 88, 153.898 88 C 154.428 88, 155.018 89.013, 155.210 90.250 L 155.560 92.500 156.141 89.750 L 156.723 87 154.468 87 C 153.228 87, 151.941 87.712, 151.607 88.582 M 159.229 88.171 C 157.749 89.651, 157.608 92, 159 92 C 159.550 92, 160 91.100, 160 90 C 160 88.900, 160.477 88, 161.059 88 C 161.641 88, 161.840 88.450, 161.500 89 C 161.160 89.550, 161.621 90, 162.524 90 C 164.489 90, 163.952 87.620, 161.896 87.221 C 161.105 87.067, 159.905 87.495, 159.229 88.171 M 166.560 88.098 C 166.820 88.518, 166.575 89.144, 166.016 89.490 C 165.457 89.835, 165 90.541, 165 91.059 C 165 91.577, 165.900 91.100, 167 90 C 169.387 87.613, 169.444 87.333, 167.544 87.333 C 166.743 87.333, 166.301 87.677, 166.560 88.098 M 170.644 87.690 C 169.640 88.694, 169.888 91, 171 91 C 171.550 91, 171.887 90.494, 171.750 89.875 C 171.613 89.256, 172.063 88.544, 172.750 88.292 C 173.438 88.040, 174 88.321, 174 88.917 C 174 89.513, 174.450 90, 175 90 C 175.550 90, 176 89.423, 176 88.718 C 176 87.381, 171.765 86.568, 170.644 87.690 M 178.063 88.750 C 178.029 89.987, 178.563 91.014, 179.250 91.032 C 179.954 91.050, 179.652 91.705, 178.559 92.532 C 177.469 93.356, 177.172 94, 177.880 94 C 179.413 94, 181.276 92.221, 182.877 89.229 C 183.645 87.794, 183.702 87, 183.035 87 C 182.466 87, 182 87.648, 182 88.441 C 182 90.964, 180.018 91.215, 179.055 88.814 L 178.127 86.500 178.063 88.750 M 28 90 C 28 91.100, 28.408 92, 28.906 92 C 29.405 92, 29.577 91.100, 29.290 90 C 29.002 88.900, 28.594 88, 28.383 88 C 28.173 88, 28 88.900, 28 90 M 51.743 89.873 C 51.367 91.314, 51.686 91.633, 53.127 91.257 C 54.157 90.987, 55 90.144, 55 89.383 C 55 87.311, 52.307 87.716, 51.743 89.873 M 63.543 88.931 C 62.803 90.128, 64.684 91.313, 66.016 90.490 C 67.135 89.799, 66.400 88, 65 88 C 64.515 88, 63.859 88.419, 63.543 88.931 M 94.667 88.667 C 93.516 89.817, 93.938 91, 95.500 91 C 96.325 91, 97 90.325, 97 89.500 C 97 87.938, 95.817 87.516, 94.667 88.667 M 174 91.833 C 174 92.475, 172.988 93.052, 171.750 93.116 L 169.500 93.232 171.356 93.710 C 173.351 94.223, 175.811 92.478, 174.683 91.350 C 174.308 90.974, 174 91.192, 174 91.833" stroke="none" fill="#035d26" fill-rule="evenodd"/><path d="M 2.425 59 C 2.425 70.825, 2.569 75.663, 2.746 69.750 C 2.923 63.838, 2.923 54.163, 2.746 48.250 C 2.569 42.338, 2.425 47.175, 2.425 59 M 33 39.634 L 33 41.269 18.500 40.551 L 4 39.833 4 59.916 L 4 80 19.500 80 C 30.544 80, 35 79.668, 35 78.846 C 35 78.006, 30.995 77.818, 20.250 78.155 C 12.137 78.410, 7.750 78.461, 10.500 78.269 L 15.500 77.920 15.172 69.290 C 14.960 63.713, 15.284 59.837, 16.091 58.331 L 17.338 56 23.596 56 C 28.714 56, 29.937 56.318, 30.311 57.750 C 30.644 59.025, 30.800 58.868, 30.884 57.174 L 31 54.848 22.998 55.174 L 14.995 55.500 14.995 48.500 L 14.996 41.500 24.498 41.819 L 34 42.137 34 40.069 C 34 38.931, 33.775 38, 33.500 38 C 33.225 38, 33 38.736, 33 39.634 M 98.425 59 C 98.425 70.825, 98.569 75.663, 98.746 69.750 C 98.923 63.838, 98.923 54.163, 98.746 48.250 C 98.569 42.338, 98.425 47.175, 98.425 59 M 121.425 59 C 121.425 70.825, 121.569 75.663, 121.746 69.750 C 121.923 63.838, 121.923 54.163, 121.746 48.250 C 121.569 42.338, 121.425 47.175, 121.425 59 M 194.425 59 C 194.425 70.825, 194.569 75.663, 194.746 69.750 C 194.923 63.838, 194.923 54.163, 194.746 48.250 C 194.569 42.338, 194.425 47.175, 194.425 59 M 65.685 40.886 C 66.218 42.956, 60.924 61.269, 59.292 63 L 57.878 64.500 56.689 62.892 C 56.035 62.008, 54.194 56.495, 52.598 50.642 L 49.695 40 44.455 40 C 40.598 40, 39.054 40.418, 38.607 41.582 C 37.742 43.835, 37.884 44.731, 38.861 43.190 C 39.622 41.990, 41.443 47.477, 48.503 72.250 L 50.142 78 53.321 78.118 L 56.500 78.237 53.500 79 L 50.500 79.763 53.628 79.882 L 56.756 80 59.569 69.931 C 64.279 53.064, 66.051 52.994, 70.569 69.495 L 73.446 80 76.615 80 L 79.783 80 80.456 77.250 C 82.905 67.233, 86.368 57.962, 87.208 59.171 C 87.833 60.072, 87.925 59.768, 87.491 58.228 C 87.126 56.931, 87.775 53.071, 89.004 49.228 C 90.188 45.528, 91.332 41.938, 91.547 41.250 C 91.762 40.563, 91.519 40, 91.009 40 C 90.498 40, 89.536 41.816, 88.871 44.036 C 88.016 46.891, 87.400 47.695, 86.766 46.786 C 86.174 45.937, 86.077 46.243, 86.481 47.685 C 87.179 50.174, 84.652 59.734, 82.542 62.594 C 81.477 64.036, 80.850 64.219, 79.966 63.348 C 78.226 61.634, 74.840 48.117, 75.532 45.644 C 75.965 44.093, 75.866 43.883, 75.174 44.883 C 74.449 45.932, 74.046 45.485, 73.508 43.036 L 72.798 39.805 69.415 40.200 C 67.554 40.417, 65.873 40.348, 65.680 40.047 C 65.486 39.746, 65.488 40.124, 65.685 40.886 M 100 59 L 100 78 105.500 78 L 111 78 111 59 L 111 40 105.500 40 L 100 40 100 59 M 123 59.920 L 123 80 138 80 C 147.333 80, 153 79.622, 153 79 C 153 78.420, 149.120 77.918, 143.750 77.804 L 134.500 77.609 145 77 L 155.500 76.391 145.250 76.196 L 135 76 134.811 67.250 L 134.622 58.500 134 67.500 L 133.378 76.500 133.221 68 C 133.017 56.976, 133.606 56.204, 142.574 55.746 L 149.500 55.392 142.250 55.196 L 135 55 135 48.500 L 135 42 143.167 42 C 147.658 42, 151.146 41.832, 150.917 41.627 C 150.687 41.421, 144.313 40.935, 136.750 40.546 L 123 39.839 123 59.920 M 161 60 C 161 71.074, 161.399 80, 161.893 80 C 162.385 80, 162.856 74.264, 162.941 67.252 C 163.026 60.241, 163.513 54.087, 164.024 53.576 C 165.261 52.339, 169.094 55.833, 168.757 57.889 C 168.616 58.750, 168.950 59.472, 169.500 59.493 C 171.054 59.552, 173 61.011, 173 62.118 C 173 62.668, 172.550 62.840, 172 62.500 C 170.372 61.494, 170.860 62.642, 172.692 64.128 L 174.384 65.500 173.500 64 L 172.616 62.500 174.308 63.872 C 176.200 65.407, 176.648 67.518, 174.845 66.405 C 174.108 65.949, 173.963 66.132, 174.446 66.912 C 174.861 67.584, 175.451 67.882, 175.758 67.575 C 176.458 66.876, 179 68.919, 179 70.181 C 179 70.697, 178.550 70.840, 178 70.500 C 176.372 69.494, 176.860 70.642, 178.692 72.128 L 180.384 73.500 179.537 72.095 C 178.956 71.131, 179.061 70.919, 179.872 71.421 C 180.522 71.822, 180.929 72.894, 180.777 73.803 C 180.624 74.712, 181.040 75.465, 181.700 75.478 C 182.360 75.490, 183.463 76.063, 184.150 76.750 C 184.838 77.438, 187.110 78, 189.200 78 L 193 78 192.783 58.750 C 192.608 43.300, 192.507 42.066, 192.271 52.500 C 191.924 67.818, 191.774 68.485, 189.015 67.008 C 187.907 66.415, 187 65.469, 187 64.906 C 187 64.343, 187.563 64.220, 188.250 64.633 C 189.099 65.143, 189.060 64.842, 188.128 63.692 C 186.529 61.721, 185.538 61.428, 186.633 63.250 C 187.143 64.099, 186.842 64.060, 185.692 63.128 C 183.800 61.593, 183.352 59.482, 185.155 60.595 C 185.876 61.041, 186.037 60.869, 185.585 60.138 C 185.187 59.494, 184.494 59.195, 184.044 59.473 C 182.938 60.156, 180.860 57.532, 181.215 55.901 C 181.372 55.180, 181.050 54.564, 180.500 54.530 C 178.924 54.434, 177 52.979, 177 51.882 C 177 51.332, 177.450 51.160, 178 51.500 C 179.628 52.506, 179.140 51.358, 177.308 49.872 L 175.616 48.500 176.463 49.905 C 177.044 50.869, 176.939 51.081, 176.128 50.579 C 175.478 50.178, 175.071 49.238, 175.223 48.490 C 175.376 47.743, 175.050 47.063, 174.500 46.981 C 172.637 46.700, 170.972 44.741, 171.237 43.139 C 171.382 42.262, 170.975 41.535, 170.333 41.522 C 169.692 41.510, 168.829 41.163, 168.417 40.750 C 168.004 40.337, 166.167 40, 164.333 40 L 161 40 161 60 M 133.415 42.362 C 133.127 43.111, 133.035 46.374, 133.211 49.612 L 133.530 55.500 134.015 48.248 C 134.502 40.971, 134.385 39.832, 133.415 42.362 M 61.079 53.583 C 61.127 54.748, 61.364 54.985, 61.683 54.188 C 61.972 53.466, 61.936 52.603, 61.604 52.271 C 61.272 51.939, 61.036 52.529, 61.079 53.583 M 59 60.250 C 59 61.121, 58.438 62.060, 57.750 62.338 C 56.771 62.733, 56.778 62.859, 57.781 62.921 C 59.207 63.009, 60.599 60.266, 59.624 59.290 C 59.281 58.947, 59 59.379, 59 60.250 M 60.079 71.583 C 60.127 72.748, 60.364 72.985, 60.683 72.188 C 60.972 71.466, 60.936 70.603, 60.604 70.271 C 60.272 69.939, 60.036 70.529, 60.079 71.583 M 47.079 73.583 C 47.127 74.748, 47.364 74.985, 47.683 74.188 C 47.972 73.466, 47.936 72.603, 47.604 72.271 C 47.272 71.939, 47.036 72.529, 47.079 73.583 M 20.750 76.737 C 23.638 76.939, 28.363 76.939, 31.250 76.737 C 34.138 76.535, 31.775 76.370, 26 76.370 C 20.225 76.370, 17.863 76.535, 20.750 76.737 M 75.269 78.693 C 76.242 78.947, 77.592 78.930, 78.269 78.656 C 78.946 78.382, 78.150 78.175, 76.500 78.195 C 74.850 78.215, 74.296 78.439, 75.269 78.693 M 126.250 78.716 C 127.763 78.945, 130.238 78.945, 131.750 78.716 C 133.262 78.487, 132.025 78.300, 129 78.300 C 125.975 78.300, 124.737 78.487, 126.250 78.716 M 102.768 79.725 C 104.565 79.947, 107.265 79.943, 108.768 79.715 C 110.271 79.486, 108.800 79.304, 105.500 79.310 C 102.200 79.315, 100.971 79.502, 102.768 79.725 M 187.762 79.707 C 189.006 79.946, 190.806 79.937, 191.762 79.687 C 192.718 79.437, 191.700 79.241, 189.500 79.252 C 187.300 79.263, 186.518 79.468, 187.762 79.707 M 20.086 85 C 19.981 87.866, 21.423 88.689, 23.250 86.805 L 25 85 23.500 85 C 22.675 85, 21.968 85.563, 21.930 86.250 C 21.891 86.938, 21.473 86.600, 21 85.500 C 20.433 84.181, 20.122 84.011, 20.086 85 M 59 85 C 59 85.550, 59.477 86, 60.059 86 C 60.641 86, 60.840 85.550, 60.500 85 C 60.160 84.450, 59.684 84, 59.441 84 C 59.198 84, 59 84.450, 59 85 M 33.825 87.674 C 34.251 89.767, 34.503 90.019, 34.794 88.644 C 35.011 87.623, 34.751 86.351, 34.218 85.818 C 33.592 85.192, 33.452 85.849, 33.825 87.674 M 85.079 86.583 C 85.127 87.748, 85.364 87.985, 85.683 87.188 C 85.972 86.466, 85.936 85.603, 85.604 85.271 C 85.272 84.939, 85.036 85.529, 85.079 86.583 M 87.267 87 C 87.361 88.375, 87.107 90.031, 86.703 90.681 C 86.298 91.330, 86.537 92.190, 87.234 92.591 C 87.930 92.992, 88.166 92.952, 87.759 92.502 C 87.351 92.052, 87.392 91.193, 87.850 90.592 C 88.308 89.991, 88.325 88.375, 87.889 87 L 87.095 84.500 87.267 87 M 146.813 85.683 C 147.534 85.972, 148.397 85.936, 148.729 85.604 C 149.061 85.272, 148.471 85.036, 147.417 85.079 C 146.252 85.127, 146.015 85.364, 146.813 85.683 M 37.211 87.399 C 37.920 88.169, 38.658 88.649, 38.850 88.466 C 39.443 87.902, 37.940 86, 36.902 86 C 36.362 86, 36.501 86.630, 37.211 87.399 M 46.644 86.627 C 47.273 86.885, 47.601 88.087, 47.373 89.298 L 46.959 91.500 47.854 89.500 C 48.870 87.231, 48.439 85.963, 46.691 86.079 C 45.831 86.136, 45.818 86.288, 46.644 86.627 M 54 86.393 C 54 86.609, 54.698 87.054, 55.552 87.382 C 56.442 87.723, 56.843 87.555, 56.493 86.989 C 55.906 86.038, 54 85.583, 54 86.393 M 67.564 87.293 C 67.940 88.279, 68.499 88.834, 68.807 88.526 C 69.115 88.219, 68.808 87.412, 68.124 86.733 C 67.136 85.753, 67.022 85.868, 67.564 87.293 M 114.981 86.660 C 115.548 86.941, 115.777 87.551, 115.490 88.016 C 115.203 88.481, 115.385 89.120, 115.896 89.436 C 116.407 89.751, 116.712 89.244, 116.575 88.309 C 116.438 87.374, 115.791 86.505, 115.138 86.379 C 114.484 86.253, 114.414 86.380, 114.981 86.660 M 137.825 88.674 C 138.251 90.767, 138.503 91.019, 138.794 89.644 C 139.011 88.623, 138.751 87.351, 138.218 86.818 C 137.592 86.192, 137.452 86.849, 137.825 88.674 M 173.872 87.750 L 172.500 89.500 174.250 88.128 C 175.213 87.373, 176 86.585, 176 86.378 C 176 85.555, 175.179 86.084, 173.872 87.750 M 27.158 89 C 27.158 90.375, 27.385 90.938, 27.662 90.250 C 27.940 89.563, 27.940 88.438, 27.662 87.750 C 27.385 87.063, 27.158 87.625, 27.158 89 M 60.079 88.583 C 60.127 89.748, 60.364 89.985, 60.683 89.188 C 60.972 88.466, 60.936 87.603, 60.604 87.271 C 60.272 86.939, 60.036 87.529, 60.079 88.583 M 98.100 88.628 C 97.981 91.165, 100.472 93.664, 101.485 92.024 C 101.850 91.433, 101.593 91.074, 100.913 91.225 C 100.233 91.376, 99.345 90.375, 98.938 89 L 98.199 86.500 98.100 88.628 M 106 88 C 106 88.550, 106.477 89, 107.059 89 C 107.641 89, 107.840 88.550, 107.500 88 C 107.160 87.450, 106.684 87, 106.441 87 C 106.198 87, 106 87.450, 106 88 M 129.632 89.399 C 130.099 91.452, 129.957 92.092, 129.146 91.590 C 128.516 91.201, 128 91.359, 128 91.941 C 128 93.512, 129.977 93.224, 130.615 91.561 C 130.919 90.769, 130.674 89.307, 130.070 88.311 L 128.973 86.500 129.632 89.399 M 165.325 89.697 C 165.421 91.455, 165.851 92.544, 166.280 92.116 C 166.710 91.689, 166.631 90.250, 166.105 88.920 L 165.149 86.500 165.325 89.697 M 177.079 88.583 C 177.127 89.748, 177.364 89.985, 177.683 89.188 C 177.972 88.466, 177.936 87.603, 177.604 87.271 C 177.272 86.939, 177.036 87.529, 177.079 88.583 M 43 89.167 C 43 89.625, 43.423 90, 43.941 90 C 44.459 90, 45.114 89.625, 45.397 89.167 C 45.680 88.708, 45.257 88.333, 44.456 88.333 C 43.655 88.333, 43 88.708, 43 89.167 M 52.329 89.584 C 51.840 90.859, 51.557 90.908, 50.876 89.834 C 50.299 88.924, 50.026 88.879, 50.015 89.691 C 49.988 91.818, 51.604 91.944, 53.312 89.949 C 54.230 88.877, 54.521 88, 53.959 88 C 53.397 88, 52.664 88.713, 52.329 89.584 M 94.459 89.067 C 93.433 90.727, 94.354 90.957, 95.789 89.399 C 96.499 88.630, 96.638 88, 96.098 88 C 95.559 88, 94.821 88.480, 94.459 89.067 M 111.408 90 C 111.602 91.723, 112.393 92.604, 113.956 92.834 C 115.467 93.057, 115.985 92.784, 115.510 92.016 C 115.118 91.382, 114.105 91.130, 113.257 91.455 L 111.717 92.046 113.109 90.331 C 113.874 89.388, 113.976 88.930, 113.335 89.314 C 112.695 89.698, 111.936 89.447, 111.649 88.756 C 111.362 88.065, 111.253 88.625, 111.408 90 M 134.459 89.067 C 134.096 89.653, 134.070 90.403, 134.400 90.733 C 134.730 91.063, 135.007 90.696, 135.015 89.917 L 135.031 88.500 136 90 L 136.969 91.500 136.985 89.750 C 137.002 87.813, 135.487 87.403, 134.459 89.067 M 151.804 90.358 C 152.147 91.669, 151.934 92.077, 151.158 91.597 C 150.521 91.204, 150 91.359, 150 91.941 C 150 93.661, 152.008 93.149, 152.708 91.250 C 153.064 90.287, 153.831 89.182, 154.414 88.794 C 154.998 88.406, 154.534 88.159, 153.384 88.246 C 151.831 88.363, 151.424 88.906, 151.804 90.358 M 156.079 89.809 C 156.036 91.079, 155.550 91.840, 155 91.500 C 154.450 91.160, 154 91.359, 154 91.941 C 154 93.525, 155.979 93.218, 156.626 91.533 C 156.935 90.726, 156.957 89.489, 156.673 88.783 C 156.390 88.077, 156.122 88.539, 156.079 89.809 M 181 89.059 C 181 89.641, 180.438 89.794, 179.750 89.399 C 179.063 89.003, 178.851 89.065, 179.279 89.535 C 180.617 91.006, 182.901 90.906, 182.324 89.401 C 181.688 87.744, 181 87.566, 181 89.059 M 171.906 90.824 C 172.513 91.959, 173.503 93.193, 174.105 93.565 C 174.889 94.050, 174.886 93.656, 174.094 92.176 C 173.487 91.041, 172.497 89.807, 171.895 89.435 C 171.111 88.950, 171.114 89.344, 171.906 90.824 M 19.079 91.313 C 19.016 92.762, 19.639 93.064, 22.173 92.813 C 23.918 92.641, 25.459 91.926, 25.598 91.225 C 25.737 90.524, 25.621 90.411, 25.342 90.975 C 24.623 92.424, 20.268 92.252, 19.662 90.750 C 19.370 90.026, 19.125 90.264, 19.079 91.313 M 39.079 91.333 C 38.989 93.431, 41.177 93.108, 41.764 90.938 L 42.152 89.500 41.197 90.863 L 40.242 92.226 39.700 90.863 C 39.335 89.946, 39.132 90.100, 39.079 91.333 M 69 91.500 C 69 92.325, 69.436 93, 69.969 93 C 70.501 93, 70.678 92.325, 70.362 91.500 C 70.045 90.675, 69.609 90, 69.393 90 C 69.177 90, 69 90.675, 69 91.500 M 73 91.500 C 73 92.325, 73.436 93, 73.969 93 C 74.501 93, 74.678 92.325, 74.362 91.500 C 74.045 90.675, 73.609 90, 73.393 90 C 73.177 90, 73 90.675, 73 91.500 M 105 90.892 C 105 91.566, 104.480 91.797, 103.845 91.405 C 103.101 90.945, 102.964 91.132, 103.458 91.933 C 104.004 92.815, 104.536 92.864, 105.296 92.104 C 105.885 91.515, 106.059 90.726, 105.683 90.350 C 105.308 89.974, 105 90.218, 105 90.892 M 107 91.500 C 107 92.325, 107.436 93, 107.969 93 C 108.501 93, 108.678 92.325, 108.362 91.500 C 108.045 90.675, 107.609 90, 107.393 90 C 107.177 90, 107 90.675, 107 91.500 M 123 90.892 C 123 91.566, 122.480 91.797, 121.845 91.405 C 121.101 90.945, 120.964 91.132, 121.458 91.933 C 122.004 92.815, 122.536 92.864, 123.296 92.104 C 123.885 91.515, 124.059 90.726, 123.683 90.350 C 123.308 89.974, 123 90.218, 123 90.892 M 43.768 92.168 C 44.350 92.750, 45.415 93.028, 46.137 92.788 C 46.886 92.538, 46.432 92.085, 45.080 91.731 C 43.417 91.296, 43.026 91.426, 43.768 92.168 M 83 92 C 82.099 92.582, 81.975 92.975, 82.691 92.985 C 83.346 92.993, 84.160 92.550, 84.500 92 C 85.267 90.758, 84.921 90.758, 83 92 M 117.613 92.183 C 117.902 92.650, 118.557 92.774, 119.069 92.457 C 120.377 91.649, 120.230 91.333, 118.544 91.333 C 117.743 91.333, 117.324 91.716, 117.613 92.183 M 159.628 91.792 C 159.359 92.228, 160.017 92.651, 161.091 92.732 C 162.165 92.813, 162.782 92.456, 162.463 91.939 C 161.754 90.793, 160.293 90.717, 159.628 91.792 M 27.813 92.683 C 28.534 92.972, 29.397 92.936, 29.729 92.604 C 30.061 92.272, 29.471 92.036, 28.417 92.079 C 27.252 92.127, 27.015 92.364, 27.813 92.683 M 94.813 92.683 C 95.534 92.972, 96.397 92.936, 96.729 92.604 C 97.061 92.272, 96.471 92.036, 95.417 92.079 C 94.252 92.127, 94.015 92.364, 94.813 92.683 M 144.250 92.689 C 145.213 92.941, 146.787 92.941, 147.750 92.689 C 148.713 92.438, 147.925 92.232, 146 92.232 C 144.075 92.232, 143.287 92.438, 144.250 92.689" stroke="none" fill="#136734" fill-rule="evenodd"/><path d="M 0 66.505 L 0 133.010 100.250 132.755 L 200.500 132.500 200.757 66.250 L 201.014 0 100.507 0 L 0 0 0 66.505 M 0.472 67 C 0.472 103.575, 0.597 118.537, 0.750 100.250 C 0.902 81.962, 0.902 52.037, 0.750 33.750 C 0.597 15.462, 0.472 30.425, 0.472 67 M 109.500 2.665 C 107.850 3.537, 105.757 4.898, 104.849 5.690 C 103.819 6.589, 102.966 6.754, 102.579 6.128 C 102.239 5.577, 100.537 4.417, 98.798 3.549 C 94.727 1.518, 93.844 2.708, 94.220 9.713 L 94.500 14.925 90.741 16.713 C 88.550 17.754, 87.093 19.112, 87.248 19.968 C 87.395 20.775, 89.762 22.575, 92.508 23.968 L 97.500 26.500 97.195 31.250 C 97.028 33.862, 97.277 36, 97.749 36 C 99.822 36, 108.192 29.749, 110.109 26.771 C 111.266 24.972, 111.889 24.400, 111.493 25.500 C 109.829 30.123, 109.916 30.715, 112.507 32.413 C 116.866 35.269, 118.229 33.904, 117.839 27.078 C 117.652 23.824, 117.725 21.218, 118 21.287 C 118.456 21.400, 125.003 18.184, 125.869 17.420 C 127.097 16.338, 118.517 11.062, 115.300 10.921 C 114.251 10.875, 114.021 10.632, 114.750 10.338 C 115.485 10.041, 116 8.014, 116 5.417 C 116 0.419, 114.751 -0.109, 109.500 2.665 M 102.750 12.758 C 100.563 14.114, 100 15.211, 100 18.118 L 100 21.772 103.560 23.462 L 107.121 25.151 109.560 23.552 C 111.242 22.450, 112 21.029, 112 18.977 C 112 17.265, 112.531 15.998, 113.250 15.995 C 113.938 15.992, 112.700 14.881, 110.500 13.526 C 105.733 10.590, 106.176 10.634, 102.750 12.758 M 99.813 26.683 C 100.534 26.972, 101.397 26.936, 101.729 26.604 C 102.061 26.272, 101.471 26.036, 100.417 26.079 C 99.252 26.127, 99.015 26.364, 99.813 26.683 M 2 59 L 2 81 19.500 81 L 37 81 37 77.934 L 37 74.867 26.998 75.184 L 16.996 75.500 16.998 67.750 L 17 60 24 60 L 31 60 31 57 L 31 54 24 54 L 17 54 17 48 L 17 42 25.500 42 L 34 42 34 39.500 L 34 37 18 37 L 2 37 2 59 M 36.535 39.110 C 37.318 41.577, 42.745 60.015, 44.082 64.750 C 45.749 70.652, 46.845 74.461, 47.750 77.500 L 48.644 80.500 53.534 80.500 L 58.424 80.500 60.089 75.500 C 61.005 72.750, 62.571 67.800, 63.568 64.500 L 65.382 58.500 66.099 61.500 C 66.493 63.150, 67.885 68.100, 69.192 72.500 L 71.568 80.500 76.534 80.792 L 81.500 81.083 82.786 76.792 C 85.065 69.186, 90.218 52.697, 92.564 45.500 C 94.968 38.123, 94.676 36.619, 90.941 37.165 C 88.626 37.504, 87.359 40.512, 82.911 56.236 C 81.425 61.489, 80.849 61.373, 79.244 55.500 C 78.643 53.300, 77.198 48.237, 76.033 44.250 L 73.915 37 69.477 37 L 65.038 37 64.438 39.750 C 64.108 41.263, 63.476 43.625, 63.035 45 C 62.593 46.375, 61.675 49.525, 60.995 52 C 60.314 54.475, 59.449 57.590, 59.071 58.922 L 58.385 61.344 57.332 58.422 C 56.285 55.515, 55.409 52.588, 53.017 44 C 52.328 41.525, 51.606 38.938, 51.413 38.250 C 51.172 37.390, 48.689 37, 43.464 37 L 35.865 37 36.535 39.110 M 98 58.956 L 98 81 105.520 81 L 113.039 81 112.770 59.250 L 112.500 37.500 105.250 37.206 L 98 36.912 98 58.956 M 120.691 37.642 C 120.311 38.022, 120 47.933, 120 59.667 L 120 81 138.066 81 L 156.133 81 155.816 78.250 L 155.500 75.500 145.250 75.215 L 135 74.930 135 67.465 L 135 60 142.500 60 L 150 60 150 57 L 150 54 142.450 54 L 134.900 54 135.200 48.250 L 135.500 42.500 144 42.367 L 152.500 42.234 152.500 39.867 L 152.500 37.500 136.941 37.226 C 128.384 37.075, 121.071 37.262, 120.691 37.642 M 159 59.066 L 159 81.133 161.750 80.816 L 164.500 80.500 165 68.024 L 165.500 55.548 175 68.248 L 184.500 80.948 190.270 80.974 L 196.039 81 195.770 59.250 L 195.500 37.500 192.750 37.184 L 190 36.867 189.968 51.184 L 189.936 65.500 188.463 63.500 C 185.064 58.888, 176.197 47.373, 172.195 42.376 L 167.890 37 163.445 37 L 159 37 159 59.066 M 20 85.435 C 20 86.774, 19.563 89.019, 19.029 90.423 L 18.059 92.975 24.617 92.877 L 31.175 92.779 30.681 90.889 C 30.410 89.850, 30.595 89, 31.094 89 C 31.592 89, 32 89.900, 32 91 C 32 93.688, 33.826 93.539, 35.060 90.750 L 36.056 88.500 35.622 90.750 C 35.157 93.157, 37.432 93.995, 38.338 91.750 C 38.741 90.750, 38.858 90.750, 38.921 91.750 C 38.964 92.438, 39.637 93, 40.417 93 C 41.196 93, 42.060 92.438, 42.338 91.750 C 42.741 90.750, 42.858 90.750, 42.921 91.750 C 42.964 92.438, 44.035 93, 45.300 93 C 46.565 93, 48.191 92.438, 48.912 91.750 C 49.983 90.730, 50.100 90.914, 49.545 92.750 C 49.042 94.415, 49.272 95, 50.433 95 C 51.295 95, 52 94.550, 52 94 C 52 93.450, 52.878 93, 53.950 93 C 55.023 93, 56.407 92.213, 57.026 91.250 L 58.151 89.500 57.607 91.250 C 56.979 93.270, 58.985 93.615, 60.800 91.800 C 61.733 90.867, 62 90.867, 62 91.800 C 62 93.768, 67.785 93.263, 68.311 91.250 L 68.768 89.500 68.884 91.250 C 68.971 92.561, 69.878 93, 72.500 93 L 76 93 76 89.567 L 76 86.134 73.044 86.218 C 71.232 86.269, 69.923 86.920, 69.660 87.901 C 69.323 89.159, 69.207 89.104, 69.116 87.641 C 69.021 86.120, 68.363 85.856, 65.500 86.190 L 62 86.598 62 84.726 C 62 81.947, 58.710 82.991, 58.001 85.995 C 57.618 87.620, 57.156 88.062, 56.669 87.273 C 56.212 86.534, 53.778 86.122, 50.393 86.211 C 46.108 86.324, 44.549 86.806, 43.467 88.351 L 42.070 90.346 42.687 86.539 C 43.175 83.535, 43.009 82.830, 41.903 83.198 C 41.131 83.455, 40.216 84.978, 39.868 86.582 C 39.521 88.187, 39.183 88.713, 39.118 87.750 C 39.053 86.787, 38.325 86, 37.500 86 C 36.675 86, 36 85.325, 36 84.500 C 36 82.439, 33.327 82.609, 32.080 84.750 C 31.514 85.721, 31.047 85.944, 31.030 85.250 C 30.971 82.815, 28.029 84.041, 27.432 86.750 C 27.098 88.263, 26.752 89.754, 26.663 90.065 C 26.573 90.375, 25.375 90.308, 24 89.914 L 21.500 89.199 23.750 89.100 C 26.413 88.982, 26.753 87.343, 24.250 86.689 C 22.933 86.345, 23.057 86.203, 24.750 86.116 C 28.649 85.915, 27.480 83, 23.500 83 L 20 83 20 85.435 M 80.477 85.074 C 79.149 89.256, 83.779 95.614, 85.338 91.750 C 85.741 90.750, 85.858 90.750, 85.921 91.750 C 86.051 93.806, 88.842 93.165, 90.114 90.787 L 91.298 88.574 92.117 90.787 C 93.019 93.227, 97.464 93.915, 98.338 91.750 C 98.741 90.750, 98.858 90.750, 98.921 91.750 C 99.058 93.925, 101.842 93.100, 102.294 90.750 L 102.728 88.500 102.864 90.750 L 103 93 106.417 93 C 108.296 93, 110.060 92.438, 110.338 91.750 C 110.741 90.750, 110.858 90.750, 110.921 91.750 C 110.972 92.550, 112.595 93, 115.430 93 L 119.861 93 120.294 90.750 L 120.728 88.500 120.864 90.750 C 121.056 93.928, 123.661 93.553, 124.291 90.256 C 124.580 88.746, 124.606 87.171, 124.349 86.756 C 123.648 85.621, 118 85.846, 118 87.008 C 118 87.606, 117.158 87.504, 115.935 86.758 L 113.870 85.500 111.935 87.861 L 110 90.222 110 88.241 L 110 86.261 105 86.149 L 100 86.036 99.937 88.268 L 99.873 90.500 98.969 88.250 C 98.013 85.872, 95.128 85.272, 93.324 87.076 C 92.556 87.844, 92.389 87.414, 92.741 85.576 C 93.422 82.014, 90.722 82.150, 89.299 85.750 L 88.213 88.500 88.106 85.750 C 87.977 82.398, 85.330 82.009, 84.706 85.250 L 84.272 87.500 84.136 85.250 C 83.965 82.424, 81.357 82.299, 80.477 85.074 M 128.975 85.565 C 127.540 89.339, 127.763 93, 129.427 93 C 130.211 93, 131.059 92.213, 131.311 91.250 L 131.768 89.500 131.884 91.250 C 132.053 93.796, 134.785 93.396, 135.294 90.750 L 135.728 88.500 135.864 90.833 C 136.042 93.893, 138.186 93.137, 139.108 89.690 C 139.962 86.495, 139.237 85.895, 135.107 86.376 C 132.610 86.667, 132 86.371, 132 84.869 C 132 82.147, 130.109 82.582, 128.975 85.565 M 143.553 86.571 C 143.184 88.535, 142.636 90.785, 142.334 91.571 C 141.900 92.704, 142.934 93, 147.323 93 L 152.861 93 153.294 90.750 L 153.728 88.500 153.864 90.750 C 153.939 91.987, 154.644 93, 155.430 93 C 156.217 93, 157.056 91.987, 157.294 90.750 L 157.728 88.500 157.864 90.750 L 158 93 162.433 93 L 166.865 93 167.542 90.868 C 168.391 88.194, 169.998 90.291, 169.261 93.111 C 168.877 94.578, 169.306 95, 171.183 95 C 174.279 95, 175.983 93.271, 176.063 90.050 L 176.127 87.500 177.117 89.982 C 177.792 91.674, 177.772 92.576, 177.054 92.815 C 175.258 93.414, 175.895 95, 177.932 95 C 180.035 95, 184 90.162, 184 87.596 C 184 85.433, 181.261 85.561, 180.689 87.750 L 180.232 89.500 180.116 87.766 L 180 86.032 172.500 86.109 L 165 86.186 164.937 88.343 L 164.873 90.500 164.018 88.382 L 163.162 86.265 156.740 86.382 L 150.317 86.500 150.775 84.750 C 151.147 83.329, 150.574 83, 147.728 83 L 144.223 83 143.553 86.571 M 72.079 90.583 C 72.127 91.748, 72.364 91.985, 72.683 91.188 C 72.972 90.466, 72.936 89.603, 72.604 89.271 C 72.272 88.939, 72.036 89.529, 72.079 90.583 M 106.079 90.583 C 106.127 91.748, 106.364 91.985, 106.683 91.188 C 106.972 90.466, 106.936 89.603, 106.604 89.271 C 106.272 88.939, 106.036 89.529, 106.079 90.583 M 146.750 89.662 C 147.438 89.940, 148.563 89.940, 149.250 89.662 C 149.938 89.385, 149.375 89.158, 148 89.158 C 146.625 89.158, 146.063 89.385, 146.750 89.662" stroke="none" fill="#ffffff" fill-rule="evenodd"/><path d="M 111.030 2.583 C 107.032 4.318, 104.271 6.619, 102.746 9.489 C 102.158 10.595, 103.395 9.787, 105.495 7.694 C 107.594 5.600, 110.592 3.632, 112.156 3.319 C 113.720 3.006, 115 2.356, 115 1.875 C 115 0.803, 115.229 0.762, 111.030 2.583 M 95 5 C 95 6.100, 95.173 7, 95.383 7 C 95.594 7, 96.002 6.100, 96.290 5 C 96.577 3.900, 96.405 3, 95.906 3 C 95.408 3, 95 3.900, 95 5 M 109.750 11.706 C 110.987 11.944, 113.013 11.944, 114.250 11.706 C 115.487 11.467, 114.475 11.272, 112 11.272 C 109.525 11.272, 108.513 11.467, 109.750 11.706 M 90 18 C 86.743 20.547, 88.050 20.549, 92.226 18.004 C 94.027 16.906, 94.825 16.016, 94 16.026 C 93.175 16.036, 91.375 16.924, 90 18 M 113.272 20 C 113.272 22.475, 113.467 23.488, 113.706 22.250 C 113.944 21.012, 113.944 18.988, 113.706 17.750 C 113.467 16.512, 113.272 17.525, 113.272 20 M 107 25.500 C 105.625 26.286, 104.950 26.929, 105.500 26.929 C 106.050 26.929, 107.625 26.286, 109 25.500 C 110.375 24.714, 111.050 24.071, 110.500 24.071 C 109.950 24.071, 108.375 24.714, 107 25.500 M 111.144 27.750 L 109.967 30.500 111.484 28.559 C 112.318 27.491, 113 26.254, 113 25.809 C 113 24.289, 112.322 24.999, 111.144 27.750 M 99.250 27.689 C 100.213 27.941, 101.787 27.941, 102.750 27.689 C 103.713 27.438, 102.925 27.232, 101 27.232 C 99.075 27.232, 98.287 27.438, 99.250 27.689 M 70.500 38.727 C 66.210 39.338, 65.301 40.680, 69.510 40.189 C 71.440 39.963, 73.266 39.379, 73.568 38.890 C 73.871 38.400, 73.979 38.067, 73.809 38.150 C 73.639 38.232, 72.150 38.492, 70.500 38.727 M 11 40.031 C 22.649 41.130, 32 41.116, 32 40 C 32 39.373, 26.691 39.060, 17.750 39.162 L 3.500 39.323 11 40.031 M 41.750 39.723 C 43.538 39.945, 46.462 39.945, 48.250 39.723 C 50.038 39.502, 48.575 39.320, 45 39.320 C 41.425 39.320, 39.962 39.502, 41.750 39.723 M 102.768 39.725 C 104.565 39.947, 107.265 39.943, 108.768 39.715 C 110.271 39.486, 108.800 39.304, 105.500 39.310 C 102.200 39.315, 100.971 39.502, 102.768 39.725 M 122.445 40.282 C 122.175 40.987, 122.087 49.875, 122.251 60.032 L 122.548 78.500 122.774 59.250 L 123 40 129.059 40 C 132.391 40, 134.908 40.337, 134.651 40.750 C 133.978 41.831, 149.315 41.030, 150.450 39.925 C 151.033 39.357, 145.903 39, 137.169 39 C 126.516 39, 122.814 39.322, 122.445 40.282 M 161 39.395 C 161 39.612, 162.762 39.958, 164.916 40.163 C 167.070 40.369, 168.618 40.191, 168.357 39.768 C 167.882 38.999, 161 38.650, 161 39.395 M 192.791 58.499 L 193.082 78 189.241 78 C 187.128 78, 184.860 77.460, 184.200 76.800 C 183.540 76.140, 183 75.947, 183 76.371 C 183 78.201, 185.803 79.500, 189.751 79.500 L 194.003 79.500 194.001 59.250 C 194.001 48.112, 193.662 39, 193.250 38.999 C 192.838 38.998, 192.631 47.773, 192.791 58.499 M 171.733 45.124 C 172.412 45.808, 173.219 46.115, 173.526 45.807 C 173.834 45.499, 173.279 44.940, 172.293 44.564 C 170.868 44.022, 170.753 44.136, 171.733 45.124 M 51 46 C 51 46.550, 51.477 47, 52.059 47 C 52.641 47, 52.840 46.550, 52.500 46 C 52.160 45.450, 51.684 45, 51.441 45 C 51.198 45, 51 45.450, 51 46 M 53 53 C 53 53.550, 53.477 54, 54.059 54 C 54.641 54, 54.840 53.550, 54.500 53 C 54.160 52.450, 53.684 52, 53.441 52 C 53.198 52, 53 52.450, 53 53 M 166.500 56 C 166.840 56.550, 167.568 57, 168.118 57 C 168.668 57, 168.840 56.550, 168.500 56 C 168.160 55.450, 167.432 55, 166.882 55 C 166.332 55, 166.160 55.450, 166.500 56 M 17 57.500 C 17 58.667, 18.333 59, 23 59 C 27.667 59, 29 58.667, 29 57.500 C 29 56.333, 27.667 56, 23 56 C 18.333 56, 17 56.333, 17 57.500 M 134.638 57.500 L 134.063 59 141.031 59 C 146.559 59, 148 58.690, 148 57.500 C 148 56.323, 146.623 56, 141.607 56 C 136.847 56, 135.067 56.383, 134.638 57.500 M 55 60 C 55 60.550, 55.477 61, 56.059 61 C 56.641 61, 56.840 60.550, 56.500 60 C 56.160 59.450, 55.684 59, 55.441 59 C 55.198 59, 55 59.450, 55 60 M 79.733 63.124 C 80.412 63.808, 81.219 64.115, 81.526 63.807 C 81.834 63.499, 81.279 62.940, 80.293 62.564 C 78.868 62.022, 78.753 62.136, 79.733 63.124 M 187.500 66 C 187.840 66.550, 188.316 67, 188.559 67 C 188.802 67, 189 66.550, 189 66 C 189 65.450, 188.523 65, 187.941 65 C 187.359 65, 187.160 65.450, 187.500 66 M 15.651 77.250 C 15.908 77.662, 13.504 78.052, 10.309 78.116 C 7.114 78.180, 5.175 78.408, 6 78.622 C 6.825 78.837, 13.800 78.641, 21.500 78.188 L 35.500 77.364 25.342 76.932 C 19.756 76.694, 15.395 76.838, 15.651 77.250 M 144.250 77.726 C 149.312 77.928, 153 78.506, 153 79.097 C 153 79.658, 153.450 79.840, 154 79.500 C 156.642 77.867, 154.183 77.252, 145.250 77.312 L 135.500 77.377 144.250 77.726 M 50 78.827 C 50 79.282, 51.350 79.455, 53 79.213 C 54.650 78.971, 56 78.599, 56 78.387 C 56 78.174, 54.650 78, 53 78 C 51.350 78, 50 78.372, 50 78.827 M 75.269 78.693 C 76.242 78.947, 77.592 78.930, 78.269 78.656 C 78.946 78.382, 78.150 78.175, 76.500 78.195 C 74.850 78.215, 74.296 78.439, 75.269 78.693 M 102.768 78.725 C 104.565 78.947, 107.265 78.943, 108.768 78.715 C 110.271 78.486, 108.800 78.304, 105.500 78.310 C 102.200 78.315, 100.971 78.502, 102.768 78.725 M 126.250 78.716 C 127.763 78.945, 130.238 78.945, 131.750 78.716 C 133.262 78.487, 132.025 78.300, 129 78.300 C 125.975 78.300, 124.737 78.487, 126.250 78.716" stroke="none" fill="#146331" fill-rule="evenodd"/><path d="M 115.286 5.500 C 115.294 8.250, 115.488 9.256, 115.718 7.736 C 115.947 6.216, 115.941 3.966, 115.704 2.736 C 115.467 1.506, 115.279 2.750, 115.286 5.500 M 104.139 6.033 C 102.841 7.115, 102.209 8, 102.734 8 C 103.260 8, 104.505 7.100, 105.500 6 C 107.787 3.473, 107.195 3.487, 104.139 6.033 M 107 10.799 C 107 11.239, 108.575 11.415, 110.500 11.190 C 112.425 10.965, 114 10.605, 114 10.391 C 114 10.176, 112.425 10, 110.500 10 C 108.575 10, 107 10.360, 107 10.799 M 99.543 13.748 C 99.244 14.527, 99 16.338, 99 17.773 L 99 20.382 97.582 18.443 C 96.802 17.376, 95.904 16.763, 95.586 17.081 C 95.268 17.399, 96.131 18.714, 97.504 20.004 L 100 22.349 100 18.535 C 100 16.161, 100.617 14.270, 101.632 13.527 L 103.265 12.333 101.675 12.333 C 100.801 12.333, 99.842 12.970, 99.543 13.748 M 93.813 15.683 C 94.534 15.972, 95.397 15.936, 95.729 15.604 C 96.061 15.272, 95.471 15.036, 94.417 15.079 C 93.252 15.127, 93.015 15.364, 93.813 15.683 M 111.803 19.561 C 111.574 21.519, 111.750 23.346, 112.194 23.620 C 112.637 23.894, 113 22.291, 113 20.059 C 113 15.049, 112.361 14.783, 111.803 19.561 M 114.638 17.500 C 114.955 18.325, 115.671 19, 116.229 19 C 116.815 19, 116.718 18.365, 116 17.500 C 115.315 16.675, 114.599 16, 114.409 16 C 114.219 16, 114.322 16.675, 114.638 17.500 M 116.694 20.644 C 117.350 20.911, 117.645 21.888, 117.349 22.815 L 116.811 24.500 117.840 23.048 C 119.009 21.396, 118.455 19.962, 116.691 20.079 C 115.773 20.140, 115.773 20.269, 116.694 20.644 M 104.500 25 C 104.840 25.550, 105.568 26, 106.118 26 C 106.668 26, 106.840 25.550, 106.500 25 C 106.160 24.450, 105.432 24, 104.882 24 C 104.332 24, 104.160 24.450, 104.500 25 M 96 25.393 C 96 25.609, 96.698 26.054, 97.552 26.382 C 98.442 26.723, 98.843 26.555, 98.493 25.989 C 97.906 25.038, 96 24.583, 96 25.393 M 117.079 31.583 C 117.127 32.748, 117.364 32.985, 117.683 32.188 C 117.972 31.466, 117.936 30.603, 117.604 30.271 C 117.272 29.939, 117.036 30.529, 117.079 31.583 M 113.733 33.124 C 114.412 33.808, 115.219 34.115, 115.526 33.807 C 115.834 33.499, 115.279 32.940, 114.293 32.564 C 112.868 32.022, 112.753 32.136, 113.733 33.124 M 9.750 37.744 C 14.287 37.929, 21.712 37.929, 26.250 37.744 C 30.788 37.559, 27.075 37.407, 18 37.407 C 8.925 37.407, 5.212 37.559, 9.750 37.744 M 35.998 37.708 C 35.997 38.144, 39.208 38.348, 43.135 38.163 C 48.274 37.920, 50.537 38.200, 51.213 39.163 C 51.962 40.229, 52.070 40.196, 51.746 39 C 51.439 37.867, 49.464 37.429, 43.670 37.208 C 39.451 37.047, 35.999 37.272, 35.998 37.708 M 67.264 37.718 C 68.784 37.947, 71.034 37.941, 72.264 37.704 C 73.494 37.467, 72.250 37.279, 69.500 37.286 C 66.750 37.294, 65.744 37.488, 67.264 37.718 M 88.655 37.750 C 88.400 38.163, 89.680 38.500, 91.500 38.500 C 93.320 38.500, 94.600 38.163, 94.345 37.750 C 94.091 37.337, 92.810 37, 91.500 37 C 90.190 37, 88.909 37.337, 88.655 37.750 M 104.750 37.718 L 112 38.088 112 59 L 112 79.912 104.750 80.257 L 97.500 80.603 105.270 80.801 L 113.039 81 112.770 59.250 L 112.500 37.500 105 37.424 L 97.500 37.349 104.750 37.718 M 120.691 37.642 C 120.311 38.022, 120 47.933, 120 59.667 L 120 81 138.066 81 L 156.133 81 155.816 78.250 L 155.500 75.500 145 75.442 L 134.500 75.384 144.750 75.727 L 155 76.070 155 78.035 L 155 80 138 80 L 121 80 121 59 L 121 38 136.617 38 L 152.233 38 151.741 40.576 C 151.423 42.239, 151.592 42.808, 152.218 42.182 C 152.751 41.649, 153.027 40.377, 152.831 39.356 L 152.475 37.500 136.928 37.226 C 128.378 37.075, 121.071 37.262, 120.691 37.642 M 161.264 37.718 C 162.784 37.947, 165.034 37.941, 166.264 37.704 C 167.494 37.467, 166.250 37.279, 163.500 37.286 C 160.750 37.294, 159.744 37.488, 161.264 37.718 M 189.802 51.440 C 189.636 59.450, 189.838 66.002, 190.250 66.002 C 190.662 66.001, 191 59.700, 191 52 L 191 38 193 38 L 195 38 195 58.950 L 195 79.900 189.250 80.261 L 183.500 80.622 189.770 80.811 L 196.039 81 195.770 59.250 L 195.500 37.500 192.802 37.189 L 190.104 36.877 189.802 51.440 M 64.079 40.583 C 64.127 41.748, 64.364 41.985, 64.683 41.188 C 64.972 40.466, 64.936 39.603, 64.604 39.271 C 64.272 38.939, 64.036 39.529, 64.079 40.583 M 16.416 48 L 16.500 54.500 23.500 54.566 L 30.500 54.631 23.797 54.273 L 17.093 53.914 16.712 47.707 L 16.331 41.500 16.416 48 M 173 44.378 C 173 44.585, 173.787 45.373, 174.750 46.128 L 176.500 47.500 175.128 45.750 C 173.821 44.084, 173 43.555, 173 44.378 M 62.079 47.583 C 62.127 48.748, 62.364 48.985, 62.683 48.188 C 62.972 47.466, 62.936 46.603, 62.604 46.271 C 62.272 45.939, 62.036 46.529, 62.079 47.583 M 60.079 54.583 C 60.127 55.748, 60.364 55.985, 60.683 55.188 C 60.972 54.466, 60.936 53.603, 60.604 53.271 C 60.272 52.939, 60.036 53.529, 60.079 54.583 M 138.776 54.733 C 141.128 54.945, 144.728 54.942, 146.776 54.727 C 148.824 54.512, 146.900 54.339, 142.500 54.343 C 138.100 54.346, 136.424 54.522, 138.776 54.733 M 164 66.934 L 164 79.867 161.488 80.305 L 158.975 80.744 161.738 80.622 L 164.500 80.500 164.781 68.210 C 164.995 58.869, 165.355 56.096, 166.281 56.652 C 167.051 57.114, 166.994 56.761, 166.128 55.692 C 165.373 54.761, 164.585 54, 164.378 54 C 164.170 54, 164 59.820, 164 66.934 M 183 57.378 C 183 57.585, 183.787 58.373, 184.750 59.128 L 186.500 60.500 185.128 58.750 C 183.821 57.084, 183 56.555, 183 57.378 M 64.459 59.067 C 64.096 59.653, 64.014 60.348, 64.276 60.610 C 64.538 60.872, 65.019 60.392, 65.345 59.543 C 66.021 57.781, 65.445 57.471, 64.459 59.067 M 16.422 60.344 C 16.138 61.083, 16.063 65.020, 16.254 69.094 L 16.603 76.500 16.801 68.294 L 17 60.088 24.250 59.743 L 31.500 59.397 24.219 59.199 C 18.901 59.054, 16.798 59.362, 16.422 60.344 M 57 59.941 C 57 60.459, 57.445 61.157, 57.989 61.493 C 58.555 61.843, 58.723 61.442, 58.382 60.552 C 57.717 58.820, 57 58.503, 57 59.941 M 138.776 59.733 C 141.128 59.945, 144.728 59.942, 146.776 59.727 C 148.824 59.512, 146.900 59.339, 142.500 59.343 C 138.100 59.346, 136.424 59.522, 138.776 59.733 M 80 61 C 80 61.550, 80.477 62, 81.059 62 C 81.641 62, 81.840 61.550, 81.500 61 C 81.160 60.450, 80.684 60, 80.441 60 C 80.198 60, 80 60.450, 80 61 M 66.079 62.583 C 66.127 63.748, 66.364 63.985, 66.683 63.188 C 66.972 62.466, 66.936 61.603, 66.604 61.271 C 66.272 60.939, 66.036 61.529, 66.079 62.583 M 61.079 70.583 C 61.127 71.748, 61.364 71.985, 61.683 71.188 C 61.972 70.466, 61.936 69.603, 61.604 69.271 C 61.272 68.939, 61.036 69.529, 61.079 70.583 M 46.079 72.583 C 46.127 73.748, 46.364 73.985, 46.683 73.188 C 46.972 72.466, 46.936 71.603, 46.604 71.271 C 46.272 70.939, 46.036 71.529, 46.079 72.583 M 26.750 75.745 L 36 76.075 36 78.014 L 36 79.953 18.750 80.252 L 1.500 80.550 19.250 80.775 L 37 81 37 78 L 37 75 27.250 75.208 L 17.500 75.415 26.750 75.745 M 48.252 79 C 48.697 80.654, 56.682 81.718, 58.089 80.311 C 58.539 79.861, 56.848 79.657, 54.331 79.857 C 51.258 80.101, 49.441 79.774, 48.801 78.860 C 48.027 77.756, 47.924 77.782, 48.252 79 M 71.655 80.250 C 71.909 80.662, 74.341 81, 77.059 81 C 79.777 81, 82 80.662, 82 80.250 C 82 79.838, 79.568 79.500, 76.595 79.500 C 73.623 79.500, 71.400 79.838, 71.655 80.250 M 21.762 83.707 C 23.006 83.946, 24.806 83.937, 25.762 83.687 C 26.718 83.437, 25.700 83.241, 23.500 83.252 C 21.300 83.263, 20.518 83.468, 21.762 83.707 M 32.080 84.750 C 31.349 86.006, 31.052 86.100, 31.030 85.083 C 31.014 84.304, 30.734 83.933, 30.409 84.258 C 29.574 85.092, 30.941 89, 32.067 89 C 32.580 89, 33 87.908, 33 86.573 C 33 85.103, 33.690 83.966, 34.750 83.689 L 36.500 83.232 34.800 83.116 C 33.865 83.052, 32.641 83.787, 32.080 84.750 M 58.697 83.750 C 58.466 84.162, 57.982 85.850, 57.623 87.500 L 56.969 90.500 58.358 88.733 C 59.129 87.751, 60.424 87.226, 61.272 87.551 C 62.111 87.873, 63.138 87.586, 63.553 86.914 C 64.037 86.132, 63.893 85.948, 63.155 86.405 C 62.425 86.856, 62 86.361, 62 85.059 C 62 83.105, 59.594 82.152, 58.697 83.750 M 81.813 83.683 C 82.534 83.972, 83.397 83.936, 83.729 83.604 C 84.061 83.272, 83.471 83.036, 82.417 83.079 C 81.252 83.127, 81.015 83.364, 81.813 83.683 M 85 83.969 C 85 84.501, 85.675 84.678, 86.500 84.362 C 87.325 84.045, 88 83.609, 88 83.393 C 88 83.177, 87.325 83, 86.500 83 C 85.675 83, 85 83.436, 85 83.969 M 90.813 83.683 C 91.534 83.972, 92.397 83.936, 92.729 83.604 C 93.061 83.272, 92.471 83.036, 91.417 83.079 C 90.252 83.127, 90.015 83.364, 90.813 83.683 M 128.935 85.671 C 128.376 87.140, 128.110 89.053, 128.344 89.921 C 128.608 90.906, 128.812 90.653, 128.884 89.250 C 129.011 86.782, 131 86.078, 131 88.500 C 131 90.698, 132.680 90.330, 133.290 87.999 C 133.578 86.898, 133.496 86.193, 133.109 86.433 C 132.722 86.672, 131.751 86.448, 130.952 85.934 L 129.500 85 131 84.015 C 132.041 83.332, 132.110 83.026, 131.225 83.015 C 130.524 83.007, 129.493 84.202, 128.935 85.671 M 146.700 83.720 L 149.901 84.119 149.462 88.810 C 149.181 91.823, 149.342 92.964, 149.913 92 C 150.851 90.418, 151.307 87.667, 151.115 84.750 C 151.025 83.384, 150.178 83.035, 147.250 83.160 L 143.500 83.320 146.700 83.720 M 59 85 C 59 85.550, 59.450 86, 60 86 C 60.550 86, 61 85.550, 61 85 C 61 84.450, 60.550 84, 60 84 C 59.450 84, 59 84.450, 59 85 M 80.158 87 C 80.158 88.375, 80.385 88.938, 80.662 88.250 C 80.940 87.563, 80.940 86.438, 80.662 85.750 C 80.385 85.063, 80.158 85.625, 80.158 87 M 83 87.059 C 83 88.191, 83.430 88.852, 83.956 88.527 C 84.482 88.202, 84.659 87.275, 84.349 86.468 C 83.556 84.401, 83 84.644, 83 87.059 M 92.608 86.685 C 92.762 87.337, 92.373 88.042, 91.743 88.252 C 91.018 88.494, 90.965 88.861, 91.599 89.252 C 92.149 89.592, 93.173 88.953, 93.874 87.831 C 94.574 86.709, 94.703 86.066, 94.159 86.402 C 93.616 86.738, 92.981 86.672, 92.749 86.256 C 92.517 85.840, 92.454 86.033, 92.608 86.685 M 41.500 87 C 41.840 87.550, 42.316 88, 42.559 88 C 42.802 88, 43 87.550, 43 87 C 43 86.450, 42.523 86, 41.941 86 C 41.359 86, 41.160 86.450, 41.500 87 M 49.374 87.467 C 48.321 90.211, 49.570 91.239, 50.766 88.613 C 51.514 86.973, 51.581 86, 50.947 86 C 50.392 86, 49.684 86.660, 49.374 87.467 M 100.750 86.662 C 101.438 86.940, 102.563 86.940, 103.250 86.662 C 103.938 86.385, 103.375 86.158, 102 86.158 C 100.625 86.158, 100.063 86.385, 100.750 86.662 M 118.750 86.662 C 119.438 86.940, 120.563 86.940, 121.250 86.662 C 121.938 86.385, 121.375 86.158, 120 86.158 C 118.625 86.158, 118.063 86.385, 118.750 86.662 M 156.656 87.545 C 156.960 88.339, 157.612 88.740, 158.105 88.435 C 159.345 87.669, 159.231 87.303, 157.551 86.658 C 156.584 86.287, 156.286 86.582, 156.656 87.545 M 167.572 86.750 C 168.069 87.162, 168.813 87.950, 169.223 88.500 C 169.649 89.071, 169.976 88.749, 169.985 87.750 C 169.993 86.777, 169.260 86, 168.333 86 C 167.417 86, 167.074 86.338, 167.572 86.750 M 176 86.906 C 176 87.405, 176.900 87.577, 178 87.290 C 179.100 87.002, 180 86.594, 180 86.383 C 180 86.173, 179.100 86, 178 86 C 176.900 86, 176 86.408, 176 86.906 M 181.813 86.683 C 182.534 86.972, 183.397 86.936, 183.729 86.604 C 184.061 86.272, 183.471 86.036, 182.417 86.079 C 181.252 86.127, 181.015 86.364, 181.813 86.683 M 117.079 88.750 C 117.036 89.438, 116.307 90, 115.461 90 L 113.921 90 115.211 91.397 L 116.500 92.794 117.321 91.359 C 117.772 90.570, 117.920 89.379, 117.650 88.712 C 117.275 87.788, 117.139 87.797, 117.079 88.750 M 45 90 C 45 90.550, 45.477 91, 46.059 91 C 46.641 91, 46.840 90.550, 46.500 90 C 46.160 89.450, 45.684 89, 45.441 89 C 45.198 89, 45 89.450, 45 90 M 60.667 89.667 C 60.300 90.033, 60 90.798, 60 91.367 C 60 91.993, 60.466 91.934, 61.183 91.217 C 61.834 90.566, 62.134 89.801, 61.850 89.517 C 61.566 89.233, 61.033 89.300, 60.667 89.667 M 34 90.941 C 34 91.459, 34.445 92.157, 34.989 92.493 C 35.555 92.843, 35.723 92.442, 35.382 91.552 C 34.717 89.820, 34 89.503, 34 90.941 M 109.459 91.067 C 109.096 91.653, 109.014 92.348, 109.276 92.610 C 109.538 92.872, 110.019 92.392, 110.345 91.543 C 111.021 89.781, 110.445 89.471, 109.459 91.067 M 161.250 90.689 C 162.213 90.941, 163 91.564, 163 92.073 C 163 92.583, 163.450 93, 164 93 C 164.550 93, 165 92.325, 165 91.500 C 165 90.502, 164.079 90.039, 162.250 90.116 C 160.558 90.187, 160.173 90.408, 161.250 90.689 M 55.603 91.833 C 55.320 92.292, 55.723 92.667, 56.500 92.667 C 57.277 92.667, 57.680 92.292, 57.397 91.833 C 57.114 91.375, 56.710 91, 56.500 91 C 56.290 91, 55.886 91.375, 55.603 91.833 M 169.750 92.662 C 170.438 92.940, 171.563 92.940, 172.250 92.662 C 172.938 92.385, 172.375 92.158, 171 92.158 C 169.625 92.158, 169.063 92.385, 169.750 92.662 M 179.872 93.750 L 178.500 95.500 180.250 94.128 C 181.213 93.373, 182 92.585, 182 92.378 C 182 91.555, 181.179 92.084, 179.872 93.750" stroke="none" fill="#f8f9f8" fill-rule="evenodd"/></svg>