<?xml version="1.0" encoding="UTF-8"?>
<svg id="Layer_2" data-name="Layer 2" xmlns="http://www.w3.org/2000/svg" viewBox="0 0 876.45 636.54">
  <defs>
    <style>
      .cls-1 {
        letter-spacing: -.06em;
      }

      .cls-2 {
        fill: #82b378;
      }

      .cls-3 {
        fill: #aa541a;
      }

      .cls-4 {
        fill: #f99746;
      }

      .cls-5 {
        fill: #1e630a;
      }

      .cls-6 {
        letter-spacing: 0em;
      }

      .cls-7 {
        fill: #2e3552;
      }

      .cls-8 {
        fill: #d3ad0d;
      }

      .cls-9 {
        fill: #7f3b0d;
      }

      .cls-10 {
        fill: #c19c00;
      }

      .cls-11 {
        fill: #8c4210;
      }

      .cls-12 {
        fill: #3d200c;
      }

      .cls-13 {
        fill: #195909;
      }

      .cls-14 {
        fill: #e5be1a;
      }

      .cls-15 {
        fill: #2c3a64;
      }

      .cls-16 {
        letter-spacing: -.12em;
      }

      .cls-17 {
        fill: #190902;
      }

      .cls-18 {
        fill: #147c34;
        font-family: ProximaNova-Bold, 'Proxima Nova';
        font-size: 23.93px;
        font-weight: 700;
      }

      .cls-19 {
        fill: #233862;
      }

      .cls-20 {
        fill: #287a0a;
      }

      .cls-21 {
        fill: #699dee;
      }

      .cls-22 {
        fill: #2b478b;
      }

      .cls-23 {
        letter-spacing: -.01em;
      }
    </style>
  </defs>
  <g id="Layer_1-2" data-name="Layer 1">
    <path class="cls-7" d="m876.45,632.65v.99c0,1.58-.45,2.89-.99,2.89H.99c-.55,0-.99-1.31-.99-2.89v-.99c0-1.59.45-2.89.99-2.89h874.46c.55,0,.99,1.3.99,2.89Z"/>
    <g>
      <path class="cls-3" d="m276.25,383.73c-3.59-6.47-6.08-12.1-5.31-15.71,0,0,0,0,0-.02.12-.57.27-1.66.46-3.16.72-5.57,2-16.67,4.13-26.43.28-1.3.58-2.57.89-3.8h0c.2-.8.41-1.57.62-2.33.57-2.02.92-3.99,1.07-5.91,1.04-12.66-6.27-23.26-13.7-29.38-.98-.81-1.96-1.54-2.93-2.19-2.82-1.89-5.5-3.07-7.56-3.39-1.93-1.69-4.5-8.49-6.58-14.87-.79-2.4-1.5-4.74-2.09-6.73-.02-.07-.04-.13-.06-.19-.65-2.2-1.14-3.95-1.38-4.82h0c-.1-.39-.16-.6-.16-.6l-.55.34-2.26,1.43s0,0,0,0l-5.55,3.51-8.6,5.45s0,.04.01.06c.24.85.43,1.76.6,2.71.08.5.15,1.01.22,1.53.19,1.49.31,3.03.37,4.56v.02c.05,1.14.07,2.27.07,3.36,0,2.41-2.01,4.34-4.42,4.22-.05,0-.1,0-.15,0h0c-4.8-.22-10.12-.28-12.89,0-5.23.53-10.88,1.33-17.15,1.89-.09,0-.13.01-.13.01-7.06.63-14.91.95-23.82.27l1.14-52.74s5.43-5.34,5.75-8.21c.32-2.87.53-15.13-1.77-16.39-1.03-.56-1.29,8.84-2.05,9.34-2.32,1.51-11.29,2.28-10.41,11.52h0c-3.08,10.76-18.1,64.43-11.83,67.84,0,0,0,0,.01,0,0,0,.01,0,.02.01,0,0,0,0,0,0,1.75,1.23,3.6,2.37,5.54,3.43.41.22.82.44,1.25.66.24.13.48.25.73.37.69.36,1.41.69,2.12,1.02.4.19.8.37,1.21.55.56.25,1.13.49,1.7.73.36.15.71.29,1.07.44.82.33,1.65.65,2.5.95.23.09.47.18.71.26.08.04.16.06.25.09.27.1.54.19.82.28,0,0,.01,0,.02,0,.49.17.97.33,1.46.49.49.16.98.31,1.46.47.98.31,1.96.6,2.95.87.37.11.74.21,1.11.31.2.06.41.11.61.17.47.13.95.25,1.42.37,1.07.27,2.15.53,3.22.77.37.09.74.17,1.1.25.05.01.09.02.14.03.47.1.95.2,1.41.3.5.1,1,.21,1.51.31,1.19.24,2.37.46,3.56.66,1.03.18,2.06.35,3.08.51.63.1,1.25.2,1.87.28.57.09,1.14.17,1.71.24.55.08,1.09.15,1.62.22.79.1,1.58.2,2.36.29h0c.34.04.68.09,1.02.12.46.06.9.1,1.35.15.3.03.6.06.9.09-.25.66-.47,1.33-.66,2-.18.65-.34,1.3-.47,1.95,0,.01,0,.02,0,.04-.33,1.75-.43,3.49-.25,5.22,1.73,16.1,14.55,36.71,18.41,50.19.49,1.7.84,3.3,1,4.75.31,2.76.31,6.27.12,10.08,9.55,1.17,19.5,1.8,29.85,1.83.34,0,.68,0,1.02,0,5.79,0,11.54-.15,17.25-.46h0c4.91-.27,9.77-.65,14.58-1.15-2.31-3.91-4.64-7.75-6.64-11.34Z"/>
      <path class="cls-17" d="m235.25,250.33s13.26,4.72,5.99,19.56c0,0,10.84-.17,13.12-3.59,0,0-.23,1.4-.62,2.11,0,0,10.16-2.71,13.36-7.12,3.19-4.4-15.19-55.03-41.34-40.75,0,0-24.2,5.44-13.63,32.14,10.57,26.69,1.64,29.42,1.64,29.42,0,0,2.86.46,4.06.1,0,0,1.55-1.2,1.6-2.28,0,0,.12,1.63-.18,2.25,0,0,9.92-2.03,13.62-7.14,3.7-5.11,5.49-19.48,2.39-24.71Z"/>
      <path class="cls-12" d="m225.99,270.23s1.44,9.21,2.12,15.45c12.47-3.99,13.63-15.25,15.55-21.48l-17.67,6.03Z"/>
      <path d="m241.78,263.56s5.14-10.41,5.73-18.91c.43-6.07,3.96-31.3-17.89-25.77,0,0-15.29,4.8-20.91,9.53-4.47,3.77-10.68,11.53-.86,29.97l2.71,6.29,31.21-1.11Z"/>
      <path class="cls-3" d="m222.7,279.38s26.95-7.75,21.86-24.46c-5.09-16.71-5.03-28.96-22.45-24.72-17.42,4.24-18.81,11.63-18.47,17.62.34,5.99,11.92,33.14,19.06,31.56Z"/>
      <path class="cls-17" d="m216.84,231.75s-8.91,8.86-8.94,13.52c-.04,4.66,2.04,13.6-.61,14.08,0,0-9.6-11.63-5.69-21.06,4.15-10,15.24-6.54,15.24-6.54Z"/>
      <path class="cls-17" d="m225.76,220.55s-.26.06-.71.19c.83,1.83-13.79,14.79-13.79,14.79,0,0,11.5,18.92,27.72,21.15,0,0-8.34-3.82-15.36-10.4,4.39,3.04,9.24,5.38,13.67,5.18,3.62.18,8.97,14.76-1.15,18.42,0,0,13.46,1.42,18.21-3.59,0,0-.22,1.4-.61,2.11,0,0,10.16-2.71,13.35-7.12,3.19-4.4-15.2-55.03-41.34-40.75Z"/>
      <path class="cls-11" d="m209.14,321.21c-15.61-1.06-37.38-4.14-53.33-12.83-3.17-1.96-5.25-3.25-5.55-3.43,0,0,0,0,0,0,0,0,.01,0,.02,0,.31.12,1.97.77,4.58,1.64,10.17,3.4,34.76,10.22,50.13,2.53,10.91-5.45,8.49,3.2,4.16,12.08Z"/>
      <path class="cls-11" d="m282.89,395.07c-4.81.5-9.67.88-14.58,1.15h0c-5.7.31-11.45.46-17.25.46-.34,0-.68,0-1.02,0-3.65-7.34-6.28-14.2-7.87-18.8-1.24-3.56-1.85-5.75-1.85-5.75,9.11-4.59,18.19-6.81,26.81-7.23,1.44-.07,2.87-.09,4.28-.06-.19,1.5-.34,2.6-.46,3.16,0,.01,0,.02,0,.02-.76,3.61,1.72,9.24,5.31,15.71,1.99,3.59,4.32,7.44,6.64,11.34Z"/>
      <path class="cls-22" d="m279.31,311.76c-7.49-13.28-25.38-20.36-25.38-20.36-5.58,17.79-29.53,27.61-29.53,27.61-6.86-11.11-1.01-27.6-1.01-27.61,0,0,0,0,0,0,0,0-9.11-2.31-18.34-.33-9.23,1.98-11.84,2.23-11.84,2.23,0,0-1.52,23.4,8.29,29.39-.41,1.14-.74,2.26-.94,3.32-2.6,13.36,13.06,53.84,13.06,53.84,33.8,1.85,57.31-11.83,57.31-11.83,0,0,8.34-22.62,10.07-40.11.65-6.61.36-12.5-1.7-16.14Z"/>
      <polygon class="cls-20" points="188.16 227.36 188.16 227.36 215.89 147.65 233.37 169.68 262.44 113.8 262.44 113.8 234.61 198.44 216.12 175.76 188.16 227.36"/>
      <polygon class="cls-20" points="134.53 258.32 134.53 258.32 103.12 214.49 121.06 213.47 102.59 177.71 102.59 177.71 136.53 223.42 117.88 224.72 134.53 258.32"/>
      <polygon class="cls-20" points="290.26 269.09 290.26 269.09 323.52 226.64 329.53 243.58 358.67 215.82 358.67 215.82 324.32 261.22 317.84 243.68 290.26 269.09"/>
      <path class="cls-15" d="m281.01,327.91c-1.72,17.49-10.07,40.11-10.07,40.11-12.72-4.07-.23-42.12-.23-42.12,5.47-.15,7.35-.02,10.3,2Z"/>
      <path class="cls-3" d="m315,358.07h0s0,0,0,0c-15.88-41.79-41.76-64.48-41.76-64.48-14.06-2.95-18.19,6.39-21.53,20-.87,3.54,29.4,28.8,42.02,42.66h0s-17.48,27.49-17.48,27.49l-7.94,12.49c4.91-.27,9.77-.65,14.58-1.15.52-.06,1.05-.11,1.56-.17,14.42-14.88,32.92-34.82,30.56-36.83Z"/>
      <path class="cls-22" d="m253.93,291.4s12.34-1.61,18.94,2.25c6.6,3.86,21.23,21.41,21.23,21.41,0,0-9.41,22.74-26.63,20.77,0,0-26.51-26.64-20.13-33.04,6.38-6.4,6.6-11.39,6.6-11.39Z"/>
    </g>
    <g>
      <path class="cls-22" d="m640.54,276.5s-20.42,2.96-26.55,9.95c-6.13,6.99-9.63,23.17-3.5,32.58,6.13,9.41,30.05-42.53,30.05-42.53Z"/>
      <path class="cls-11" d="m668.66,250.02s-2.74,11.66,8.05,34.19l-30.17,30.91-2.36-28.67s3.93-16.06,2.47-26.21l22-10.22Z"/>
      <path class="cls-19" d="m657.19,233.17s16.05,5.61,7.38,23.59c0,0,13.09-.28,15.83-4.43,0,0-.27,1.69-.73,2.56,0,0,12.26-3.35,16.09-8.69s-18.75-66.38-50.24-48.94c0,0-29.2,6.75-16.24,38.93,12.96,32.18,2.19,35.54,2.19,35.54,0,0,3.46.54,4.9.09,0,0,1.86-1.47,1.91-2.76,0,0,.16,1.97-.2,2.72,0,0,11.97-2.53,16.4-8.73,4.43-6.2,6.49-23.57,2.71-29.87Z"/>
      <path class="cls-12" d="m646.54,254.49s.29,11.26.13,18.84c15.57-2.84,18.72-16.15,21.99-23.31l-22.12,4.47Z"/>
      <path class="cls-17" d="m663.37,250.01s7.38-11.93,9.08-22.09c1.21-7.25,8.37-37.19-18.55-33.05,0,0-18.94,4.01-26.25,9.06-5.81,4.01-14.17,12.64-4.48,35.95l2.53,7.88,37.67,2.26Z"/>
      <path class="cls-3" d="m644.6,269.16s31.81-11.67,24.23-31.37c-7.58-19.69-8.57-34.47-29.2-27.84-20.63,6.62-21.66,15.65-20.73,22.83.93,7.19,17.23,38.91,25.7,36.38Z"/>
      <path class="cls-17" d="m629.08,214.28s-4.97,7.34-4.98,12.97c-.01,5.63,2.56,16.42-.63,17.02,0,0-11.68-13.98-7.02-25.41,4.94-12.12,12.63-4.58,12.63-4.58Z"/>
      <path class="cls-11" d="m689.69,399.93c-6.19-.35-12.69-1.17-19.52-2.51-16.92-3.31-33.27-4.26-48.71-4.24.06-.84.1-1.63.11-2.39.14-7.51-3.31-18.51-6.9-30.35h75.4c-2.5,8.85-4.26,16.31-4.94,18.24-1.57,4.47.9,12.26,4.55,21.25Z"/>
      <path class="cls-22" d="m685.13,378.67s-.23.11-.69.3c-4.43,1.86-29.74,11.45-66.19,4.66,0,0-12.96-49-7.76-64.6,5.16-15.48,29.26-39.22,29.63-39.58-.22.43-9.51,19.02-3.1,33.23,0,0,27.29-15.13,36.75-35.57,0,0,21.16,16.72,29.1,33.08.39.8.74,1.59,1.06,2.38,6.89,17.08-18.81,66.1-18.81,66.1Z"/>
      <path class="cls-15" d="m685.13,378.67s-.23.11-.69.3c-9.84-13.34-1.05-54.8-1.05-54.8,0,0,10.34-12.16,19.49-13.98.39.8.74,1.59,1.06,2.38,6.89,17.08-18.81,66.1-18.81,66.1Z"/>
      <path class="cls-3" d="m636.75,267.23s-.04,2.35-.16,6.27h0c-.01.36-.02.73-.04,1.1-.66,19.86-3.39,73.43-13.63,80.04-.84.54-1.73.77-2.68.64-.15-.02-.29-.05-.45-.07-1.28-.2-2.52-.51-3.68-.94-.07-.03-.15-.06-.22-.08,0,0,0,0,0,0-9.52-3.54-15.04-13.99-12.06-24.16l24-64.85c.43-1.64.69-4.92-2.1-9.02-1.97-2.9-2.01-8.09-2.64-11.53-.64-3.44-.08-4.5.8-3.03.89,1.47,2.31,6.41,2.94,6.08.63-.33-1.61-16.23,1.56-16.11,3.16.12,8.35,17.88,8.26,23.29-.09,5.42.11,12.37.11,12.37Z"/>
      <path class="cls-11" d="m636.54,274.61c-.66,19.86-3.39,73.43-13.63,80.04-.84.54-1.73.77-2.68.64-.15-.02-.29-.05-.45-.07-1.28-.2-2.52-.51-3.68-.94-.07-.03-.15-.06-.22-.08,0,0,0,0,0,0-10.17-10.12,17.28-72.06,20.66-79.58Z"/>
      <path class="cls-3" d="m685.55,282.34c-3.42-.45-18.07,22.02-30.95,39.54,0,0,0,0,0,0l-6.33-58.51-.37-.6h.06s1.08-9.66,3.55-12.51c2.47-2.84,1.55-8.21,1.93-11.69.38-3.48-.47-4.51-1.42-2.99-.95,1.52-2.16,6.54-3.01,6.24-.85-.3,0-16.34-4.05-16.06-4.06.28-8.47,18.32-7.66,23.75.68,4.59,1.23,10.28,1.39,11.93-4.48,24.88-14.4,85.81-5.4,93.4.56.48,1.21.89,1.56.89,30.3.33,56.04-27.25,67.6-41.95,4.19-5.33,6.52-8.97,6.52-8.97,1.67-17.28-6.63-20.26-23.41-22.48Z"/>
      <path class="cls-11" d="m702.44,313.79c-11.55,14.7-37.3,42.28-67.6,41.95.37,0,.75-.04,1.14-.09,5.75-.69,13.32-5.39,21.02-11.55,17.2-13.75,35.09-34.78,35.09-34.78l10.35,4.47Z"/>
      <path class="cls-22" d="m673.78,277.11s27.3,1.6,32.84,10.2c6.33,9.83,6.48,19.5,1.03,37.65,0,0-33.88-6.76-32.69-31.53l-1.19-16.33Z"/>
      <g>
        <path class="cls-21" d="m616.33,257.25c-1.4,1.15-1.71,3.18-.62,3.81,1.17.68,1.8-.84,2.17-2.74.3-1.58,1.58-2.77,1.58-2.77,0,0-1.76.56-3.13,1.7Z"/>
        <path class="cls-21" d="m596.3,270.25c1.11.78,1.87-.69,2.4-2.55.44-1.55,1.82-2.62,1.82-2.62,0,0-1.8.41-3.26,1.42-1.49,1.03-1.98,3.02-.95,3.75Z"/>
        <path class="cls-21" d="m607.45,280.8c-1,1.51-.72,3.54.51,3.83,1.32.31,1.48-1.33,1.28-3.26-.17-1.6.71-3.11.71-3.11,0,0-1.52,1.05-2.5,2.53Z"/>
        <path class="cls-21" d="m592.73,284.75c-1.08,1.45-.91,3.5.3,3.85,1.3.38,1.55-1.25,1.46-3.18-.08-1.61.88-3.06.88-3.06,0,0-1.57.96-2.64,2.39Z"/>
      </g>
      <g>
        <path class="cls-21" d="m679.43,262.35c-1.56-1.01-3.44-1.37-3.44-1.37,0,0,1.46,1.07,1.97,2.67.61,1.92,1.45,3.42,2.58,2.57,1.05-.79.48-2.84-1.11-3.87Z"/>
        <path class="cls-21" d="m700.27,269.59c-1.64-.87-3.55-1.07-3.55-1.07,0,0,1.55.94,2.2,2.49.77,1.86,1.74,3.28,2.79,2.34.98-.87.23-2.87-1.44-3.76Z"/>
        <path class="cls-21" d="m688.58,283.29s1.09,1.45,1.11,3.13c.03,2.01.39,3.69,1.72,3.21,1.23-.45,1.28-2.58.06-4.02-1.2-1.42-2.9-2.31-2.9-2.31Z"/>
        <path class="cls-21" d="m707.17,287.9c-1.27-1.35-3.02-2.15-3.02-2.15,0,0,1.17,1.39,1.28,3.06.14,2.01.59,3.66,1.89,3.11,1.21-.51,1.14-2.65-.16-4.02Z"/>
      </g>
      <path class="cls-17" d="m645.52,197.25s-12.99,9.11-19.23,15.79c0,0,.64.76,1.78,2,.02.26.03.41.03.41,0,0,14.03,22.78,33.65,25.35,0,0-10.1-4.55-18.63-12.44,5.32,3.64,11.2,6.42,16.55,6.15,4.38.19,10.94,17.77-1.25,22.27,0,0,16.28,1.62,21.98-4.46,0,0-.26,1.69-.72,2.56,0,0,12.26-3.35,16.08-8.7,3.82-5.34-18.75-66.38-50.24-48.94Z"/>
    </g>
    <g>
      <g>
        <path class="cls-3" d="m440.79,199.59c-1.62.61-7.17,10.82-13.14,21.37l3.51-42.94s2.32-4.73,2.31-6.9c0-2.16,2.86-19.22,1.42-19.74-1.45-.52-8.99,7.6-9.74,11.28-.45,2.2.55,12.56.55,12.56h0c-1.61,3.8-21.2,50.26-23.84,71.19-.77,6.05-.11,9.97,2.81,10.11.74.03,1.48.03,2.22-.01,2.99-.18,6-.92,8.7-1.84.02-.01.05-.02.08-.03,2.89-.92,5.64-2.18,8.25-3.69.06-.04.12-.07.18-.1.75-.42,1.17-.68,1.17-.68v-.03c8.5-5.27,15.38-13.04,20.21-19.66,5.17-7.08,8.01-12.85,8.01-12.85,4.71-16.75-7.33-20.07-12.69-18.02Z"/>
        <path class="cls-17" d="m456.6,162.13s13.07,2.32,8.63,17.25c0,0,10.05-1.85,11.64-5.38,0,0,0,1.34-.24,2.06,0,0,9.03-4.11,11.31-8.7,2.28-4.6-22.73-48.81-44.82-31.44,0,0-21.66,8.84-7.66,32.02,14,23.18,6.12,27.11,6.12,27.11,0,0,2.73-.01,3.79-.54,0,0,1.25-1.36,1.13-2.37,0,0,.37,1.5.18,2.12,0,0,8.91-3.44,11.55-8.77,2.64-5.33,2.06-18.98-1.64-23.35Z"/>
        <path class="cls-3" d="m484.27,190.48c.77,6.51.71,16.72-6.82,18.68-4.72,1.22-8.11,3.18-10.81,4.5-3.73,1.82-6.17,2.44-9.08-1.74-5.01-7.21-3.09-17.3-3.09-17.3l.99-.33c-2.31-4.56-4.51-9.32-5.38-12.44l16.95-8.74,1.59-.82s1.56,1.9,4.24,4.47c3.5,3.37,8.92,7.88,15.23,10.78l-3.82,2.95Z"/>
        <path class="cls-11" d="m469.67,211.42l-3.04,2.24c-3.73,1.82-6.17,2.44-9.08-1.74-5.01-7.21-3.09-17.3-3.09-17.3l.99-.33c-2.31-4.56-4.51-9.32-5.38-12.44l16.95-8.74c.96,1.04,2.81,2.97,5.38,5.32,1.63,7.8,3.16,21.6-2.73,32.99Z"/>
        <path class="cls-17" d="m464.74,173.41s3.15-10.49,2.38-18.49c-.55-5.71-1.21-29.73-20.67-21.17,0,0-13.47,6.85-17.96,12.13-3.57,4.2-8.13,12.39,3.88,28.01l3.5,5.43,28.86-5.91Z"/>
        <path class="cls-3" d="m456.64,186.7c-3.82,2.8-7.18,4.41-7.18,4.41-6.39,2.59-21.4-20.86-22.65-26.38-1.25-5.52-1.12-12.61,14.42-19.28,10.94-4.7,15.11-.43,19.17,7.66,1.71,3.39,3.4,7.46,5.57,11.82,4.58,9.2-2.99,17.12-9.33,21.76Z"/>
        <path class="cls-11" d="m457.78,185.84c1.29-11.19-14.2-29.8-14.2-29.8,0,0,9.13-1.59,16.82-2.92,1.71,3.39,3.4,7.46,5.57,11.82,4.58,9.2-1.85,16.25-8.19,20.9Z"/>
        <path class="cls-17" d="m432.58,151.08s-2.91,6.27-2.22,10.62c.69,4.34,4.02,12.33,1.64,13.19,0,0-10.75-9.32-8.58-18.7,2.3-9.95,9.16-5.11,9.16-5.11Z"/>
        <path class="cls-17" d="m430.27,150.48s.59.51,1.63,1.32c.05.2.07.31.07.31,0,0,13.65,15.8,29.09,15.34,0,0-8.35-2.24-15.91-7.26,4.55,2.14,9.43,3.55,13.52,2.67,3.4-.4,10.65,12.33,1.81,17.32,0,0,12.74-.78,16.38-6.18,0,0,0,1.34-.24,2.06,0,0,9.03-4.11,11.31-8.71,2.28-4.59-34.61-43.91-57.67-16.87Z"/>
        <path class="cls-11" d="m445.48,230.46c-4.83,6.62-11.7,14.39-20.2,19.66v.03s-.42.26-1.18.68c-.06.04-.12.07-.18.1-2.61,1.51-5.37,2.77-8.25,3.69-.03,0-.05.01-.08.03-2.7.92-5.71,1.66-8.7,1.84,2.52-.47,4.95-1.43,7.27-2.73,4.32-2.43,8.25-6.05,11.63-9.91,7.59-8.67,12.41-18.51,12.68-18.57l7.02,5.19Z"/>
        <path class="cls-22" d="m516.68,197.52s0,0,0,0c-.7-1.36-1.42-2.66-2.13-3.88-3.11-5.31-6.29-9.19-9.4-10.94,0,0-.01,0-.02,0,0,0,0,0,0,0-1.72-.95-4.81-1.04-8.75-.53h0c-3.74.48-8.24,1.5-13.06,2.81,0,0,0,0-.01,0h.02s-3.02,10.83-7.75,18.15c-1.35,2.1-2.85,3.91-4.46,5.1-1.19.88-2.44,1.42-3.74,1.46-3.29.12-6.13-.71-8.27-2.24-3.27-2.32-4.94-6.25-4.22-10.85v-.02s.54-2.26.54-2.26c0,0,0,0,0-.01h0s0,0,0,0v-.04s.01,0,.01,0c0,0,0,0-.01,0h0c-.44.11-15.53,4.06-18.37,8.18-2.88,4.17-7.15,13.79-7.15,13.79,0,0,6.59,17.94,17.24,20.47,0,.02,0,.04,0,.06.5,5.26,4.72,12.61,10.11,19.78,2.07,2.76,4.32,5.5,6.59,8.08,16.14-1.31,33.13-3.86,49.17-8.08,1.28-.33,2.06,2.9,2.53,8.48,1.07-1.19,2.16-2.35,3.29-3.47.68-31.46.67-58.53-2.17-64.01Z"/>
        <path class="cls-3" d="m498.88,183.08c-2.24.9-10.98,18.54-19.18,33.36l-16.53-53.35s-.08-9.62-1.56-11.9c-1.48-2.28-6.95-7.17-9-6.6-2.05.57.68,5.11,1.14,7.79.46,2.68.68,3.98.46,4.1-.23.12-1.68-4.6-2.35-4.38-.67.23.47,6.03.92,7.17.43,1.08,3.77,3.05,4.23,5.15.32,13.84,2.69,96.16,14.43,92.36.08-.02.16-.07.26-.13.73-.36,1.44-.72,2.14-1.09,0,0,.02,0,.03-.01,0,0,.02-.01.03-.02,25.17-13.33,35.08-36.52,38.31-46.44.96-2.95,1.32-4.73,1.32-4.73,5.26-19.89-8.53-23.74-14.65-21.28Z"/>
        <path class="cls-4" d="m453,104.78c-1-1.02-2.25-1.53-3.74-1.53s-2.77.51-3.82,1.53c-1.05,1.02-1.57,2.28-1.57,3.78s.54,2.69,1.61,3.74c1.07,1.05,2.33,1.57,3.78,1.57s2.74-.51,3.74-1.53c.99-1.02,1.5-2.28,1.5-3.78s-.5-2.76-1.5-3.78Zm8.97-43.27c-3.24-2.74-7.28-4.12-12.12-4.12-3.1,0-6.04.71-8.83,2.13-2.8,1.42-4.96,3.43-6.51,6.02-.95,1.6-1.42,3.19-1.42,4.79,0,1.25.39,2.28,1.16,3.1.77.82,1.76,1.23,2.96,1.23,1.4,0,2.62-.72,3.66-2.17l2.99-4.04c1.45-1.44,3.37-2.17,5.76-2.17,2.04,0,3.75.56,5.12,1.68,1.37,1.12,2.06,2.71,2.06,4.75,0,2.35-.72,4.17-2.17,5.46-1.05.95-2.84,1.82-5.39,2.62-1.89.6-3.15,1.21-3.78,1.83-.62.62-.94,1.56-.94,2.8v7.48c0,1.5.4,2.74,1.19,3.74.8,1,1.92,1.5,3.37,1.5,2.34,0,3.82-1.15,4.41-3.44.2-.8.3-2.84.3-6.13,4.09-.8,7.32-2.55,9.69-5.28,2.37-2.72,3.55-6.15,3.55-10.28,0-4.74-1.7-8.58-5.09-11.52Z"/>
        <path class="cls-4" d="m482.12,108.44c-.39-.98-1.09-1.68-2.1-2.1-1.01-.42-2.02-.43-3.02-.04-1,.4-1.71,1.11-2.13,2.12-.41.98-.4,1.98.03,3,.43,1.01,1.14,1.72,2.12,2.13,1.01.43,2,.43,2.97.02.97-.41,1.66-1.13,2.08-2.14.42-1.01.44-2.01.05-2.98Zm18.33-26.84c-1.42-2.78-3.78-4.85-7.06-6.22-2.1-.88-4.3-1.23-6.6-1.05-2.3.18-4.34.93-6.12,2.25-1.09.82-1.87,1.77-2.32,2.85-.35.85-.38,1.65-.09,2.43.29.78.84,1.33,1.66,1.67.95.4,1.98.25,3.1-.43l3.17-1.9c1.39-.57,2.9-.52,4.52.16,1.39.58,2.39,1.44,3,2.59.62,1.15.63,2.42.06,3.81-.66,1.59-1.67,2.62-3.02,3.09-.98.35-2.44.43-4.4.25-1.46-.13-2.48-.07-3.08.17-.6.25-1.07.8-1.42,1.64l-2.12,5.08c-.43,1.01-.51,1.97-.25,2.88.26.9.88,1.56,1.86,1.97,1.59.66,2.91.3,3.97-1.09.36-.49,1.01-1.85,1.94-4.08,3,.62,5.69.33,8.06-.84,2.38-1.17,4.15-3.17,5.32-5.98,1.34-3.22,1.27-6.3-.19-9.26Z"/>
        <path class="cls-4" d="m424.97,116.66c-.67-.87-1.53-1.38-2.57-1.53-1.04-.14-1.99.12-2.86.79-.87.67-1.38,1.54-1.53,2.61-.15,1.07.11,2.03.78,2.9.65.84,1.52,1.32,2.62,1.45,1.09.13,2.06-.13,2.9-.78.87-.67,1.36-1.53,1.49-2.57.12-1.04-.16-2-.83-2.87Zm-8.66-26.33c-2.13-2.76-4.84-4.23-8.14-4.42-3.12-.14-6.09.88-8.9,3.05-1.8,1.39-3.19,3.12-4.18,5.21-.99,2.08-1.35,4.22-1.08,6.43.17,1.36.61,2.49,1.32,3.43.56.72,1.25,1.15,2.07,1.28.82.13,1.58-.07,2.28-.61.81-.63,1.2-1.6,1.16-2.91l-.07-3.7c.19-1.49.98-2.77,2.38-3.85,1.19-.92,2.43-1.36,3.74-1.32,1.3.04,2.41.65,3.33,1.84,1.05,1.36,1.45,2.75,1.19,4.15-.18,1.02-.84,2.34-1.96,3.94-.84,1.2-1.29,2.12-1.38,2.76-.08.64.16,1.33.72,2.05l3.36,4.36c.67.87,1.47,1.42,2.38,1.64.91.22,1.79,0,2.63-.64,1.36-1.05,1.71-2.38,1.02-3.99-.24-.55-1.1-1.79-2.58-3.7,2.02-2.3,3.11-4.77,3.27-7.42.16-2.65-.7-5.17-2.56-7.58Z"/>
        <path class="cls-11" d="m512.21,209.09c-3.22,9.92-13.14,33.11-38.31,46.44,13.65-7.65,25.93-45.85,25.93-45.85l12.38-.59Z"/>
        <path class="cls-22" d="m495.39,182.42s14.15-4.7,19.31,6.91c5.17,11.61-.53,31.08-.53,31.08,0,0-24.85-1.37-28.69-19.47l9.91-18.53Z"/>
      </g>
      <path class="cls-15" d="m405.94,256.52c-.27,0-.53,0-.8,0h-17.18c13.77,5.87,29.83,9.2,48.39,9.2,8.62,0,17.91-.35,27.5-1.13,16.14-1.31,33.13-3.86,49.17-8.08h-107.09Z"/>
    </g>
    <g>
      <g>
        <path class="cls-14" d="m734.79,568.1s-20.69-24.14-1.28-39.47c0,0,14.18-8.58,25.74-7.89,0,0-16.38,27.47-11.08,30.2,5.3,2.73,16.05-31.93,16.05-31.93,0,0,32.27-3.13,42.65,1.86,0,0-27.58,22.57-21.78,23.92,5.81,1.34,35.61-20.81,35.61-20.81,0,0,30.03,5.11,28.43,23.43-1.6,18.32-11.95,23.98-16.5,23.49-4.55-.49-31.15-10.64-31.73-6.92-.58,3.73,15.44,15.91,26.65,16.48,0,0-21.17,23.35-35.24,16.61-14.07-6.74-15.27-17.42-24.05-21.43-8.77-4.01-16.26-4-12.64.09,3.62,4.09,19.5,8.06,24.51,16.93,5.02,8.87,9.52,14.86-5.04,12.67-14.56-2.19-38.22-12.84-39.26-25.04l-1.04-12.2Z"/>
        <g>
          <path class="cls-13" d="m834.37,547.92s-81.57-3.14-99.58,20.18c0,0-3.98,11.93-16.24,22.8l-1.91,5.21s14.13-14.9,19.19-15.81c0,0-7.91-28.9,98.54-32.38Z"/>
          <path class="cls-2" d="m721.95,590.79c-.7.77-1.75,1.81-3.25,3.2-.03.02-.05.05-.08.08-.49.45-.96.94-1.42,1.46-2.91,3.23-5.39,7.6-7.44,12.07-.41.88-.8,1.77-1.16,2.66h-4.77c.4-.92.82-1.8,1.26-2.66,5.55-10.84,13.45-16.69,13.45-16.69,0,0,0,0,0,0,.3-.18,7.35-4.45,3.4-.11Z"/>
        </g>
      </g>
      <g>
        <path class="cls-14" d="m677.68,537.21s32.91-18.43,17.55-43.44c0,0-12.29-15.36-25.45-19.31,0,0,7.02,37.3,0,38.17-7.02.88-4.83-42.12-4.83-42.12,0,0-34.66-16.67-48.27-15.36,0,0,21.5,36.42,14.48,35.54-7.02-.88-31.15-37.74-31.15-37.74,0,0-35.54-6.58-41.25,14.48-5.7,21.06,3.51,31.59,8.78,32.91,5.27,1.32,39.05.88,38.17,5.27-.88,4.39-23.69,11.41-36.42,7.46,0,0,14.04,34.66,32.47,32.91,18.43-1.76,24.13-13.16,35.54-14.04,11.41-.88,19.75,2.19,14.04,5.27-5.7,3.07-25.01,1.01-34.23,8.84-9.21,7.83-16.67,12.66.44,16.17,17.11,3.51,47.83,1.32,53.97-11.85l6.14-13.16Z"/>
        <g>
          <path class="cls-13" d="m575,474.02s92.15,29.84,102.68,63.19c0,0-.44,14.92,8.78,32.03v6.58s-9.65-22.38-14.92-25.45c0,0,20.62-28.96-96.53-76.35Z"/>
          <path class="cls-20" d="m694.61,607.59c-.11.88-.24,1.76-.4,2.66h-4.79c.06-.82.11-1.71.16-2.66.43-8.9.34-22.9-3.45-32.52-.02-.04-.03-.08-.05-.12-.32-.81-.67-1.59-1.05-2.33,0-.02-.02-.04-.03-.06-1.08-2.12-1.81-3.68-2.28-4.82,0,0,0,0,0,0-2.64-6.46,3.46,1.15,3.74,1.49,0,0,0,.01,0,.01,0,0,10.92,16.57,8.16,38.35Z"/>
        </g>
      </g>
      <g>
        <path class="cls-14" d="m717.33,499.57s-43.38-24.29-23.14-57.26c0,0,16.2-20.24,33.55-25.45,0,0-9.25,49.16,0,50.32,9.25,1.16,6.36-55.53,6.36-55.53,0,0,45.69-21.98,63.62-20.24,0,0-28.34,48.01-19.09,46.85,9.25-1.16,41.07-49.74,41.07-49.74,0,0,46.85-8.68,54.37,19.09,7.52,27.76-4.63,41.65-11.57,43.38-6.94,1.74-51.48,1.16-50.32,6.94,1.16,5.78,31.23,15.04,48.01,9.83,0,0-18.51,45.69-42.8,43.38-24.29-2.31-31.81-17.35-46.85-18.51-15.04-1.16-26.03,2.89-18.51,6.94,7.52,4.05,32.97,1.33,45.12,11.65,12.15,10.33,21.98,16.69-.58,21.32-22.56,4.63-63.05,1.74-71.14-15.62l-8.1-17.35Z"/>
        <g>
          <path class="cls-13" d="m852.68,416.28s-121.46,39.33-135.35,83.29c0,0,.58,19.67-11.57,42.22v8.68s12.72-29.5,19.67-33.55c0,0-27.19-38.17,127.25-100.64Z"/>
          <path class="cls-13" d="m705.76,541.79s-18.73,28.45-8.05,63.07l4.82-1.29s-4.68-38.14,5.12-57.32c9.8-19.18-1.89-4.46-1.89-4.46Z"/>
        </g>
      </g>
    </g>
    <g>
      <path class="cls-17" d="m408.63,319.4s-.05.09-.08.13c-.73,1.01-1.21,2.17-1.15,3.4.09,1.6.04,3.14-.8,4.55-.1.17-.21.32-.33.47-2.35,2.99-9.75-1.68-12.04,2.15-.78,1.57-2.31,6.45-4.67,7.24,4.16-6.09-.89,3.23-1.74,4.41-.63.87,1.25,1.5.24,1.86-.54.19-1.05.72-1.23,2.16-.91,5.93-1.16,11.72-1.21,17.46.07-.05.14-.1.21-.15-.08.78-.15,1.58-.21,2.39,0,.13-.01.27-.01.4,0,3.25.04,6.48.04,9.72,0-3.3-.04-6.6-.04-9.92-.16,2.26-.23,4.64-.19,7.15.49,32.32,26.34,51.07,35.62,42.86,2.95-2.61,6.38-1.29,9.08.71s6.45.92,7.8-2.09l34.52-76.94c1.03-2.3.27-5-1.8-6.42-10.53-7.21-41.97-26.53-60.2-13.85-.82.57-1.37,1.41-1.81,2.3Z"/>
      <path class="cls-3" d="m488.44,495.88c-8.25,5.72-18.58,10.44-31.56,13.43-48.65,11.24-67.3-29.88-74.3-58.11,6.63-3.8,12.88-4.63,16.48-5.06,3.52-.41,7.21-.69,10.28-.84,5.46-4.18,13.6-21.31,15.4-47.9l2.29.61,38.34,10.49s-1.76,12.19-2.62,23.71c-.67,9.02-.77,17.63.94,19.74,2.99.65,4.79,1.07,4.79,1.07,0,0,0,.01.02.04.51.84,11.64,19.14,19.94,42.81Z"/>
      <path class="cls-9" d="m465.37,408.52s-1.76,12.18-2.62,23.71c-21.72-2.17-31.81-22.86-35.73-34.2l38.35,10.49Z"/>
      <path class="cls-3" d="m477.23,412.74s-50.15,12.33-57.34-19.02c-7.2-31.35-18.51-50.87,13.2-60.06,31.71-9.2,40.7,1.33,45.65,11.21,4.95,9.88,11.35,63.86-1.5,67.87Z"/>
      <path class="cls-17" d="m473.25,327.77c-9.94-7.65-15.34-4.24-17.99-.65-30.97-8.84-43.59,17.57-43.59,17.57,1.77,23.27-11.51,39.86-11.51,39.86,0,0,10.47,3.57,30.38-6.7,6.08-3.14,10.8-9.05,14.43-15.74-5.28,16.3-14.57,29.3-14.57,29.3,22.6-17.45,24.72-54.91,24.88-58.85,3.7,2.06,11.13,6.67,14.32,12.12,4.33,7.41,9.22,23.59,13.88,21.94,0,0,4.67-27.38-10.23-38.85Z"/>
      <path class="cls-14" d="m488.43,457.04c-7.01-3.73-16.01-6.49-25.82-8.52,0,0-5.05,13.01-20.45,12.73-14.63-.27-29.1-16.45-30.51-18.06-16.76-.54-29.08,0-29.08,0,0,0-35.3,55.24-30.93,68.03,2.88,8.43,5.15,16.76,6.91,24.87,8.21,37.69,5.61,70.51,3.52,85.88-.81,5.94-1.54,9.28-1.54,9.28l111.2,2.58s9.21-32.8,16.04-60.78c.21-.84.41-1.68.61-2.51,4.63,9.54,17.77,23.89,23.71,25.02.36.07,2.02.11,4.42.13,8.9.07,26.13.19,26.13.19,3.31-26.37-39.76-132.55-54.22-138.82Z"/>
      <path class="cls-10" d="m362.08,621.96c2.09-15.37,4.69-48.19-3.52-85.88.03-.44.05-.67.05-.67,0,0,30.42,29.06,35.68,59.45,3.59,20.74-18.31,26.15-32.2,27.1Z"/>
      <path class="cls-3" d="m448.32,594.86c-.63-2-10.72-12.29-16.19-13.55-5.47-1.26-23.51,2.89-23.51,2.89h0c-11.2-1.49-36.73-5.5-66.64-14.18-5.27-1.53-10.67-3.2-16.16-5.04l45.55-41.07,40.29-80.72s-34.17-2.7-42.82,2.46c-31.12,18.54-88.77,126.79-87.68,149.21,0,0,14.6.81,41.28,1.14,20.5.27,48.12.25,81.72-.61,0,0,3.69-.02,7.57-.53h36.58Z"/>
      <path class="cls-14" d="m371.36,523.91l-40.18,41.56c3.96,1.5,8.09,3.64,10.79,4.55,0,0-3.67,15.8-19.53,25.99-26.67-.34-41.28-1.14-41.28-1.14-1.09-22.42,56.56-130.67,87.68-149.21,8.65-5.16,42.82-2.46,42.82-2.46l-40.29,80.72Z"/>
      <path class="cls-8" d="m542.65,595.87c-2.4-.02-30.19-.25-30.55-.32-5.95-1.13-19.08-15.47-23.71-25.02-.2.83,1.47-9.03,3.03-13.03,3.36-8.62,7.83-15.93,7.83-15.93,15.97-2.41,43.44,39.13,43.4,54.3Z"/>
      <path class="cls-3" d="m541.71,570.81c-3.54-26.82-11.1-73.29-25.98-126.77h-.09c-.88-3.38-7.78-29.74-10.66-32.62-3.08-3.08-19.34-9.55-22.15-10.24,0,0-.46,1.86,1.23,3.34.49.43,1.43,1.09,2.57,1.84l-3.85,2.07s1.45,1.26,3.6.95c1.03-.15,2.43-.53,3.61-.9.8.49,1.59.96,2.3,1.38,1.21,1.15,2.65,2.59,2.77,3.11.15.61.67,3.31,1,5.02-.6-.53-1.11-1.07-1.44-1.58-1.54-2.38-4.77-2.14-4.77-2.14,0,0,4.41,5.54,4.83,9.14.64,5.47,3.69,8.34,3.69,8.34h0c1.12,1.32,2.7,2.51,4.04,5.28.98,2.03,1.36,5.91,1.63,8.15h0c.66,8.08,2.93,37.87,2.31,59.81-.83,29.52-3.63,55.99-.31,72.41.86,4.25,2.12,7.83,3.94,10.61,7.24,11.1,32.68,7.86,32.68,7.86,0,0,1.09-9.6-.95-25.06Z"/>
      <path class="cls-10" d="m542.62,595.71s-28.42,4.37-36.51-10.6c-2.03-3.75-3.44-8.58-4.4-14.31,6.09,1.84,22.77,4.95,39.86-8.88,2.28,20.84,1.06,33.78,1.06,33.78Z"/>
    </g>
    <g>
      <path class="cls-5" d="m639.17,595.55H199.85c-20.58,0-37.27,16.69-37.27,37.27h513.87c0-20.58-16.69-37.27-37.27-37.27Z"/>
      <path class="cls-20" d="m693,595.55H253.67c-20.58,0-37.27,16.69-37.27,37.27h513.87c0-20.58-16.69-37.27-37.27-37.27Z"/>
    </g>
    <text class="cls-18" transform="translate(307.09 19.95)"><tspan x="0" y="0">BUT No way to ma</tspan><tspan class="cls-6" x="201.92" y="0">k</tspan><tspan x="214.58" y="0">e it true </tspan></text>
    <text class="cls-18" transform="translate(121.1 77.77)"><tspan class="cls-16" x="0" y="0">Y</tspan><tspan x="12.47" y="0">ou Got The Idea </tspan></text>
    <text class="cls-18" transform="translate(550.4 159.65)"><tspan x="0" y="0">FRU</tspan><tspan class="cls-23" x="46.6" y="0">S</tspan><tspan x="60.65" y="0">TR</tspan><tspan class="cls-1" x="89.96" y="0">A</tspan><tspan x="104.8" y="0">TING RIGHT?</tspan></text>
  </g>
</svg>