<?xml version="1.0" encoding="UTF-8"?>
<svg id="Layer_2" data-name="Layer 2" xmlns="http://www.w3.org/2000/svg" viewBox="0 0 103.54 103.54">
  <defs>
    <style>
      .cls-1 {
        fill: #fcbd0b;
      }

      .cls-2 {
        fill: none;
        stroke: #fcbd0b;
        stroke-linecap: round;
        stroke-linejoin: round;
        stroke-width: 2.35px;
      }
    </style>
  </defs>
  <g id="Layer_1-2" data-name="Layer 1">
    <g>
      <circle class="cls-2" cx="51.77" cy="51.77" r="50.59"/>
      <path class="cls-1" d="m39.89,81.26c0,.94.27,1.85.79,2.63l2.55,3.82c.78,1.17,2.55,2.12,3.96,2.12h9.17c1.4,0,3.18-.95,3.96-2.12l2.54-3.82c.44-.66.8-1.84.8-2.63l.02-5.83h-23.79v5.83ZM51.77,13.71c-15.16.05-26.17,12.34-26.17,26.04,0,6.6,2.44,12.61,6.48,17.22,2.46,2.8,6.3,8.66,7.76,13.6,0,.04.01.08.02.12h23.82s.01-.08.02-.12c1.47-4.94,5.31-10.8,7.76-13.6,4.04-4.48,6.48-10.48,6.48-17.22,0-14.32-11.72-26.04-26.17-26.04Zm14.33,38.67c-2.33,2.65-5.21,6.88-7.29,11.28h-14.07c-2.08-4.4-4.96-8.63-7.29-11.28-3.04-3.47-4.71-8.03-4.71-12.64,0-9.19,7.15-18.86,18.9-18.9,10.63,0,19.17,8.53,19.17,18.9,0,4.61-1.67,9.17-4.7,12.64Zm-16.71-26.78c-6.56,0-11.9,5.34-11.9,11.9,0,1.32,1.06,2.38,2.38,2.38s2.38-1.07,2.38-2.38c0-3.94,3.2-7.14,7.14-7.14,1.32,0,2.38-1.06,2.38-2.38s-1.07-2.38-2.38-2.38Z"/>
    </g>
  </g>
</svg>