<?xml version="1.0" encoding="UTF-8"?>
<svg id="Layer_2" data-name="Layer 2" xmlns="http://www.w3.org/2000/svg" viewBox="0 0 388.81 767.16">
  <defs>
    <style>
      .cls-1 {
        fill: #ffe77d;
      }

      .cls-2 {
        fill: #aa541a;
      }

      .cls-3 {
        fill: #592b0c;
      }

      .cls-4 {
        fill: #1e630a;
      }

      .cls-5 {
        fill: #136730;
      }

      .cls-6 {
        fill: #ffe8dc;
      }

      .cls-7 {
        fill: #8c4210;
      }

      .cls-8 {
        fill: #e5be1a;
      }

      .cls-9 {
        fill: #ffc326;
      }

      .cls-10 {
        fill: #190902;
      }

      .cls-11 {
        fill: #db8a11;
      }

      .cls-12 {
        fill: #894416;
      }

      .cls-13 {
        fill: #287a0a;
      }
    </style>
  </defs>
  <g id="Layer_1-2" data-name="Layer 1">
    <g>
      <path class="cls-2" d="m249.64,269.56c-11.27-1.09-21.9-1.76-31.93-2.08-8.75-.28-16.46-5.83-19.52-14.04-5.06-13.59-9.45-31.29-11.64-52.56l-3.93,1.23-66.25,20.6s3.8,21.14,5.99,41.19c.27,2.46.51,4.92.73,7.35.28,3.15-1.73,6.05-4.77,6.94-31.76,9.39-44.86,21.42-44.86,21.42,0,0,8.9,115.68,52.1,247.97,4.16,12.75-59.32,89.04-59.32,89.04,15.46,49.54,226.31-21.28,226.31-21.28,0,0-14.41-43.83,4.4-150.92,21.94-124.9-47.31-194.85-47.31-194.85Z"/>
      <path class="cls-2" d="m249.64,269.56s66.37,8.08,103.97,197.18c0,0,10.22,54.82-10.22,61.33-20.44,6.5-126.2-116.52-93.75-258.51Z"/>
      <path class="cls-10" d="m146.13,158.72s42.6,15.18,19.25,62.86c0,0,34.82-.53,42.16-11.53,0,0-.73,4.49-1.98,6.79,0,0,32.66-8.71,42.92-22.87,10.26-14.16-48.83-176.88-132.85-130.98,0,0-77.76,17.49-43.8,103.3,33.96,85.8,5.26,94.58,5.26,94.58,0,0,9.18,1.49,13.04.32,0,0,4.97-3.87,5.13-7.32,0,0,.38,5.23-.59,7.23,0,0,31.87-6.54,43.76-22.96,11.89-16.42,17.64-62.61,7.68-79.41Z"/>
      <path class="cls-3" d="m116.37,222.7s4.63,29.6,6.81,49.66c34.67-27.94,38.94-52.92,45.11-72.94l-51.92,23.28Z"/>
      <path class="cls-10" d="m167.11,201.25s16.51-33.47,18.43-60.8c1.37-19.51,12.72-100.62-57.49-82.82,0,0-49.13,15.42-67.2,30.64-14.37,12.1-34.31,37.05-2.75,96.33l8.71,20.23,100.3-3.58Z"/>
      <path class="cls-2" d="m105.79,252.09s86.59-24.92,70.25-78.62c-16.34-53.7-16.17-93.09-72.15-79.45-55.98,13.64-60.43,37.39-59.34,56.64,1.1,19.25,38.29,106.53,61.24,101.43Z"/>
      <path class="cls-10" d="m71.66,108.03s-13.32,19.45-13.44,34.43c-.12,14.98,6.55,43.72-1.94,45.27,0,0-30.85-37.38-18.28-67.7,13.33-32.15,33.66-12,33.66-12Z"/>
      <path class="cls-7" d="m323.39,464.41s.23-68.95-12.51-77.23c-12.75-8.27-16.9,78.93,12.51,77.23Z"/>
      <path class="cls-8" d="m249.64,269.56s39.31,2.51,64.91,58.26c0,0,1.44,38.56-28.75,39.49-30.19.93-36.16-97.75-36.16-97.75Z"/>
      <path class="cls-12" d="m299.47,505.38c7.42,25.28,14.19,49.34,20.15,71.14,16.95,62,27.3,105.49,27.3,105.49l.22.02-.22-.02s-4.19,20.17-9.46,24.48c-4.76,3.89.84,18.96,3.74,29.68.39,1.45,2.32,1.76,3.14.5,1.53-2.34,2.75-8.13,1.7-12.52-1.85-7.72,10.3,2.58,11.03,16.03.45,8.32-4.19,26.16,2.08,26.95,6.26.79,25.56-16.48,29.41-30.74,2.56-9.49-14.92-37.95-15.5-51.93h0c-7.32-60.44,7.96-120.6-1.44-166.52-7.1-34.69-6.28-60.83-24.49-77.59-2.01-1.85-4.92-2.33-7.41-1.21-12.89,5.82-51.77,26.97-40.24,66.23Z"/>
      <path class="cls-8" d="m105.98,282.27s56.26,78.3,107.82,74.12c0,0,20.04-57.41,2.38-89.02,0,0,13.2.43,17.74.72,3.84.24,15.71,1.46,15.71,1.46l48.86,83.6c11.34,19.41,15.9,42.05,12.93,64.33l-18.89,142.17s9.06,41.17-5.06,45.67c-22,7-119,25-168-34-5.89-7.09,8-17,6.08-23.75l-32.64-112.44,13.06-152.87Z"/>
      <polygon class="cls-5" points="105.6 299.24 270.72 235.02 373.69 474.99 212.17 538.04 105.6 299.24"/>
      <path class="cls-2" d="m298.13,378.92c.04.17-.18.92-.61,2.19-.1.3-.22.62-.34.97-.25.71-.55,1.52-.9,2.43-.02.1-.07.2-.11.3-10.09,26.5-57.47,134.16-105.2,163.66-2.4,2.13-5.08,3.97-8.04,5.29-.34.14-.67.28-.99.41-.36.14-.73.29-1.09.41-.16.07-.31.12-.47.17-2.4.78-4.96,1.21-7.7,1.21-.65,0-1.32-.02-1.99-.07-24.73-1.85-130.47-155.01-132.46-201.58-1.28-29.73,35.23-54.68,35.23-54.68,37.24,19.59,73.33,81.14,98.65,134.34,5.24,11,10.01,21.67,14.22,31.53,48.14-45.72,86.46-99.41,86.46-99.41l25.34,12.85Z"/>
      <path class="cls-8" d="m105.98,282.27s-58.69,20.11-71.58,44.85c-12.89,24.74,9.23,88.51,35.79,120.57,0,0,65.81-.7,96.7-48.55,0,0-48.89-106.19-60.91-116.86Z"/>
      <path class="cls-13" d="m297.22,630.52c-2.82-9.67-4.68-15.19-4.68-15.19,0,0-143.5,7.62-179.64-40.25,0-.01-.01-.02-.02-.04,0,0-.01.01-.02.02-.43.4-6.82,6.43-16.18,16.7l-.08.1c-11.71,12.85-28.02,32.28-43.19,55.64-7.68,11.81-15.05,24.62-21.38,38.09,5.82,2.11,11.73,4.11,17.71,6.03,21.1,6.77,43.19,12.41,66.26,16.81,26.41,5.03,54.12,8.43,83.09,9.99,6.99.38,32.01,1,37.11,1,27.11,0,53.9-1.31,80.12-3.93-5.86-36.56-14.02-67.52-19.09-84.96Z"/>
      <path class="cls-6" d="m84.77,224.95s20.13,2.43,30.01-10.61c0,0-.3,8.84-12,13.08-11.6,4.21-18.01-2.47-18.01-2.47Z"/>
      <path class="cls-10" d="m114.52,64.12l-48.78,44.74s36.96,60.82,89.09,67.98c0,0-26.79-12.26-49.36-33.4,14.09,9.77,29.69,17.26,43.93,16.62,11.65.57,28.81,47.45-3.68,59.22,0,0,43.26,4.56,58.53-11.53,0,0-.72,4.5-1.97,6.8,0,0,32.66-8.72,42.91-22.88,10.25-14.15-46.66-173.45-130.67-127.56Z"/>
      <path class="cls-2" d="m272.79,366.06s7.82-20.9,5.48-27.9c-2.26-6.75,14.41-16.36,23.1-24.53.41-.39,1.09-.12,1.13.44.15,2.21-.2,6.77-4.64,11.1-6.15,6,2.26,7.31,7.91.27,5.65-7.04-6.19-21.44,0-18.54,6.19,2.9,25.84,19.53,23.76,29.97-2.08,10.44-22.78,29.56-31.4,42.04l-25.35-12.85Z"/>
      <path class="cls-4" d="m96.59,591.87s70.4,68.18,200.63,38.66l-6.91-25.24s-111.93,30.66-172.72-37.68l-21.01,24.26Z"/>
      <path class="cls-7" d="m298.13,378.92c.04.17-.18.92-.61,2.19-.1.3-.22.62-.34.97-.25.71-.55,1.52-.9,2.43-.02.1-.07.2-.11.3-10.62,28.15-62.89,147.61-113.24,168.94-.34.14-.67.28-.99.41-.36.14-.73.29-1.09.41-.16.07-.31.12-.47.17-2.4.78-4.96,1.21-7.7,1.21-18.05-15.13,125.45-177.03,125.45-177.03Z"/>
    </g>
    <g>
      <path class="cls-11" d="m1.56,148.62c3.11,6.74,40.99,4.81,59.17,1.01,77.92-16.26,137.17-50.19,148.45-63.65,1.55-1.85,2.04-3.14,1.93-4.02-.15-1.13-.98-4.42-2.18-4.58,0,0-2.89,2.84-3.15,2.95-2.51,1.07-13.11,4.55-13.11,4.55l-24.1-4.04S38.59,122.68,33.1,124.86C21.95,129.29.49,137.53.16,144.96c-.03.56,1.18,3.14,1.4,3.66Z"/>
      <path class="cls-9" d="m.28,145.15c3.11,6.74,40.99,4.81,59.17,1.01,77.92-16.26,137.17-50.19,148.45-63.65,5.63-6.72-2.7-5.94-3.4-5.64-7.88,3.34-37.21.5-37.21.5l-125.94,17.77c-1.62,13.3-4.04,24.07-9.53,26.25-11.99,4.76-34.6,16.29-31.54,23.76Z"/>
      <path class="cls-1" d="m91.68,135.58c12.32-3.35,58.59-19.73,85.31-31.56-26.95,14.71-68.55,31.92-117.54,42.14-10.87,2.27-28.77,3.87-42.08,3.35,0,0,29.27-1.69,74.3-13.93Z"/>
      <path class="cls-11" d="m113.14,122.09l-3.23-7.79,57.37-36.93s29.33,2.84,37.21-.5c.49-.21,4.59-.27,3.97,1.58-.89,2.66-10.91,11.53-37.76,23.45-12.46,5.53-34.78,14.92-57.57,20.19Z"/>
      <path class="cls-9" d="m42.99,133.52c14.89,1.78,48.8-3.24,84.58-16.38,37.66-13.83,74.34-33.22,79.93-38.85.24-.24-2.49-8.52-3.04-8.94-.55-.42-2.03.16-2.03.16-4.35,1.9-8.36,4.45-12.86,6.42-46.49,20.27-88.96,32.8-94.1,21.2l-64.54,3.31c-.37,6.46-.15,12.77.85,18.64,0,0-2.82.14-3.01.93-.24,1.52,2.02,8.43,3.49,9.94,1.8,1.85,6.75,3.42,10.74,3.58Z"/>
      <path class="cls-1" d="m100.99,119.15c36.67-10.36,67.17-25.98,84.65-35.19,12.39-6.53,20.26-12.02,18.82-14.6-.55-.42-2.03.16-2.03.16-4.35,1.9-8.36,4.45-12.86,6.42-46.49,20.27-94.83,30.23-104.96,27.03l16.39,16.19Z"/>
      <path class="cls-11" d="m42.99,133.52c14.89,1.78,48.8-3.24,84.58-16.38,0,0-16.99,4.93-26.62,2.49,0,0-69.45,18.58-72.19.37-.24,1.52,2.02,8.43,3.49,9.94,1.8,1.85,6.75,3.42,10.74,3.58Z"/>
      <path class="cls-9" d="m31.8,118.71c1.11,2.53,4.03,3.98,8.43,4.51,14.89,1.78,46.71-7.03,82.49-20.17,39.81-14.62,77.29-28.39,79.12-33.27-.21-2.23-.31-4.49-.97-6.67C187.88,19.88,149.28-.79,110.96,3.18c-8.06.84-16.23,2.69-24.28,5.65-17.82,6.54-32.53,17.59-42.94,31.28-16.67,21.93-22.3,50.66-11.94,78.6Z"/>
      <path class="cls-1" d="m125.68,2.78c29.76,2.17,56.44,18.94,69.21,45.66C174.33,15.55,139.59,7.1,125.68,2.78Z"/>
      <path class="cls-11" d="m90.6,42.13c-4.89-6.21-8.78-31.52-3.92-33.3,8.06-2.96,18.28-7.05,26.35-7.88.99.08,2.94,1.85,2.94,1.85,0,0-20.23,26.35-25.37,39.34Z"/>
      <path class="cls-11" d="m43.74,40.11c5.66-7.44,12.59-14.1,20.6-19.68-.47,4.2-.98,8.4-1.51,12.58-3.73,29.23-8.17,59-3.44,88.85-7.84,1.4-14.37,1.93-19.15,1.36-4.4-.53-7.32-1.97-8.43-4.51-10.36-27.95-4.73-56.67,11.94-78.6Z"/>
      <path class="cls-9" d="m32.09,120.09c2.2,5.4,13.07,4.4,16.14,4.31,18.08-.57,50.56-7.19,81.15-18.43,34.24-12.58,62.45-27.86,72.63-34.56,1.02-.67-1.15-8.31-1.15-8.31-2.92,2.46-45.84,21.45-60.73,26.03-23.44,7.2-43.09,8.68-46.23,1.59-11.66-31.41-3.5-63.98,17.06-87.54.68-.78,1.38-1.56,2.09-2.32-1.2-2.95-40.61.54-63.36,28.86-2.2,3.3-4.19,6.77-5.95,10.39-8.73,17.9-12.03,39.46-8.59,62.1.28,3.76-.5,8.59-5.91,10.1,0,0,1.74,5.33,2.86,7.79Z"/>
      <path class="cls-1" d="m104.43,11.57c3.22-11.34-3.85-8.38-16.44-4.83-11.92,3.36-25.46,12.04-33.52,17.63C77.55.97,111.93-1.89,113.05.86c-.71.76-1.41,1.54-2.09,2.32-2.34,2.68-4.52,5.49-6.53,8.39Z"/>
      <path class="cls-11" d="m29.23,112.31c2.88,2.05,9.55-.6,9.26-4.36,0,0,10.18,13.22,25.57,11.62,6.35-.66,35.78-5.26,68.63-17.33,30.41-11.17,69.32-30.83,69.32-30.83-10.19,6.7-38.39,21.98-72.63,34.56-30.59,11.24-63.07,17.85-81.15,18.43-3.07.1-13.94,1.09-16.14-4.31-1.12-2.46-2.86-7.79-2.86-7.79Z"/>
      <path class="cls-11" d="m187.56,72.96c-22.75,11.58-53.92,23.75-69.78,25.81-8.96,1.16-24.59,5.09-28.36-8.03-4-13.93-5.44-35.25,1.46-49.11-3.77,15.7-3.13,32.55,3.01,49.09,3.15,7.09,22.79,5.61,46.23-1.59,14.9-4.58,57.82-23.56,60.73-26.03,0,0-2.02,4.12-13.3,9.86Z"/>
      <path class="cls-1" d="m88,87.26s.79,3.89,2.17,7.08,5.43,6.36,11.1,6.43c0,0-3.63,2.29-8.84-.57-5.21-2.86-4.43-12.94-4.43-12.94Z"/>
    </g>
  </g>
</svg>