<?xml version="1.0" encoding="UTF-8"?>
<svg xmlns="http://www.w3.org/2000/svg" xmlns:xlink="http://www.w3.org/1999/xlink" viewBox="0 0 596.67 573.53">
  <defs>
    <style>
      .cls-1 {
        fill: url(#linear-gradient-4);
      }

      .cls-1, .cls-2, .cls-3, .cls-4, .cls-5, .cls-6, .cls-7, .cls-8, .cls-9, .cls-10, .cls-11, .cls-12, .cls-13, .cls-14, .cls-15, .cls-16, .cls-17, .cls-18, .cls-19, .cls-20, .cls-21, .cls-22, .cls-23, .cls-24, .cls-25, .cls-26, .cls-27, .cls-28, .cls-29, .cls-30, .cls-31, .cls-32, .cls-33, .cls-34, .cls-35, .cls-36, .cls-37, .cls-38, .cls-39, .cls-40, .cls-41, .cls-42, .cls-43, .cls-44, .cls-45, .cls-46, .cls-47, .cls-48, .cls-49, .cls-50, .cls-51, .cls-52 {
        fill-rule: evenodd;
      }

      .cls-2 {
        fill: url(#_Áåçûìÿííûé_ãðàäèåíò_2-2);
      }

      .cls-2, .cls-7, .cls-8, .cls-53, .cls-11, .cls-23, .cls-24, .cls-26, .cls-27, .cls-32, .cls-34, .cls-39, .cls-54, .cls-42, .cls-43, .cls-55, .cls-44, .cls-45, .cls-49 {
        mix-blend-mode: multiply;
      }

      .cls-3 {
        fill: url(#_Áåçûìÿííûé_ãðàäèåíò_50);
      }

      .cls-4 {
        fill: url(#_Áåçûìÿííûé_ãðàäèåíò_37);
      }

      .cls-5 {
        fill: url(#_Áåçûìÿííûé_ãðàäèåíò_50-6);
      }

      .cls-6 {
        fill: url(#_Áåçûìÿííûé_ãðàäèåíò_50-5);
      }

      .cls-56, .cls-13 {
        fill: #fff;
      }

      .cls-7 {
        fill: url(#_Áåçûìÿííûé_ãðàäèåíò_148);
      }

      .cls-8 {
        fill: url(#_Áåçûìÿííûé_ãðàäèåíò_2-8);
      }

      .cls-8, .cls-11, .cls-32, .cls-42, .cls-43, .cls-45 {
        opacity: .5;
      }

      .cls-9 {
        fill: url(#_Áåçûìÿííûé_ãðàäèåíò_98-2);
      }

      .cls-53 {
        fill: url(#radial-gradient-2);
      }

      .cls-53, .cls-54, .cls-55 {
        opacity: .8;
      }

      .cls-10 {
        fill: #0f783c;
      }

      .cls-11 {
        fill: url(#_Áåçûìÿííûé_ãðàäèåíò_2-6);
      }

      .cls-12 {
        fill: url(#_Áåçûìÿííûé_ãðàäèåíò_37-2);
      }

      .cls-14 {
        fill: url(#_Áåçûìÿííûé_ãðàäèåíò_50-4);
      }

      .cls-15 {
        fill: url(#_Áåçûìÿííûé_ãðàäèåíò_67-3);
      }

      .cls-16 {
        fill: #541d27;
      }

      .cls-57 {
        fill: url(#linear-gradient-6);
      }

      .cls-58 {
        isolation: isolate;
      }

      .cls-59 {
        fill: #c1daea;
      }

      .cls-17 {
        fill: url(#_Áåçûìÿííûé_ãðàäèåíò_42);
      }

      .cls-18 {
        fill: url(#linear-gradient-2);
      }

      .cls-19 {
        fill: url(#linear-gradient);
      }

      .cls-20 {
        fill: url(#_Áåçûìÿííûé_ãðàäèåíò_32-2);
      }

      .cls-21 {
        fill: url(#_Áåçûìÿííûé_ãðàäèåíò_67-4);
      }

      .cls-22 {
        fill: url(#_Áåçûìÿííûé_ãðàäèåíò_3-2);
      }

      .cls-23 {
        fill: url(#_Áåçûìÿííûé_ãðàäèåíò_195-2);
      }

      .cls-24 {
        fill: url(#_Áåçûìÿííûé_ãðàäèåíò_149);
      }

      .cls-25 {
        fill: url(#_Áåçûìÿííûé_ãðàäèåíò_50-10);
      }

      .cls-26 {
        fill: url(#_Áåçûìÿííûé_ãðàäèåíò_195);
      }

      .cls-27 {
        fill: url(#_Áåçûìÿííûé_ãðàäèåíò_2-3);
      }

      .cls-28 {
        fill: url(#_Áåçûìÿííûé_ãðàäèåíò_67);
      }

      .cls-29 {
        fill: url(#_Áåçûìÿííûé_ãðàäèåíò_219);
      }

      .cls-30 {
        fill: url(#_Áåçûìÿííûé_ãðàäèåíò_67-2);
      }

      .cls-31 {
        fill: #fff3c9;
      }

      .cls-32 {
        fill: url(#_Áåçûìÿííûé_ãðàäèåíò_2-5);
      }

      .cls-33 {
        fill: url(#_Áåçûìÿííûé_ãðàäèåíò_3);
      }

      .cls-34 {
        fill: url(#_Áåçûìÿííûé_ãðàäèåíò_149-2);
      }

      .cls-35 {
        fill: #3d1d27;
      }

      .cls-60 {
        fill: url(#linear-gradient-5);
      }

      .cls-61 {
        clip-path: url(#clippath);
      }

      .cls-62 {
        clip-rule: evenodd;
        fill: none;
      }

      .cls-36 {
        fill: url(#_Áåçûìÿííûé_ãðàäèåíò_32);
      }

      .cls-37 {
        fill: url(#_Áåçûìÿííûé_ãðàäèåíò_50-7);
      }

      .cls-63 {
        fill: url(#linear-gradient-7);
      }

      .cls-38 {
        fill: url(#_Áåçûìÿííûé_ãðàäèåíò_50-11);
      }

      .cls-39 {
        fill: url(#_Áåçûìÿííûé_ãðàäèåíò_148-2);
      }

      .cls-54 {
        fill: url(#radial-gradient-3);
      }

      .cls-40 {
        fill: url(#_Áåçûìÿííûé_ãðàäèåíò_50-8);
      }

      .cls-41 {
        fill: url(#_Áåçûìÿííûé_ãðàäèåíò_50-3);
      }

      .cls-64 {
        fill: url(#Degradado_sin_nombre_8);
      }

      .cls-42 {
        fill: url(#_Áåçûìÿííûé_ãðàäèåíò_2-7);
      }

      .cls-43 {
        fill: url(#_Áåçûìÿííûé_ãðàäèåíò_2);
      }

      .cls-55 {
        fill: url(#radial-gradient);
      }

      .cls-44 {
        fill: url(#_Áåçûìÿííûé_ãðàäèåíò_195-3);
      }

      .cls-45 {
        fill: url(#_Áåçûìÿííûé_ãðàäèåíò_2-4);
      }

      .cls-46 {
        fill: url(#_Áåçûìÿííûé_ãðàäèåíò_50-2);
      }

      .cls-47 {
        fill: #852d27;
      }

      .cls-48 {
        fill: url(#_Áåçûìÿííûé_ãðàäèåíò_98);
      }

      .cls-65 {
        fill: #9cc6d9;
      }

      .cls-49 {
        fill: url(#_Áåçûìÿííûé_ãðàäèåíò_168);
      }

      .cls-50 {
        fill: url(#_Áåçûìÿííûé_ãðàäèåíò_50-9);
      }

      .cls-51 {
        fill: url(#linear-gradient-3);
      }

      .cls-52 {
        fill: url(#_Áåçûìÿííûé_ãðàäèåíò_76);
      }
    </style>
    <linearGradient id="linear-gradient" x1="1977.48" y1="357.85" x2="1977.48" y2="164" gradientTransform="translate(-1616.54)" gradientUnits="userSpaceOnUse">
      <stop offset="0" stop-color="#006838"/>
      <stop offset="1" stop-color="#009345"/>
    </linearGradient>
    <linearGradient id="_Áåçûìÿííûé_ãðàäèåíò_2" data-name="Áåçûìÿííûé ãðàäèåíò 2" x1="1966.77" y1="312.38" x2="1966.77" y2="164" gradientTransform="translate(-1616.54)" gradientUnits="userSpaceOnUse">
      <stop offset=".01" stop-color="#b997c6"/>
      <stop offset="1" stop-color="#837fbb"/>
    </linearGradient>
    <linearGradient id="_Áåçûìÿííûé_ãðàäèåíò_67" data-name="Áåçûìÿííûé ãðàäèåíò 67" x1="1914.33" y1="169.29" x2="1914.33" y2="0" gradientTransform="translate(-1616.54)" gradientUnits="userSpaceOnUse">
      <stop offset=".01" stop-color="#592227"/>
      <stop offset="1" stop-color="#3e1827"/>
    </linearGradient>
    <linearGradient id="_Áåçûìÿííûé_ãðàäèåíò_148" data-name="Áåçûìÿííûé ãðàäèåíò 148" x1="1922.45" y1="166.59" x2="1922.45" y2="7.6" gradientTransform="translate(-1616.54)" gradientUnits="userSpaceOnUse">
      <stop offset="0" stop-color="#837fbb"/>
      <stop offset="1" stop-color="#fff"/>
    </linearGradient>
    <linearGradient id="_Áåçûìÿííûé_ãðàäèåíò_37" data-name="Áåçûìÿííûé ãðàäèåíò 37" x1="1955.8" y1="554" x2="1955.8" y2="507.74" gradientTransform="translate(-1616.54)" gradientUnits="userSpaceOnUse">
      <stop offset="0" stop-color="#ece1ef"/>
      <stop offset="1" stop-color="#ebf3fa"/>
    </linearGradient>
    <linearGradient id="linear-gradient-2" x1="1959.69" y1="551.76" x2="1959.69" y2="485.76" gradientTransform="translate(-1616.54)" gradientUnits="userSpaceOnUse">
      <stop offset="0" stop-color="#ffdd15"/>
      <stop offset="1" stop-color="#faaf40"/>
    </linearGradient>
    <linearGradient id="linear-gradient-3" x1="1917.25" y1="361.63" x2="1917.25" y2="163.61" gradientTransform="translate(-1616.54)" gradientUnits="userSpaceOnUse">
      <stop offset="0" stop-color="#006838"/>
      <stop offset="1" stop-color="#00a551"/>
    </linearGradient>
    <linearGradient id="_Áåçûìÿííûé_ãðàäèåíò_2-2" data-name="Áåçûìÿííûé ãðàäèåíò 2" x1="1920.06" y1="193.6" x2="1920.06" y2="163.61" xlink:href="#_Áåçûìÿííûé_ãðàäèåíò_2"/>
    <linearGradient id="_Áåçûìÿííûé_ãðàäèåíò_42" data-name="Áåçûìÿííûé ãðàäèåíò 42" x1="1925.38" y1="180.22" x2="1925.38" y2="138" gradientTransform="translate(-1616.54)" gradientUnits="userSpaceOnUse">
      <stop offset=".02" stop-color="#864028"/>
      <stop offset="1" stop-color="#833927"/>
    </linearGradient>
    <linearGradient id="_Áåçûìÿííûé_ãðàäèåíò_2-3" data-name="Áåçûìÿííûé ãðàäèåíò 2" x1="1924.57" y1="164.39" x2="1924.57" y2="138" xlink:href="#_Áåçûìÿííûé_ãðàäèåíò_2"/>
    <linearGradient id="_Áåçûìÿííûé_ãðàäèåíò_98" data-name="Áåçûìÿííûé ãðàäèåíò 98" x1="1990.56" y1="242.26" x2="1990.56" y2="182.38" gradientTransform="translate(-1616.54)" gradientUnits="userSpaceOnUse">
      <stop offset="0" stop-color="#383775"/>
      <stop offset="1" stop-color="#1f1c52"/>
    </linearGradient>
    <linearGradient id="_Áåçûìÿííûé_ãðàäèåíò_219" data-name="Áåçûìÿííûé ãðàäèåíò 219" x1="1938.85" y1="158.43" x2="1938.85" y2="54.68" gradientTransform="translate(-1616.54)" gradientUnits="userSpaceOnUse">
      <stop offset="0" stop-color="#a54596"/>
      <stop offset=".3" stop-color="#9a4227"/>
      <stop offset="1" stop-color="#833927"/>
    </linearGradient>
    <linearGradient id="_Áåçûìÿííûé_ãðàäèåíò_149" data-name="Áåçûìÿííûé ãðàäèåíò 149" x1="1938.16" y1="157.65" x2="1938.16" y2="61.99" gradientTransform="translate(-1616.54)" gradientUnits="userSpaceOnUse">
      <stop offset="0" stop-color="#fff"/>
      <stop offset="1" stop-color="#837fbb"/>
    </linearGradient>
    <linearGradient id="_Áåçûìÿííûé_ãðàäèåíò_2-4" data-name="Áåçûìÿííûé ãðàäèåíò 2" x1="1922.47" y1="212.32" x2="1922.47" y2="196.83" xlink:href="#_Áåçûìÿííûé_ãðàäèåíò_2"/>
    <linearGradient id="_Áåçûìÿííûé_ãðàäèåíò_2-5" data-name="Áåçûìÿííûé ãðàäèåíò 2" x1="1913.91" y1="366.08" x2="1913.91" y2="240.95" xlink:href="#_Áåçûìÿííûé_ãðàäèåíò_2"/>
    <linearGradient id="_Áåçûìÿííûé_ãðàäèåíò_32" data-name="Áåçûìÿííûé ãðàäèåíò 32" x1="1896.21" y1="134.49" x2="1896.21" y2="103.91" gradientTransform="translate(-1616.54)" gradientUnits="userSpaceOnUse">
      <stop offset="0" stop-color="#a54627"/>
      <stop offset="1" stop-color="#833927"/>
    </linearGradient>
    <linearGradient id="_Áåçûìÿííûé_ãðàäèåíò_3" data-name="Áåçûìÿííûé ãðàäèåíò 3" x1="1991.43" y1="243.94" x2="1991.43" y2="186.5" gradientTransform="translate(-1616.54)" gradientUnits="userSpaceOnUse">
      <stop offset="0" stop-color="#1c2446"/>
      <stop offset="1" stop-color="#0d1139"/>
    </linearGradient>
    <linearGradient id="_Áåçûìÿííûé_ãðàäèåíò_50" data-name="Áåçûìÿííûé ãðàäèåíò 50" x1="1998.64" y1="236.5" x2="1998.64" y2="229.89" gradientTransform="translate(-1616.54)" gradientUnits="userSpaceOnUse">
      <stop offset=".02" stop-color="#6d2f28"/>
      <stop offset="1" stop-color="#833927"/>
    </linearGradient>
    <linearGradient id="_Áåçûìÿííûé_ãðàäèåíò_32-2" data-name="Áåçûìÿííûé ãðàäèåíò 32" x1="1970.4" y1="263.25" x2="1970.4" y2="202.52" xlink:href="#_Áåçûìÿííûé_ãðàäèåíò_32"/>
    <linearGradient id="_Áåçûìÿííûé_ãðàäèåíò_50-2" data-name="Áåçûìÿííûé ãðàäèåíò 50" x1="2005.42" y1="224.83" x2="2005.42" y2="214.3" xlink:href="#_Áåçûìÿííûé_ãðàäèåíò_50"/>
    <linearGradient id="_Áåçûìÿííûé_ãðàäèåíò_50-3" data-name="Áåçûìÿííûé ãðàäèåíò 50" x1="2002.47" y1="232.89" x2="2002.47" y2="224.83" xlink:href="#_Áåçûìÿííûé_ãðàäèåíò_50"/>
    <linearGradient id="_Áåçûìÿííûé_ãðàäèåíò_67-2" data-name="Áåçûìÿííûé ãðàäèåíò 67" x1="1935.63" y1="116.02" x2="1935.63" y2="54.23" xlink:href="#_Áåçûìÿííûé_ãðàäèåíò_67"/>
    <linearGradient id="_Áåçûìÿííûé_ãðàäèåíò_76" data-name="Áåçûìÿííûé ãðàäèåíò 76" x1="1939.17" y1="108.32" x2="1939.17" y2="43.64" gradientTransform="translate(-1616.54)" gradientUnits="userSpaceOnUse">
      <stop offset="0" stop-color="#f48020"/>
      <stop offset=".99" stop-color="#ffc40d"/>
    </linearGradient>
    <linearGradient id="_Áåçûìÿííûé_ãðàäèåíò_50-4" data-name="Áåçûìÿííûé ãðàäèåíò 50" x1="2016.25" y1="396.33" x2="2016.25" y2="344.94" xlink:href="#_Áåçûìÿííûé_ãðàäèåíò_50"/>
    <linearGradient id="_Áåçûìÿííûé_ãðàäèåíò_2-6" data-name="Áåçûìÿííûé ãðàäèåíò 2" x1="1871.96" y1="303.52" x2="1871.96" y2="266.02" xlink:href="#_Áåçûìÿííûé_ãðàäèåíò_2"/>
    <linearGradient id="_Áåçûìÿííûé_ãðàäèåíò_3-2" data-name="Áåçûìÿííûé ãðàäèåíò 3" x1="1981.05" y1="496.64" x2="1981.05" y2="317.07" xlink:href="#_Áåçûìÿííûé_ãðàäèåíò_3"/>
    <linearGradient id="_Áåçûìÿííûé_ãðàäèåíò_195" data-name="Áåçûìÿííûé ãðàäèåíò 195" x1="1973.05" y1="389.31" x2="1973.05" y2="323.44" gradientTransform="translate(-1616.54)" gradientUnits="userSpaceOnUse">
      <stop offset=".01" stop-color="#c1c4e3"/>
      <stop offset=".98" stop-color="#516898"/>
    </linearGradient>
    <linearGradient id="_Áåçûìÿííûé_ãðàäèåíò_98-2" data-name="Áåçûìÿííûé ãðàäèåíò 98" x1="1933" y1="524.78" x2="1933" y2="330.08" xlink:href="#_Áåçûìÿííûé_ãðàäèåíò_98"/>
    <linearGradient id="_Áåçûìÿííûé_ãðàäèåíò_37-2" data-name="Áåçûìÿííûé ãðàäèåíò 37" x1="2025.13" y1="573.53" x2="2025.13" y2="559.25" xlink:href="#_Áåçûìÿííûé_ãðàäèåíò_37"/>
    <linearGradient id="linear-gradient-4" x1="2024.97" y1="569.29" x2="2024.97" y2="518.76" gradientTransform="translate(-1616.54)" gradientUnits="userSpaceOnUse">
      <stop offset="0" stop-color="#ffdd15"/>
      <stop offset="1" stop-color="#f9ec31"/>
    </linearGradient>
    <linearGradient id="_Áåçûìÿííûé_ãðàäèåíò_67-3" data-name="Áåçûìÿííûé ãðàäèåíò 67" x1="1935.65" y1="97.15" x2="1935.65" y2="89.43" xlink:href="#_Áåçûìÿííûé_ãðàäèåíò_67"/>
    <linearGradient id="_Áåçûìÿííûé_ãðàäèåíò_50-5" data-name="Áåçûìÿííûé ãðàäèåíò 50" x1="1895.62" y1="130.12" x2="1895.62" y2="115.4" xlink:href="#_Áåçûìÿííûé_ãðàäèåíò_50"/>
    <linearGradient id="_Áåçûìÿííûé_ãðàäèåíò_50-6" data-name="Áåçûìÿííûé ãðàäèåíò 50" x1="1895.7" y1="121.8" x2="1895.7" y2="113.18" xlink:href="#_Áåçûìÿííûé_ãðàäèåíò_50"/>
    <linearGradient id="_Áåçûìÿííûé_ãðàäèåíò_50-7" data-name="Áåçûìÿííûé ãðàäèåíò 50" x1="1957.42" y1="134.49" x2="1957.42" y2="128.51" xlink:href="#_Áåçûìÿííûé_ãðàäèåíò_50"/>
    <linearGradient id="_Áåçûìÿííûé_ãðàäèåíò_149-2" data-name="Áåçûìÿííûé ãðàäèåíò 149" x1="1967.3" y1="121.37" x2="1967.3" y2="96.81" xlink:href="#_Áåçûìÿííûé_ãðàäèåíò_149"/>
    <linearGradient id="_Áåçûìÿííûé_ãðàäèåíò_67-4" data-name="Áåçûìÿííûé ãðàäèåíò 67" x1="1968.79" y1="106.39" x2="1968.79" y2="93.29" xlink:href="#_Áåçûìÿííûé_ãðàäèåíò_67"/>
    <linearGradient id="_Áåçûìÿííûé_ãðàäèåíò_50-8" data-name="Áåçûìÿííûé ãðàäèåíò 50" x1="1936.1" y1="115.16" x2="1936.1" y2="103.13" xlink:href="#_Áåçûìÿííûé_ãðàäèåíò_50"/>
    <linearGradient id="_Áåçûìÿííûé_ãðàäèåíò_50-9" data-name="Áåçûìÿííûé ãðàäèåíò 50" x1="1966.7" y1="115.4" x2="1966.7" y2="105.13" xlink:href="#_Áåçûìÿííûé_ãðàäèåíò_50"/>
    <linearGradient id="_Áåçûìÿííûé_ãðàäèåíò_148-2" data-name="Áåçûìÿííûé ãðàäèåíò 148" x1="1983.66" y1="42.34" x2="1983.66" y2="39.55" xlink:href="#_Áåçûìÿííûé_ãðàäèåíò_148"/>
    <linearGradient id="_Áåçûìÿííûé_ãðàäèåíò_168" data-name="Áåçûìÿííûé ãðàäèåíò 168" x1="1939.17" y1="108.32" x2="1939.17" y2="43.64" gradientTransform="translate(-1616.54)" gradientUnits="userSpaceOnUse">
      <stop offset="0" stop-color="#837fbb"/>
      <stop offset="1" stop-color="#fcdacb"/>
    </linearGradient>
    <linearGradient id="_Áåçûìÿííûé_ãðàäèåíò_50-10" data-name="Áåçûìÿííûé ãðàäèåíò 50" x1="1994.37" y1="229.89" x2="1994.37" y2="226" xlink:href="#_Áåçûìÿííûé_ãðàäèåíò_50"/>
    <linearGradient id="_Áåçûìÿííûé_ãðàäèåíò_50-11" data-name="Áåçûìÿííûé ãðàäèåíò 50" x1="1995.32" y1="235.77" x2="1995.32" y2="233.94" xlink:href="#_Áåçûìÿííûé_ãðàäèåíò_50"/>
    <linearGradient id="_Áåçûìÿííûé_ãðàäèåíò_2-7" data-name="Áåçûìÿííûé ãðàäèåíò 2" x1="1864.08" y1="304.5" x2="1864.08" y2="303.52" xlink:href="#_Áåçûìÿííûé_ãðàäèåíò_2"/>
    <linearGradient id="_Áåçûìÿííûé_ãðàäèåíò_195-2" data-name="Áåçûìÿííûé ãðàäèåíò 195" x1="1929.92" y1="510.16" x2="1929.92" y2="330.49" xlink:href="#_Áåçûìÿííûé_ãðàäèåíò_195"/>
    <linearGradient id="_Áåçûìÿííûé_ãðàäèåíò_2-8" data-name="Áåçûìÿííûé ãðàäèåíò 2" x1="1998.57" y1="524.78" x2="1998.57" y2="512.89" xlink:href="#_Áåçûìÿííûé_ãðàäèåíò_2"/>
    <linearGradient id="_Áåçûìÿííûé_ãðàäèåíò_195-3" data-name="Áåçûìÿííûé ãðàäèåíò 195" x1="2037.37" y1="325.66" x2="2037.37" y2="325.16" xlink:href="#_Áåçûìÿííûé_ãðàäèåíò_195"/>
    <clipPath id="clippath">
      <path class="cls-62" d="m349.98,140.58s-3.28,4.25-5.03,5.76,1.52,2.96-2.6,5.34-6.6,1.14-6.6,1.14l-9.94-3.73-2.48-6.21,4.97-4.97h16.15s5.53,2.67,5.53,2.67Z"/>
    </clipPath>
    <radialGradient id="radial-gradient" cx="243.93" cy="775.54" fx="243.93" fy="775.54" r="84.95" gradientTransform="translate(647.9 -638.87) rotate(27.1)" gradientUnits="userSpaceOnUse">
      <stop offset="0" stop-color="#000057"/>
      <stop offset=".39" stop-color="#7474a4" stop-opacity=".54"/>
      <stop offset=".79" stop-color="#d8d8e5" stop-opacity=".15"/>
      <stop offset="1" stop-color="#fff" stop-opacity="0"/>
    </radialGradient>
    <linearGradient id="Degradado_sin_nombre_8" data-name="Degradado sin nombre 8" x1="261.28" y1="700.25" x2="177.63" y2="783.89" gradientTransform="translate(1274.73 202.92) rotate(112.5)" gradientUnits="userSpaceOnUse">
      <stop offset="0" stop-color="#00fb73"/>
      <stop offset="1" stop-color="#00b25b"/>
    </linearGradient>
    <radialGradient id="radial-gradient-2" cx="-345.7" cy="141.55" fx="-345.7" fy="141.55" r="76.3" gradientTransform="translate(422)" xlink:href="#radial-gradient"/>
    <linearGradient id="linear-gradient-5" x1="-400.99" y1="74.46" x2="-327.61" y2="147.84" gradientTransform="translate(422)" gradientUnits="userSpaceOnUse">
      <stop offset="0" stop-color="#1677f1"/>
      <stop offset=".18" stop-color="#176ee9"/>
      <stop offset=".46" stop-color="#1d55d3"/>
      <stop offset=".82" stop-color="#252eb0"/>
      <stop offset="1" stop-color="#2b189c"/>
    </linearGradient>
    <radialGradient id="radial-gradient-3" cx="-23.82" cy="364.03" fx="-23.82" fy="364.03" r="108.62" gradientTransform="translate(158.43)" xlink:href="#radial-gradient"/>
    <linearGradient id="linear-gradient-6" x1="-102.53" y1="268.53" x2="1.93" y2="372.99" gradientTransform="translate(158.43)" xlink:href="#linear-gradient-5"/>
    <linearGradient id="linear-gradient-7" x1="-49" y1="396.47" x2="-49" y2="244.16" gradientTransform="translate(158.43)" gradientUnits="userSpaceOnUse">
      <stop offset="0" stop-color="#0093d4"/>
      <stop offset="1" stop-color="#00b0e5"/>
    </linearGradient>
  </defs>
  <g class="cls-58">
    <g id="Layer_2" data-name="Layer 2">
      <g id="Layer_1-2" data-name="Layer 1">
        <g>
          <path class="cls-19" d="m385.94,354.79l-9.85,3.06s-11.56-23.64-20.45-45.44l-.02-.03c-4.13-10.1-7.67-19.79-9.24-26.57-4.96-21.39-5.52-42.25-9.5-55.92-3.98-13.66,5.94-63.71,12.88-65.89,0,0,9.77,6.54,11.53,19.21,1.74,12.67-2.16,59.04,0,70.53.8,4.23,1.88,6.54,3.23,8.83v.02c2.31,3.91,5.32,7.79,8.81,21.27,5.55,21.39,12.61,70.93,12.61,70.93Z"/>
          <path class="cls-43" d="m364.51,262.6s-13.43,21.66-11.04,40.92l2.15,8.86c-4.13-10.1-7.67-19.79-9.24-26.57-4.96-21.39-5.52-42.25-9.5-55.92-3.98-13.66,5.94-63.71,12.88-65.89,0,0,9.77,6.54,11.53,19.21,1.74,12.67-2.16,59.04,0,70.53.8,4.23,1.88,6.54,3.23,8.83v.02Z"/>
          <path class="cls-28" d="m367.77,51.26c-.39,6.35-10.43,17.47-10.43,17.47l-2.34,4.16-10.31.77-35.1,27.34-10.67,33.49-2.32,25.82-.34-.13-.77-.28-.34-.13-.6-.22-1.13-.42c-.09.09-.19.19-.28.25-.06.06-.14.13-.2.17-1.13.96-4.13,3.36-7.95,5.54-.19.11-.36.2-.53.3-.2.11-.38.2-.56.3-.27.14-.5.27-.72.39-.14.06-.28.13-.39.19-.16.08-.28.14-.38.19-.16.08-.27.13-.31.14l-.02.02c-6.87,3.26-15.32,4.8-20.88-2.81-10.48-14.37-.44-30.99-.02-31.68-.16.08-.31.14-.45.22-.08.05-.17.08-.25.11-1.46.63-5.03,1.94-9.33,1.79h-.05c-3.65-.14-7.84-1.35-11.7-4.91-9.9-9.11-6.73-30.11-6.73-30.11-5.55-1.98-10.3-22.19,4.75-38.04,2.26-2.37,4.47-4.53,6.62-6.49h.02c1.24-1.15,2.45-2.21,3.62-3.2.05-.03.08-.05.11-.09,9.54-8.05,16.88-11.79,17.99-12.31.03-.03.06-.05.09-.06.03-.02.05-.03.05-.03,0,0-6.31-3.17-1.94-6.73,4.34-3.58,10.29-.8,10.29-.8,0,0,2.38-18.62,17.44-23.37,7.7-2.43,13.8-1.76,17.91-.5l.02.02h.03c3.65,1.1,5.74,2.65,5.98,2.84l.03.02s-.6-11.89,12.88-10.3c5.14.6,10.04,4.44,14.13,8.94l.03.03s0,.02.02.03c5.74,6.32,9.88,13.93,10.9,15.87.06.14.13.25.16.33.06.11.08.16.08.16,10.27-5.54,8.94,8.72,8.94,8.72,0,0,2.6-3.97,5,0,2.34,3.86-4.83,16.33-5.22,17l-.02.03s5.62-6.34,5.21,0Z"/>
          <path class="cls-7" d="m367.77,51.26c-.39,6.35-10.43,17.47-10.43,17.47l-2.34,4.16-10.31.77-35.1,27.34-10.67,33.49-2.32,25.82-.34-.13-.77-.28-.34-.13-.6-.22-1.13-.42c-.09.09-.19.19-.28.25-.06.06-.14.13-.2.17-2.37,2.24-5.62,4.25-7.95,5.54-.19.11-.36.2-.53.3-.2.11-.38.2-.56.3-.27.14-.5.27-.72.39-.14.06-.28.13-.39.19-.16.08-.28.14-.38.19-.16.08-.27.13-.31.14.2-.3,3.26-4.88-2.42-19.18-5.88-14.81-10.56-17.28-10.56-17.28l-7.92,1.98s-.02,0-.02.02c-.16.08-.31.14-.45.22-.08.05-.17.08-.25.11-4.82,2.27-8.05,2.05-9.33,1.79h-.05c-.39-.08-.6-.16-.6-.16,11.87-4.96,16.03-16.03,16.03-16.03l12.56-12.91s4.09-20.48-3-20.01c-7.09.47-10.18,9.33-10.18,9.33,1.27,7.83-4.42,15.81-4.42,15.81,0,0,1.77-7.78-1.79-15.21-3.56-7.43-13.08-8.63-13.08-8.63,10.1-1.77,14.87,3,14.87,3,7.12-5.33,17.54-19.93,8.91-27.92-8.45-7.86-25.72-6.87-26.35-6.82,1.03-1.02,2.27-2.1,3.62-3.2.05-.03.08-.05.11-.09,6.87-5.52,16.69-11.53,17.99-12.31.03-.03.06-.05.09-.06.03-.02.05-.03.05-.03,0,0,2.7,1.1,4.78-1.58,2.09-2.67,3.56-5.94,3.56-5.94l-.3,8.33c-.3,8.31,1.49,21.1,10.02,21.69,8.53.6,12.27-7.43,11.09-12.48-1.19-5.05-2.98-6.54-2.98-6.54l-8.11,1.21c5.85-5.35,9.44-15.17,9.44-15.17l-1.63,9.8s6.24,4.75,14.13.89c7.89-3.86,13.8-3.86,10.24-16.64-3.34-12-6.2-14.68-6.54-14.95h.03l5.98,2.84.03.02c5.14,14.67,18.26,23.4,18.26,23.4,0,0,8.39,1.76,11.76-6.85,3.2-8.19-2.4-16.99-2.96-17.85t-.02-.03c5.43,6.9,9.9,13.74,10.92,15.9.06.14.13.25.16.33.06.11.08.16.08.16,0,0-8.56,13.38-4.31,15.17,4.14,1.73,12.75-5.99,13.24-6.43-.42.6-9.03,12.97-3.56,13.55,3.47.36,5.91-2.9,7.28-5.46l-3.92,8.89-.02.03s-6.29,8.42-1.62,7.23c4.66-1.18,6.82-7.23,6.82-7.23Z"/>
          <g>
            <path class="cls-4" d="m306.13,545.59s-9.13,13.66,27.46,6.17c19.43-3.98,39.83-32.92,39.83-32.92l-5.17-11.09-62.12,37.85Z"/>
            <path class="cls-18" d="m370.12,485.76s-9.87,7.78-21.36,17.29c-11.49,9.51-43.38,39.23-43.29,44.38.1,5.15,23.47,6.34,36.95,0,13.47-6.34,15.65-12.68,21.6-19.42,5.94-6.74,10.5-8.87,13.67-14.34,3.17-5.47,3.15-16.17,3.15-16.17l-10.72-11.74Z"/>
          </g>
          <path class="cls-51" d="m334.71,271.83c-1.29,6.53-1.99,13.54-1.3,18.76.33,2.43,1.57,5.79,3.33,9.55l.02.02s.05.11.11.24c.28.66.61,1.33.96,2.01,4.8,9.68,12.23,21.28,16.05,27.06,1.49,2.27,2.43,3.64,2.43,3.64,0,0-.86-.06-2.43-.19-9.65-.71-45.83-3.09-68.6-1.3-26.44,2.09-44.37,30.02-44.37,30.02l1.88-6.54s-2.38-.6-1.79-2.38c.6-1.77,6.54-6.54,6.54-6.54,0,0,2.98-13.96,17.54-30.3,14.55-16.34,20.5-27.93,20.5-34.77,0-5.79-6.59-27.76-11.86-41.6-.96-2.53-1.87-4.77-2.7-6.6-5.35-11.95-12.78-39.46-12.78-39.46,1.43-2.13,3.64-4.45,6.52-6.93,0,0,.02-.02.05-.05,4.38-3.75,10.27-7.87,17.28-12.34,11.68-7.43,18.65-7.51,18.65-7.51,0,0,2.67-1.69,18.38-2.59,8.81-.5,17.39-.44,23.21-.28,4.56.11,7.43.28,7.43.28,0,0,.89,16.05,4.11,28.23,3.23,12.19,8.12,26.27,6.29,37.66-1.69,10.56-14.54,18.57-19.01,23.61-.36.41-.66.78-.89,1.15-1.77,2.65-4.05,9.6-5.54,17.19Z"/>
          <path class="cls-2" d="m342.32,163.72c-.53,1.52-6.7,17.38-34.29,26.43-29,9.5-43.29-3.65-43.29-3.65,0,0,.02-.02.05-.05,4.38-3.75,10.27-7.87,17.28-12.34,11.68-7.43,18.65-7.51,18.65-7.51,0,0,2.67-1.69,18.38-2.59,8.81-.5,17.39-.44,23.21-.28Z"/>
          <path class="cls-17" d="m325.79,165.98s0,12.28-13.47,14.07c-13.47,1.79-20.41-10.76-20.41-10.76,0,0,4.76-1.73,4.95-5.29.14-2.35-1.38-12.8-2.43-19.72-.11-.75-.22-1.44-.33-2.1l-.13-.8c-.08-.52-.16-.99-.22-1.4l-.31-1.99,23.64,11.94s-.3,2.51,1.02,6.93c.2.71.45,1.46.75,2.26.93,2.48,2.32,4.09,3.62,5.11.11.09.17.14.17.14,1.68,1.29,3.15,1.6,3.15,1.6Z"/>
          <path class="cls-27" d="m322.63,164.38c-18.62.66-27.78-19.12-28.22-20.09-.02-.02-.02-.03-.02-.03l-.31-2.07-.13-.8-.22-1.4-.31-1.99,24.66,18.87c.2.71.45,1.46.75,2.26.93,2.48,2.32,4.09,3.62,5.11.11.09.17.14.17.14Z"/>
          <path class="cls-48" d="m395.91,187.18l-2.58-4.75s-19.22-.59-34.47,2.38c0,0-5.94,37.64-6.74,55.28l3.17,2.18s4.75-43.79,6.74-53.29c0,0,13.47-2.58,33.88-1.78Z"/>
          <path class="cls-29" d="m355.49,109.91c-1.98,8.33,1.99,13.88,0,21-1.98,7.14-11.34,16.91-19.04,23.43-4.72,4-12.85,6.09-22.41,1.41-8.45-4.14-21.94-15.73-27.48-29.6-2.4-5.99-3.54-13.91-3.12-22.18.52-10.87,3.72-22.37,10.24-30.91,11.5-15.06,38.05-26.95,61.81-10.3,0,0,.24.71.63,1.93v.02c1.71,5.41,6.21,20.67,4.92,27.78-1.58,8.72-3.56,9.11-5.55,17.43Z"/>
          <path class="cls-24" d="m359.16,75.61s-20.61-7.6-36.85-1.66c-16.25,5.94-16.38,23.2-16.38,23.2,0,0,16-5.05,25.3-5.8,0,0,4.02,17.82,1.31,27.85,0,0-9.6,7.61-22.95-3.07,0,0-5.03,5.5-3.69,18.36,1.34,12.87,13.19,23.16,13.19,23.16,0,0-19.08-6.45-29.88-25.28-10.8-18.83-2.19-57.24,4.21-64.37,6.4-7.13,52.12-7.5,62.69-3.31,0,0,2.13,6.78,3.04,10.91Z"/>
          <path class="cls-45" d="m273.09,196.83s25.15,12.15,41.11,11.4c12.22-.57,24.57-9.58,24.57-9.58,0,0-11.94,12.73-24.99,13.63-13.05.9-40.69-15.45-40.69-15.45Z"/>
          <path class="cls-32" d="m353.86,333.91v3.45c-9.65-.71-45.83-3.09-68.6-1.3-26.44,2.09-44.37,30.02-44.37,30.02l1.88-6.54s-2.38-.6-1.79-2.38c.6-1.77,6.54-6.54,6.54-6.54,0,0,2.98-13.96,17.54-30.3,14.55-16.34,20.5-27.93,20.5-34.77,0-5.79-6.59-27.76-11.86-41.6l.27-3,8.41,3.28s8.97,18.07,18.35,19.32c9.38,1.27,49.63-14.86,49.63-14.86l-9.21,9.26-.89,1.15c-1.77,2.65-4.05,9.6-5.54,17.19-3.29,2.1-12.75,7.95-28.8,16.39-20.36,10.7-26.82,28.86-26.82,28.86,0,0,37.5,7.72,52.83,5.08-3.36.64-34.44,6.27-55.82-2.45l-1.84,8.03s51.35,5.8,61.61-2.34c7.98-6.34,4.06-18.1,1.94-23.01,4.8,9.68,12.23,21.28,16.05,27.06Z"/>
          <path class="cls-36" d="m290.45,111.5s-9.31-12.09-20.21-5.75c-10.9,6.34,1.19,26.94,10.1,28.53,8.92,1.59,13.08-6.54,13.08-6.54,0,0,.2-7.93-2.97-16.25Z"/>
          <path class="cls-33" d="m353.87,241.47s3.87-43.99,7.4-53.3c0,0,22.56-2.97,34.64-.99l-14.86,54.29s-18.91,5.56-27.19,0Z"/>
          <path class="cls-3" d="m383.21,236.5s2.85-2.5,2.73-5.61c-.12-3.1-6.66,1.99-6.66,1.99l-.99,3.62h4.93Z"/>
          <path class="cls-20" d="m390.03,224.29l-.45.53-1.79,1.58s-1.19,2.18-3.36,4.55c-.75.83-1.47,1.46-2.09,1.91l-.05.02c-1.1.8-1.84,1.05-1.84,1.05,0,0,3.31-.11,2.74,2.56-.82,3.81-18.08,9.33-29.33,11.51-11.26,2.16-13.44,1.77-17,2.76-3.56,1-19.21,12.49-19.21,12.49,0,0,.19-8.52-1.99-12.49,0,0,9.11-3.56,11.1-6.73,1.98-3.17.99-22.19,3.95-24.97,2.98-2.78,12.3-5.54,17.44-9.71,5.14-4.16,7.73-7.53,9.11-6.73,1.38.78.8,8.52-2.18,11.29-2.96,2.78-7.14,1.98-9.71,3.56-2.57,1.58-2.96,4.75-2.96,4.75,0,0,18.02-2.96,23.37-4.75,5.35-1.77,7.34-5.94,13.08-8.52,5.74-2.57,11.29-2.78,12.08-1.58.8,1.19-8.52,6.74-13.07,9.71-4.56,2.96-9.91,5.55-9.91,5.55,0,0,10.1-1.58,14.07-2.59,1.82-.44,2.95-1.05,3.65-1.58l.02-.03c.85-.63,1.08-1.14,1.08-1.14,0,0,1.88-3.97,4.2-2.78,2.13,1.08.67,7.47-.97,9.77Z"/>
          <path class="cls-46" d="m390.03,224.29l-.45.53c1.38-5.55-3.87-6.35-3.87-6.35l.02-.03c.85-.63,1.08-1.14,1.08-1.14,0,0,1.88-3.97,4.2-2.78,2.13,1.08.67,7.47-.97,9.77Z"/>
          <path class="cls-41" d="m389.57,224.83l-1.79,1.58s-1.19,2.18-3.36,4.55c-.75.83-1.47,1.46-2.09,1.91l-.05.02c2.82-3.43,2.53-6.89,2.53-6.89l4.75-1.18Z"/>
          <path class="cls-30" d="m356.12,64.69v.02s-6.57,2.81-17.66,2.81c-11.09,0-24.56-6.34-36.06,0-11.5,6.34-13.47,20.61-10.7,30.91,2.78,10.31.18,17.59.18,17.59,0,0-1.43-4.52-4.34-7.69-2.75-2.99-5.46-3.28-5.46-3.28.52-10.87,3.89-25.02,10.42-33.57,11.5-15.06,39.24-25.36,63-8.72,0,0,.24.71.63,1.93Z"/>
          <path class="cls-52" d="m361.28,73.85l-2.12,1.76-1.29-4.92c-4.75-13.47-21.39-22.59-45.56-11.48-24.17,11.09-24.77,49.12-24.77,49.12l-3.54-2.65c-.74-41.99,23.04-60.26,45.52-61.94,4.34-.33,8.11.27,11.37,1.47,16.17,5.94,20.11,27.04,20.37,28.55,0,.03.02.06.02.09Z"/>
          <path class="cls-10" d="m325.19,260.35s-18.23,12.41-35.76,23.42c-17.54,10.99-39.23,22.29-41.61,20.5-.17-.13-.36-.31-.55-.56v-.02c-.36-.45-.75-1.1-1.14-1.9-2.21-4.45-4.85-13.98-4.31-24.67.06-1.38.19-2.79.36-4.2,1.99-15.45,9.8-37.89,10.99-48.09,1.19-10.2,0-17.74,0-19.83s5.05-11.58,5.05-11.58c30.62,8.91,26.16,44.58,24.15,46.35-1.99,1.79-4.53-1.47-4.53-1.47-8.92,10.7-7.11,27.71-7.11,27.71,0,0,5.03-4.55,19.73-8.11,14.7-3.56,28.64-8.99,28.64-8.99,4.71-.66,6.09,11.43,6.09,11.43Z"/>
          <path class="cls-14" d="m375.34,347.32s2.18,6.74,2.18,9.51-3.96,7.13-4.36,11.89c-.4,4.76,6.56,15.95,9.8,27.04l6.31.57s1.72-4.24-2.64-10.18c-4.36-5.94-3.64-9.11-3.64-9.11,0,0,5.22,3.17,15.92,9.11,10.7,5.94,23.77,7.53,24.96,7.13,1.19-.4-3.57-3.57-3.57-3.57,0,0,4.76,2.38,5.94.79,1.19-1.58-32.26-23.38-37.13-32.1-4.87-8.72-6.13-13.47-6.13-13.47l-7.66,2.38Z"/>
          <path class="cls-11" d="m269.12,266.02s-16.11,9.96-19.86,25.6c-1.75,7.29-2.25,10.52-2.28,11.9-.28-.41-.67-1-1.1-1.73-2.09-4.45-4.58-13.98-4.07-24.67,0-.02.01-.02.01-.03,6.25-10.63,7.81-5.51,7.81-5.51,0,0,11.3-5.58,19.49-5.57Z"/>
          <path class="cls-22" d="m412.16,432.05c-13.87,35.27-23.78,53.5-23.78,53.5,0,0,4.2-.39,3.69,3.95-.52,4.36-6.13,7.14-6.13,7.14l-12.22-3.95-1.58-7.53s10.7-25.77,15.46-46.36c4.03-17.47,3.09-37.52,3.86-49.49.14-2.15.33-4.03.61-5.6,1.87-10.3,3.91-27.51,3.91-27.51,0,0-30.96,8.25-47.21,16.81-16.25,8.56-28.03,17.68-50.66,19.14-12.03.78-10.29-13.61-3.91-28.4,5.63-13.07,14.88-26.43,21.47-29.96,0,0,16.61-5.72,37.09-10.35,11.4-2.57,24.01-4.8,35.62-5.51,32.5-1.98,50.11-.44,51.12,3.58,2.78,11.09-13.47,75.29-27.34,110.55Z"/>
          <path class="cls-26" d="m418.83,325.66c-2.79,1.1-6.65,4.44-10.4,13.68-4.28,10.62-11.83,33.75-16.97,49.97.14-2.15.33-4.03.61-5.6,1.87-10.3,3.91-27.51,3.91-27.51,0,0-30.96,8.25-47.21,16.81l-51.4,7.42-3.17-16.69c5.63-13.07,14.88-26.43,21.47-29.96,0,0,16.61-5.72,37.09-10.35.82.8,1.91,1.47,3.36,1.98,9.1,3.18,49.7,1.03,62.71.25Z"/>
          <path class="cls-9" d="m374.13,524.78v-2.78s-1.08-.41-2.13-1.38c-.75-.69-1.51-1.66-1.84-2.98-.74-2.98,3.44-7.03,3.92-7.48.03-.03.05-.05.05-.05,0,0-33.28-70.53-35.67-95.1-2.38-24.56,1.19-45.56,1.19-45.56,0,0-28.6,18.26-43.98,23.76-4.55,1.63-39.43,2.54-46.36-5.93-9.26-11.32-8.42-25.66-8.42-25.66,7.43-13.38,20.7-26.65,52.03-30.46,2.35-.28,4.77-.5,7.25-.67h.09c30.58-2.09,69.28,4.17,71.1,10.02.42,1.36.72,3.8.96,7.21,0,0,0,.08.02.22,0,.08,0,.17.02.28.27,3.91.45,9.02.67,15.21.39,10.79.86,24.86,1.96,41.58.02.2.02.41.03.58.02.25.03.52.05.77.02.22.02.38.03.49.02.17.03.39.05.69.02.2.03.39.05.6.27,4,.56,8.12.91,12.42.61,7.76,1.52,15.86,2.59,23.89.02.13.03.25.05.36.03.2.05.38.08.52.02.03.02.08.02.11.02.19.03.28.03.28,3.89,28.91,9.74,57.12,12.14,68.2.67,3.15,1.08,4.91,1.08,4.91-6.23,1.19-17.94,5.94-17.94,5.94Z"/>
          <g>
            <path class="cls-12" d="m370.95,559.25l1.04,6.34s31.45,8.32,49.68,7.92c18.23-.4,24.57-2.38,24.57-2.38v-3.96s-75.29-7.92-75.29-7.92Z"/>
            <path class="cls-1" d="m374.12,524.78s-4.76,11.09-3.17,34.47c0,0,7.54,3.17,31.71,7.92,24.16,4.75,43.58,0,43.58,0,0,0-.79-8.42-9.11-12.38-8.32-3.96-34.64-12.58-45.06-35.96,0,0-11.21-1.19-17.95,5.94Z"/>
          </g>
          <path class="cls-15" d="m305.93,97.15s12.86-7.43,26.36-7.73c0,0-.47,1.78-2.85,3.86-2.38,2.08-12.24.59-23.51,3.86Z"/>
          <path class="cls-6" d="m276.29,115.4s-1.85,6.79,5.79,14.72c0,0-4.01-8.42-1.65-13.52l-4.14-1.2Z"/>
          <path class="cls-5" d="m289.22,121.8s-6.63-12.28-20.1-7.53c0,0,13.65.79,20.1,7.53Z"/>
          <path class="cls-37" d="m332.22,130.12s12.68-3.62,17.33,0c0,0-3.37,4.17-7.92,4.37-4.56.19-9.4-4.37-9.4-4.37Z"/>
          <path class="cls-16" d="m333.93,131.5s3.19-.7,4.75,2.53c0,0-1.95.64-4.75-2.53Z"/>
          <path class="cls-47" d="m349.55,98.55s-7.92,11.24-7.73,16.85c.2,5.61,5.86,10.76,5.86,10.76,0,0-5.16-5.19-4.07-12.48,1.09-7.29,5.18-11.46,5.18-11.46l.76-3.67Z"/>
          <path class="cls-34" d="m349.55,98.55s-8.93,10.93-6.89,20.48c0,0,10.35,4.64,12.69.85,0,0-.89-7.69.76-12.35,1.65-4.65,3.04-8.11,3.04-8.11,0,0-3.87-5.25-9.61-.88Z"/>
          <path class="cls-21" d="m359.64,98.15c.04-.11,1.62-7.95-6.03-3.5-4.45,2.59-8.92,11.74-8.92,11.74,0,0,6.68-8.04,11.42-8.11,4.74-.07,2.55,2.47,2.55,2.47l.97-2.6Z"/>
          <path class="cls-31" d="m311.19,114.64s3.71,4.62,8.89,5.21,6.96-5.21,6.96-5.21h-15.85Z"/>
          <path class="cls-31" d="m344.7,115.4h9.17s-1.09,4.63-4.58,5.25c-3.49.62-4.58-5.25-4.58-5.25Z"/>
          <path class="cls-40" d="m309.6,114.64s4.16-11.16,11.89-11.5c7.73-.34,8.03,11.5,8.03,11.5,0,0-14.17,1.19-19.92,0Z"/>
          <path class="cls-50" d="m344.7,115.4s2.87-10.82,7.43-10.24c4.56.57,3.37,10.24,3.37,10.24h-10.8Z"/>
          <path class="cls-35" d="m320.99,115.25s-1.88,4.43-.92,4.59c1.68.28,4.99.47,7.06-4.05,0,0-5.06-.5-6.15-.55Z"/>
          <path class="cls-35" d="m348.57,116.13s-.97,4.54,0,4.6c2.07.14,4-1.14,4.9-4.12l-4.9-.48Z"/>
          <path class="cls-35" d="m309.6,114.64s5.94,4.32,22.78,3.04l-3.05-5.01-.22.94s-5.05,1.86-19.52,1.03Z"/>
          <path class="cls-35" d="m344.7,115.4s8.35,4.66,15.11,3.43l-4.17-5.4-.09,1.41s-7.29.42-10.85.56Z"/>
          <path class="cls-39" d="m367.74,39.55c-.11.33-.53,1.46-1.24,2.79l1.24-2.79Z"/>
          <path class="cls-49" d="m361.28,73.85l-2.12,1.76-1.29-4.92c-4.75-13.47-21.39-22.59-45.56-11.48-24.17,11.09-24.77,49.12-24.77,49.12l-3.54-2.65c-.74-41.99,23.04-60.26,45.52-61.94,4.34-.33,8.11.27,11.37,1.47,0,0-25.02-2.16-40.17,13.88-15.17,16.05-14.27,34.21-14.27,34.21,0,0,.05-15.65,11.34-28.26l-4.36,10.96s8.96-18.08,32.94-24.62c23.86-6.51,33.53,17.06,34.9,22.38,0,.03.02.06.02.09Z"/>
          <polygon class="cls-25" points="384.82 226 370.85 229.89 384.82 227.71 384.82 226"/>
          <path class="cls-38" d="m380.46,233.94l-5,1.83s5.52-.76,6.65-1.52l-1.65-.31Z"/>
          <path class="cls-42" d="m247.27,303.69s0-.11.02-.17c.33.49.53.75.53.75,0,0-.55.78-.55-.56v-.02Z"/>
          <path class="cls-23" d="m374.08,510.16s.05-.05.05-.05c0,0-33.28-70.53-35.67-95.1-2.38-24.56,1.19-45.56,1.19-45.56,0,0-27.88,20.97-43.98,23.76-5.38.93-38.06,3.48-46.36-5.93-9.68-10.96-8.42-25.66-8.42-25.66,7.43-13.38,20.7-26.65,52.03-30.46,2.35-.28,4.77-.5,7.25-.67-10.41,1.32-37.63,6.09-46.99,21.03,0,0,7.51.58,47.29,0,39.79-.6,49.78-8.63,49.78-8.63,0,0,3.58,3.26,10.3,5.35,6.74,2.09,11.76-.52,11.76-.52,0,0,0,.08.02.22,0,.08,0,.17.02.28.06,1.73.33,7.7.67,15.21.69,14.65,1.63,35.16,1.96,41.58.02.2.02.41.03.58.02.25.03.52.05.77.02.22.02.38.03.49.02.17.03.39.05.69.02.2.03.39.05.6.27,4,.56,8.12.91,12.42.61,7.76,1.52,15.86,2.59,23.89-1.16-8.01-7.47-51.59-9.9-56.56-2.68-5.47-11.29,6.12-11.89,24.84-.6,18.71,19.2,94.5,19.2,94.5,0,0,6.51-1.6,9.85-1.49,0,0-6.7.77-11.86,4.41Z"/>
          <path class="cls-8" d="m374.13,524.78v-2.78s-1.08-.41-2.13-1.38h2.13s4.5-5.55,10.4-7.43c2.05-.66,4.36-.17,6.46.74.67,3.15,1.08,4.91,1.08,4.91-6.23,1.19-17.94,5.94-17.94,5.94Z"/>
          <path class="cls-44" d="m422.84,325.41s-1.49.09-4.02.25c2.42-.96,4.02-.25,4.02-.25Z"/>
        </g>
        <g class="cls-61">
          <image width="199" height="89" transform="translate(350.67 140.56) rotate(-176.69) scale(.12 -.15)" xlink:href="../Vector Smart Object.png"/>
        </g>
        <g>
          <circle class="cls-55" cx="511.7" cy="162.64" r="84.95"/>
          <circle class="cls-64" cx="505.16" cy="121.69" r="59.15" transform="translate(343.31 615.46) rotate(-85.4)"/>
          <path class="cls-56" d="m461.47,136.93l12.77-14.13c-.19-5.76,1.07-11.45,3.68-16.55,8.53-16.68,29.05-23.3,45.72-14.76,16.68,8.53,23.3,29.05,14.76,45.72-8.53,16.68-29.05,23.3-45.72,14.76-5.01-2.56-9.3-6.36-12.5-11.02l-18.72-4.02Zm22.68-1.7l.72,1.15c2.65,4.22,6.36,7.63,10.75,9.88,13.52,6.92,30.16,1.55,37.08-11.97,6.92-13.52,1.55-30.16-11.97-37.08-13.52-6.92-30.16-1.55-37.08,11.97-2.29,4.47-3.3,9.5-2.92,14.55l.1,1.37-7.13,7.89,10.46,2.24Z"/>
          <path class="cls-13" d="m517.26,131.69c-.86-1.38-2.06-3.04-3.83-3.19-1.36-.12-2.98,1.28-4.17,1.8-.61.27-1.09.11-1.55-.41-3.36-3.84-5.16-8.32-5.5-13.4-.09-.81.23-1.25.99-1.56,1.13-.47,2.49-.96,3.26-1.98.76-1.02.91-2.59.95-3.82.06-1.57.33-3.72-.58-5.09-.83-1.26-2.56-1.68-4.04-1.36-2.55.54-4.59,2.4-5.73,4.69-.32.65-.57,1.34-.74,2.04-.41,1.69-.43,3.44-.33,5.18.07,1.31.22,2.61.43,3.9.69,4.22,2.13,8.33,4.37,11.99,1.12,1.83,2.42,3.6,3.93,5.12,1.69,1.71,3.14,3.34,5.55,4.05,2.52.74,5.52.48,7.56-1.27.61-.52,1.11-1.18,1.32-1.95.42-1.59-1.08-3.44-1.89-4.72Z"/>
        </g>
        <g>
          <circle class="cls-53" cx="76.3" cy="141.55" r="76.3"/>
          <g>
            <path class="cls-60" d="m109.58,111.15c0-28.66-23.23-51.89-51.89-51.89-28.66,0-51.89,23.23-51.89,51.89,0,25.9,18.97,47.36,43.78,51.26v-36.26h-13.17v-15h13.17v-11.43c0-13,7.75-20.19,19.6-20.19,5.68,0,11.61,1.01,11.61,1.01v12.77h-6.54c-6.45,0-8.46,4-8.46,8.1v9.73h14.39l-2.3,15h-12.09v36.26c24.8-3.89,43.78-25.36,43.78-51.26Z"/>
            <path class="cls-56" d="m77.9,126.15l2.3-15h-14.39v-9.73c0-4.1,2.01-8.1,8.46-8.1h6.54v-12.77s-5.94-1.01-11.61-1.01c-11.85,0-19.6,7.18-19.6,20.19v11.43s-13.17,0-13.17,0v15h13.17v36.26c2.64.41,5.35.63,8.11.63s5.47-.22,8.11-.63v-36.26h12.09Z"/>
          </g>
        </g>
        <g>
          <path class="cls-54" d="m243.23,364.03c0,59.99-48.63,108.62-108.62,108.62-59.99,0-108.62-48.63-108.62-108.62s48.63-108.62,108.62-108.62c59.99,0,108.62,48.63,108.62,108.62Z"/>
          <g>
            <path class="cls-57" d="m182,320.76c0-40.8-33.07-73.87-73.87-73.87-40.8,0-73.87,33.07-73.87,73.87,0,36.87,27.01,67.43,62.33,72.97v-51.62h-18.75s0-21.35,0-21.35h18.75v-16.27c0-18.51,11.03-28.74,27.9-28.74,8.08,0,16.54,1.44,16.54,1.44v18.18h-9.31c-9.18,0-12.04,5.69-12.04,11.54v13.86h20.49l-3.27,21.35h-17.21v51.62c35.31-5.54,62.33-36.1,62.33-72.97Z"/>
            <path class="cls-56" d="m136.89,342.12l3.27-21.35h-20.49v-13.86c0-5.84,2.86-11.54,12.04-11.54h9.31v-18.18s-8.45-1.44-16.54-1.44c-16.87,0-27.9,10.23-27.9,28.74v16.27h-18.75v21.35h18.75s0,51.62,0,51.62c3.76.59,7.62.9,11.54.9s7.78-.31,11.54-.9v-51.62h17.21Z"/>
          </g>
        </g>
        <g>
          <path class="cls-63" d="m185.59,320.31c0-42.06-34.1-76.16-76.16-76.16-42.06,0-76.16,34.1-76.16,76.16s34.1,76.16,76.16,76.16c42.06,0,76.16-34.1,76.16-76.16Z"/>
          <path class="cls-59" d="m84.83,325.88l9.04,25.01s1.13,2.34,2.34,2.34,19.2-18.72,19.2-18.72l20.01-38.64-50.26,23.56-.32,6.45Z"/>
          <path class="cls-65" d="m96.81,332.29l-1.73,18.43s-.73,5.65,4.92,0c5.65-5.65,11.05-10,11.05-10l-14.24-8.43Z"/>
          <path class="cls-56" d="m84.99,326.77l-18.58-6.06s-2.22-.9-1.51-2.94c.15-.42.44-.78,1.33-1.4,4.12-2.87,76.22-28.79,76.22-28.79,0,0,2.04-.69,3.24-.23.55.21.9.44,1.2,1.3.11.31.17.98.16,1.64,0,.48-.06.92-.11,1.61-.44,7.09-13.58,59.97-13.58,59.97,0,0-.79,3.09-3.6,3.2-1.03.04-2.27-.17-3.76-1.45-5.53-4.76-24.64-17.6-28.86-20.42-.24-.16-.31-.37-.35-.57-.06-.3.26-.67.26-.67,0,0,33.27-29.58,34.16-32.68.07-.24-.19-.36-.54-.26-2.21.81-40.52,25-44.75,27.67-.25.16-.94.06-.94.06Z"/>
        </g>
      </g>
    </g>
  </g>
</svg>