<?xml version="1.0" encoding="UTF-8"?>
<svg id="Layer_2" data-name="Layer 2" xmlns="http://www.w3.org/2000/svg" xmlns:xlink="http://www.w3.org/1999/xlink" viewBox="0 0 970 556.26">
  <defs>
    <style>
      .cls-1 {
        fill: #2d5e17;
      }

      .cls-2 {
        fill: url(#linear-gradient-2);
      }

      .cls-3 {
        fill: #f7a491;
      }

      .cls-4 {
        fill: #82b378;
      }

      .cls-5 {
        fill: #466aa5;
      }

      .cls-6 {
        fill: #ee9849;
      }

      .cls-7 {
        fill: #0b7529;
      }

      .cls-8 {
        fill: #ffd31a;
      }

      .cls-9 {
        fill: #db7028;
      }

      .cls-10 {
        fill: #bf5813;
      }

      .cls-11 {
        fill: #6d320b;
      }

      .cls-12 {
        fill: #ffb93e;
      }

      .cls-13 {
        fill: #f1a34f;
      }

      .cls-14 {
        fill: #d17a33;
      }

      .cls-15 {
        fill: #f2ce1d;
      }

      .cls-16 {
        fill: #d36318;
      }

      .cls-17 {
        fill: #2e3552;
      }

      .cls-18 {
        fill: #3c6d11;
      }

      .cls-19 {
        fill: #c9a611;
      }

      .cls-20 {
        fill: #08111c;
      }

      .cls-21 {
        fill: #578e9b;
      }

      .cls-22 {
        fill: #ffa412;
      }

      .cls-23 {
        fill: #5fabb7;
      }

      .cls-24 {
        fill: #54892b;
      }

      .cls-25 {
        fill: #e87d34;
      }

      .cls-26 {
        fill: #e58638;
      }

      .cls-27 {
        fill: #330707;
      }

      .cls-28 {
        fill: #d86713;
      }

      .cls-29 {
        fill: #ba550f;
      }

      .cls-30 {
        fill: #7abc40;
      }

      .cls-31 {
        fill: #ffb27d;
      }

      .cls-32 {
        fill: #77360a;
      }

      .cls-33 {
        fill: url(#linear-gradient-3);
      }

      .cls-34 {
        fill: url(#linear-gradient);
      }

      .cls-35 {
        fill: #3c8f7c;
      }

      .cls-36 {
        fill: #233862;
      }

      .cls-37 {
        fill: #d2e4ff;
      }

      .cls-38 {
        fill: #184655;
      }

      .cls-39 {
        fill: #bc3f3f;
      }

      .cls-40 {
        fill: #2b478b;
      }

      .cls-41 {
        fill: #994414;
      }
    </style>
    <linearGradient id="linear-gradient" x1="782.06" y1="447.72" x2="842.8" y2="447.72" gradientUnits="userSpaceOnUse">
      <stop offset="0" stop-color="#ffdd15"/>
      <stop offset="1" stop-color="#faaf40"/>
    </linearGradient>
    <linearGradient id="linear-gradient-2" x1="341.73" y1="377.19" x2="387.34" y2="377.19" gradientUnits="userSpaceOnUse">
      <stop offset="0" stop-color="#ff0"/>
      <stop offset=".5" stop-color="#fcbd0b"/>
      <stop offset="1" stop-color="#fcbd0b"/>
    </linearGradient>
    <linearGradient id="linear-gradient-3" x1="348.29" y1="371.17" x2="458.23" y2="371.17" xlink:href="#linear-gradient-2"/>
  </defs>
  <g id="Layer_1-2" data-name="Layer 1">
    <g>
      <path class="cls-4" d="m948.2,550.93h-57.17c-3.06-2.6,2.12-8.5,7.54-8.9,2.35-.18,5.33.31,8.73,1.03.79-10.45,5.28-57.42,22.21-55.53,19.04,2.11,0,20.69-5.38,31.68-3.99,8.14-8.19,19.82-10.11,25.34,1.55.33,3.15.66,4.78.96,2.52-7.75,11.91-33.81,23.85-32.29,14.02,1.78,8.38,12.23-1.55,18.43-7.29,4.56-16.24,11.04-20.49,14.18,3.6.59,7.36.98,11.18.9,9.79-.23,14.57,2.65,16.42,4.21Z"/>
      <path class="cls-4" d="m73.8,550.73c-2.27-3.57-9.1-12.82-18.2-11.6-9.92,1.33,10.95,7.87,17.34,11.63-1.42.02-2.64-.09-3.53-.41-4.27-1.52-11.59,1.4-13.92,2.42h40.66c-.28-.97-1.01-2.56-2.91-3.72-.67-.41-2.01-.46-3.74-.33,2.42-2.85,4.1-11.95-2.63-9.61-4.92,1.71-4.9,7.27-4.42,10.57-1.05.16-2.11.33-3.15.48-2.02-10.32-9.18-40.56-23.7-41.36-14.71-.82,12.48,31.36,21.53,41.65-1.16.14-2.28.24-3.31.29Z"/>
      <g>
        <path d="m566.6,55.67c-4.72-1.54-9.84-.78-13.35.13.72-1.11,2.45-1.81,2.45-1.81-2.27.12-6.74,3.25-6.74,3.25-32.98-5.56-28.71,39.95-25.95,50.17,2.75,10.22-13.18,39.85-24.17,54.31-30.84,40.56,18.47,82.81,18.47,82.81,39.98,33.2,21.81-31.18,21.81-31.18-2.48-8.21,27.56-60.13,45.22-77.41,3.49-8.2,2.65-21.3,2.58-22.33,1.2,10.28.61,16.3-.3,19.8,14.04-19.13-7.52-73.68-20.03-77.74Z"/>
        <path class="cls-24" d="m648.67,205.23c0,4.4-2.23,10.03-5.43,15.83-7.95,14.46-21.85,29.96-21.85,29.96l-8.06-11.34s4.9-12.02,8.15-21.93c1.95-5.96,3.31-11.15,2.65-12.52-1.76-3.64-36.65-44.45-36.65-44.45l-9.48-31.58s23.21,1.21,33.09,15.52c9.88,14.31,37.59,48.66,37.59,60.51Z"/>
        <path class="cls-10" d="m643.23,221.06c-7.95,14.46-21.85,29.96-21.85,29.96l-8.06-11.34s4.9-12.02,8.15-21.93c3.91,2.29,10.67,4.46,21.76,3.31Z"/>
        <polygon class="cls-10" points="546.8 489.81 555.15 524.58 567.65 524.51 568.11 489.81 546.8 489.81"/>
        <polygon class="cls-10" points="652 491.29 675.76 524.58 685.01 512.83 670.72 486.72 652 491.29"/>
        <path class="cls-10" d="m579.65,139.39c.1.05-10.03,5.25-17.65,3.19-7.17-1.93-11.85-11.13-11.76-11.15,3.04-.6,3.91-4.72,3.85-22.45l1.37.27,23.08,4.52s-.52,7.18-.54,13.95c-.02,5.68.33,11.07,1.65,11.68Z"/>
        <path class="cls-23" d="m542.62,68.04s8.77-13.97,25.05-5.62c0,0-8.44.23-25.05,5.62Z"/>
        <path class="cls-11" d="m578.54,113.77s-.52,7.18-.54,13.95c-12.92-.36-19.74-12.01-22.54-18.47l23.08,4.52Z"/>
        <path d="m550.71,110.05s-8.75-9.04-12.15-17.59c-2.43-6.1-3.95-30.21,20.58-31.58,0,0,7.06-.71,14.46,2.34,5.88,2.42,14.87,8.4,10.69,30.53l-.76,7.35-32.82,8.95Z"/>
        <path class="cls-24" d="m682.79,505.22s-6.13,1.05-11.17,1.43c-1.12.08-2.18.13-3.11.13-2.43,0-6.79-.9-9.73-1.58l-.22-.05c-1.29-.3-2.27-.55-2.64-.64l-.15-.04s-30.59-33.67-47.75-87.65c-.4-1.26-.82-2.53-1.27-3.81-9.39-27.08-28.86-61.06-39.12-91.82-1.63-4.9-3.1-9.51-4.41-13.87-.42-1.4-.83-2.77-1.22-4.12-7.56-25.97-9.75-43.03-11.76-61.25l61.68,15.52s25.9,111,70.87,247.76Z"/>
        <path class="cls-10" d="m582.58,117.38s-29.86,6.46-33.64-11.99c-3.78-18.45-10.18-30.04,8.72-34.94,18.9-4.9,24.06,1.39,26.84,7.24,2.78,5.85,5.75,37.53-1.92,39.68Z"/>
        <path d="m571.21,67.28s-3.79,23.28-15.72,28.99c-11.93,5.71-18.07,3.46-18.07,3.46,0,0,8.11-9.51,7.41-23.15,0,0,18.1-18.38,26.38-9.31Z"/>
        <path d="m569.54,69.45s7.11,3.61,9.56,8.01c2.45,4.4,5.09,13.94,7.88,13.04,0,0,3.18-15.94-5.46-22.88-9.16-7.36-11.98,1.83-11.98,1.83Z"/>
        <path class="cls-10" d="m554.73,522.64s1.01,6.89-1.59,14.26c0,0-2.05,9.22,7.14,9.39,9.19.17,11.44-.69,10.4-6.34-1.04-5.66-3.02-15.44-3.02-15.44l-12.93-1.87Z"/>
        <path class="cls-36" d="m553.13,536.89s-2.04,9.69-1,14.31c0,0,3.11,1.08,9.78,1.08,6.33,0,10.05-1.08,10.05-1.08,0,0-.23-10.52-1.92-14.55,0,0-6.51,9.66-16.91.24Z"/>
        <path class="cls-10" d="m707.15,540.87s-16.94-18.59-22.13-28.04l-12.59,6.38,28.15,26.14,6.59-.86v-3.62Z"/>
        <path class="cls-40" d="m717.91,551.76s-18.2,0-21.32-.34c-3.12-.34-5.63-4.8-9.01-11.48-1.38-2.73-4.49-4.24-7.67-5.07l.06,16.34h-5.01l-4.41-17.31c-3-5.45-.24-10.39,1.87-14.69,2.45,0,9.06,1.66,21.57,15.59,4.11,4.58,8.65,6.21,13.16,6.07.06.04.12.07.19.1,10.4,4.63,10.57,10.8,10.57,10.8Z"/>
        <path class="cls-18" d="m671.62,506.65c-1.12.08-2.18.13-3.11.13-2.43,0-6.79-.9-9.73-1.58l-.22-.05-2.64-.64-.15-.04s-30.59-33.67-47.75-87.65c-.4-1.26-.82-2.53-1.27-3.81-9.39-27.08-28.86-61.06-39.12-91.82-1.63-4.9-3.1-9.51-4.41-13.87-.42-1.4-.83-2.77-1.22-4.12l10.91-8.19s32.75,52.44,42.89,101.79c8.41,40.9,44.59,93.94,55.82,109.85Z"/>
        <path class="cls-24" d="m574.05,401.4c.19,24-1.04,79.17-4.2,102.01,0,0-3,2.62-10.43,2.65-7.61.03-11.02-2.75-11.02-2.75-7.93-39.71-13.57-72.58-17.68-100.89-3.37-23.24-6.36-43.16-8.67-60.31-2.04-15.2-3.54-28.22-4.26-39.45-.09-1.52-.18-3.02-.25-4.47-.09-1.92-.16-3.79-.19-5.61-.03-1.83-.04-3.6-.03-5.33l.26-.02,15.32-1.48,48.42-4.67c-.81,42.05-7.38,106.36-7.28,120.31Z"/>
        <path class="cls-18" d="m559.41,506.06c-6.48.37-11.02-2.75-11.02-2.75-7.93-39.71-13.57-72.58-17.68-100.89-3.37-23.24-6.36-43.16-8.67-60.31-2.04-15.2-3.54-28.22-4.26-39.45-.08-5.53-.14-10.83-.21-15.43-.07-4.66-.14-8.6-.27-11.35l15.6,9.87,16.41,10.38s-23.28,20.94-17.56,60.53c5.72,39.59,19.69,143.79,27.65,149.4Z"/>
        <path class="cls-24" d="m620.43,291.83c-18.57,4.77-105.25,14.19-105.99-7.27-.18-5.24,0-11.56.42-18.4,1.29-21.2,4.81-47.4,6.5-61.82.77-6.61-1.8-36.21.17-52.34.29-2.39.68-4.49,1.2-6.16,3.74-12.17,20.56-15.47,29.2-15.76l26.06-.88s26.91,29.72,30.65,38.85c3.74,9.13,4.97,40.39,7.88,55.52,2.91,15.14,12.95,65.94,3.92,68.26Z"/>
        <path class="cls-18" d="m569.24,219.29s-14.49,43.99-54.39,46.87c1.29-21.2,4.81-47.4,6.5-61.82.77-6.61-1.8-36.21.17-52.34.52.11.99.4,1.53.5,43.94,8.39,50.17,57.62,46.18,66.79Z"/>
        <g>
          <polygon class="cls-15" points="597.09 244.54 550.82 239.67 558.32 170.03 604.59 174.9 597.09 244.54"/>
          <polygon class="cls-1" points="558.32 170.03 555.35 169.8 548.38 239.38 550.82 239.67 558.32 170.03"/>
        </g>
        <g>
          <path class="cls-7" d="m519.3,200.86s32.65,9.87,63.85,14.28c0,0,10.3,4.4,5.46,5.61-1.24.31-63.73,13.78-72.99,5.04l3.68-24.92Z"/>
          <path class="cls-24" d="m551.93,130.08s-17.17.09-24.5,8.36c-13.38,15.09-16.03,79.29-11.81,87.35,1.82,3.47,15.75,3.75,21.62-13.04,3.05-8.71,16.36-66.84,14.68-82.67Z"/>
        </g>
        <path class="cls-31" d="m580.08,214.69s3.84-.35,4.57-1.57c1.46-2.42,3.76-2.39,5.68-2.71,1.92-.32,4.07-2.4,4.46-1.98.38.42-1.42,2.71-2.42,3.56,0,0,2.06.12,3.42-.52,1.36-.64,5.51-5.95,6.17-3.72,1.72,5.87-.07,11.52-4.83,11.97-5.14.49-17.89,2.93-17.89,2.93l.85-7.97Z"/>
      </g>
      <g>
        <g>
          <path class="cls-10" d="m752.88,222.98c-25.59-6.51-53.72-46.21-53.72-46.21l7.21-6.25c7.46,8.79,38.47,23.94,38.47,23.94-.17-8.05.04-15.39.55-22.07,3.44-45.41,20.56-60.54,25.23-63.86.75-.54,1.19-.76,1.19-.76,0,0,.02.33.04.95.07,1.35.19,4.07.32,7.8.95,27.79,2.08,111.9-19.3,106.46Z"/>
          <path class="cls-10" d="m706.37,170.52c-.11-1.07-.83-16.67-3.93-19.64-3.1-2.97-9.22-7.02-10.98-6.69-1.76.33-7.73,10.26-4.91,17.1,2.82,6.84,12.61,15.48,12.61,15.48l7.21-6.25Z"/>
          <g>
            <path class="cls-13" d="m712.73,172.33l-16.85.7c-.56.02-1.03-.41-1.05-.97l-1.34-32.13c-.02-.56.41-1.03.97-1.05l16.85-.71c.56-.02,1.03.41,1.05.97l1.34,32.13c.02.56-.41,1.03-.97,1.06Z"/>
            <path class="cls-28" d="m692.35,138.66h15.3c.99,0,1.8.81,1.8,1.8v30.59c0,.99-.81,1.8-1.8,1.8h-15.3c-.99,0-1.8-.81-1.8-1.8v-30.59c0-.99.81-1.8,1.8-1.8Z" transform="translate(-5.9 29.4) rotate(-2.4)"/>
          </g>
          <path class="cls-10" d="m690.19,145.38s4.59-5.13,9.19-1.21c4.59,3.92-.3,12.29-4.29,14.58-3.99,2.29-5.26,3.48-5.26,3.48l.37-16.85Z"/>
        </g>
        <path class="cls-41" d="m808.6,486.98c-1.56,6.2-3.27,12.1-5.02,17.59-.37,1.18-.74,2.34-1.12,3.47-.19.56-.38,1.12-.56,1.67-.37,1.09-.73,2.15-1.09,3.2-.47,1.36-.94,2.69-1.41,3.97-.34.95-.69,1.88-1.02,2.79-5.19,13.92-9.54,22.74-9.54,22.74l-10.34-.71s3.88-18.47,4.66-44.91c.03-.94.05-1.9.07-2.86.04-2.05.06-4.14.06-6.28,0-.87,0-1.76-.01-2.65-.21-22.78-3.03-49.7-12.03-75.41-7.32-20.9-12.62-40.45-16.46-58.12-12.38-57.04-9.47-94.51-9.47-94.51l58.16,6.81,2.71.32c.25,26.71.93,62.98,1.53,91.34.1,4.92.2,9.61.3,13.96.4,18.21.71,30.65.71,30.65,11.19,24.08,7.12,58.07-.14,86.95Z"/>
        <path d="m791.95,57.25s13.76,11.72,1.14,25.2c0,0,10.51,1.03,14.07-1.88,0,0-.7,1.42-1.35,2.06,0,0,11.75.42,16.61-3.24,4.85-3.67,1.73-63.8-30.89-57.08,0,0-27.65-2.09-25.08,29.91,2.58,32-7.86,32-7.86,32,0,0,2.9,1.43,4.31,1.43,0,0,2.05-.78,2.45-1.91,0,0-.4,1.78-.93,2.35,0,0,11.27,1.07,16.9-3.19,5.63-4.25,12.24-19.03,10.63-25.63Z"/>
        <path class="cls-10" d="m836.36,250.43c-10.99-24.65-16.25-31.62-16.43-39.38-.15-6.13,2.88-12.75,8.75-28.98,1.38-3.82,2.34-7.76,2.93-11.73,4.65-31.28-13.44-65.1-24.69-67.41-3.13-.83-8.43-12.13-8.37-30.33l-1.41.28-23.68,4.69s.54,7.45.55,14.47c.02,5.85-.3,11.8-1.63,12.5-1.7.15-3.25.46-3.25.46,0,0-20.04,14.07-21.33,33.16-1.73,25.49,16.25,55.72.3,106.67-16.28,52.04,94.32,19.22,88.25,5.6Z"/>
        <path class="cls-11" d="m773.46,77.56s.54,7.45.56,14.47c13.25-.37,20.25-12.46,23.12-19.16l-23.68,4.69Z"/>
        <path class="cls-8" d="m799.58,70.3s6.94-10.97,8.61-20.35c1.19-6.7-2.22-31.52-27.17-27.95,0,0-7.25.71-14.06,5.31-5.42,3.66-13.23,11.55-4.49,33.22l2.27,7.32,34.84,2.45Z"/>
        <path class="cls-10" d="m769.04,84.21s31.35.52,31.37-19.01c.02-19.53,4.08-32.61-15.93-33.77-20.01-1.16-23.91,6.29-25.5,12.81-1.59,6.52,1.91,39.33,10.06,39.97Z"/>
        <path d="m770.2,30.96s8.58,22.91,21.75,26.29c13.17,3.39,18.89-.14,18.89-.14,0,0-10.1-8.03-12.2-22.04,0,0-21.96-15.02-28.44-4.12Z"/>
        <path d="m772.32,32.82s-6.41,5.11-7.97,10.09c-1.56,4.97-2.27,15.21-5.25,14.86,0,0-6.47-15.57.8-24.38,7.71-9.34,12.42-.57,12.42-.57Z"/>
        <path class="cls-10" d="m877.12,276.61l-9.41,2.82s-31.04-51.51-33.87-64.91c-.92-4.36-3.18-13.09-5.81-22.88-5.45-20.26-12.49-45.05-12.49-45.05l-2.32-10.04-7.9-34.22s15.13,1.55,23.98,5.25c2.93,1.22,5.17,2.68,5.95,4.4,6.5,14.3,12.99,50.38,17.56,76.11,2.54,14.34,4.48,25.48,5.49,27.84,2.82,6.58,11.45,42.8,18.82,60.68Z"/>
        <path d="m771.13,33.59s6.12,23.99,22.73,31.67c0,0-16.62-14.74-18.03-30.57-1.41-15.84-4.7-1.1-4.7-1.1Z"/>
        <path class="cls-10" d="m841.97,481.98c-3.34,35.69-18.07,58.77-18.07,58.77l-5.03,4.57s-4.58-26.13-7.89-56.05c-3.15-28.43-7.47-58.53-12.36-67.71-7.3-13.72-12.69-41.79-16.56-71.44-6.4-49.07-8.68-102.49-8.68-102.49l58.97-2.92c5.93,9.97,8.52,26.33,9.13,44.92.65,19.55-.89,41.58-3.03,61.27-2.98,27.56-7.14,50.54-8.1,55.7,0,0,0,.01,0,.03-.13.68.07,1.36.39,1.97,11.74,23.23,13.43,49.8,11.22,73.38Z"/>
        <path class="cls-30" d="m773.15,168.48c-1.33,32.39-6.17,64.47-20.28,62.41-17.29-2.52-21.79-18.66-22.71-30.65-.57-7.47.25-13.33.25-13.33,0,0,8.51-.04,9.89-1.31,6.53-6.04,4.59-65.24,7.83-71.38,3.24-6.15,24.22-10.09,24.22-10.09,0,0,2.12,32.34.8,64.36Z"/>
        <path class="cls-18" d="m773.15,168.48c-1.33,32.39-6.17,64.47-20.28,62.41-17.29-2.52-21.79-18.66-22.71-30.65,4.24-.21,11.72-1.25,14.69-5.78,4.25-6.48,17.51-48.21,17.51-48.21,0,0,5.21,9.37,10.79,22.24Z"/>
        <path class="cls-19" d="m808.6,486.98c-1.56,6.2-3.27,12.1-5.02,17.59-.37,1.18-.74,2.34-1.12,3.47-.19.56-.38,1.12-.56,1.67-.37,1.09-.73,2.15-1.09,3.2-.47,1.36-.94,2.69-1.41,3.97-.34.95-.69,1.88-1.02,2.79-5.19,13.92-9.54,22.74-9.54,22.74l-10.34-.71s3.88-18.47,4.66-44.91c.03-.94.05-1.9.07-2.86.04-2.05.06-4.14.06-6.28,0-.87,0-1.76-.01-2.65-.21-22.78-3.03-49.7-12.03-75.41-7.32-20.9-12.62-40.45-16.46-58.12,6.15,1.27,11.56-.03,27.26-1.35,1.65-.14,9.54,9.63,17.34,22.57.4,18.21,9.34,27.35,9.34,27.35,11.19,24.08,7.12,58.07-.14,86.95Z"/>
        <path class="cls-34" d="m841.97,481.98c-3.34,35.69-18.07,58.77-18.07,58.77l-5.03,4.57s-4.58-26.13-7.89-56.05c-3.15-28.43-7.47-58.53-12.36-67.71-7.3-13.72-12.69-41.79-16.56-71.44,5.43,2.26,23.9,8.13,56.4.78-2.98,27.56-7.14,50.54-8.1,55.7,0,0,0,.01,0,.03-.13.68.07,1.36.39,1.97,11.74,23.23,13.43,49.8,11.22,73.38Z"/>
        <path class="cls-40" d="m853.26,308.31s-12.34,3.81-30.51,6.33c-22.51,3.11-53.97,4.23-82.06-6.33,0,0-2.32-41.81,4.34-63.6,6.66-21.8,9.77-32.23,9.77-32.23,0,0,26.67,6.69,53.76,1.5,3.81-.72,7.62-1.69,11.36-2.94,0,0,16.71,35.48,21.31,50.68,4.6,15.2,12.04,46.59,12.04,46.59Z"/>
        <path class="cls-36" d="m853.26,308.31s-12.34,3.81-30.51,6.33c-33.33-18.9-17.08-98.43-17.08-98.43.99-.8,1.95-1.54,2.89-2.23,3.81-.72,7.62-1.69,11.36-2.94,0,0,16.71,35.48,21.31,50.68,4.6,15.2,12.04,46.59,12.04,46.59Z"/>
        <path class="cls-24" d="m880.55,228.73c0,8.14-8.3,13.14-17.21,15.57-8.57,2.34-17.69,2.31-20.54.4-4.92-3.3-12.95-39.98-15.29-51.15-.42-2.02-.66-3.21-.66-3.21,0,0-6.4,15.27-6.6,16.69-.09.64-.17,1.52-.23,2.3-.06.94-.1,1.71-.1,1.71,0,0-34.72,17.53-65.12,1.43,0,0-12.36-71.41-6.99-83.71,2.67-6.11,16.57-18.71,22.13-24.15,1.25-1.22,1.13-3.64.64-5.86-.4-1.87,1.28-3.51,3.13-3.03,3.58.93,10.02.77,16.91-1.5,3.44-1.12,6.98-2.76,10.34-5.05.98-.67,2.3-.05,2.45,1.12.52,4.26,1.81,12.03,4.16,12.03,3.24-.02,25.31,2.69,26.93,5.42.56.95,6.3,13.94,13.55,31.14,0,0,0,.01.01.05,13.6,32.27,32.48,79.37,32.48,89.78Z"/>
        <path class="cls-18" d="m826.85,190.35s-6.4,15.27-6.6,16.69c-.09.64-.17,1.52-.23,2.3-3.09,2.52-6.83,4.44-10.64,5.6-10.82,3.28-15.53-17.47-14.88-27.82.65-10.35,15.96-39.9,21.05-40.51,5.09-.61,11.3,43.75,11.3,43.75Z"/>
        <path class="cls-26" d="m827.51,193.56c-.42-2.02-.66-3.21-.66-3.21.34,1.09.56,2.16.66,3.21Z"/>
        <path class="cls-8" d="m783.12,220.35c-19.76,0-27.9-6.8-28.51-7.26l-1.28-9.31c.19.14,26.7,16.06,67.73.81l-.87,7.05c-15.78,5.86-26.82,8.71-37.08,8.71Z"/>
        <path class="cls-18" d="m880.55,228.73c0,8.14-8.3,13.14-17.21,15.57,12.28-14.62-14.59-103.1-15.28-105.36,13.6,32.27,32.48,79.37,32.48,89.78Z"/>
        <path class="cls-18" d="m807.57,102.34s-16.53,10.47-29.04,7.99c0,0-3-1.9,1.14-3.8,3.89-1.79,12.93-7.07,10.95-12.29,3.44-1.12,6.98-2.76,10.34-5.05.98-.67,2.3-.05,2.45,1.12.52,4.26,1.81,12.03,4.16,12.03Z"/>
        <g>
          <path class="cls-36" d="m794.79,551.08h-6.6c-2.21-.35-3.84-.99-6.11-1.28-3.44-.45-5.03.96-5.34,1.28-.04.04-.06.07-.06.07h-28.03c-.71-1.01-.03-3.34.64-5.06.45-1.17,1.42-2.05,2.62-2.4,2.97-.86,8.83-1.63,14.2-6.49,3.02-2.73,14.58-10.03,14.58-10.03h.06c.25,0,1.46.36,6.72,4.8,2.72,2.29,7.35-3.24,7.35-3.24,0,0,.87.72,1.52,2.06.52,1.06.9,2.51.6,4.3-.42,2.53.93,7.22,2.01,10.4.65,1.92,1.2,3.29,1.2,3.29,0,0,.32,1.59-5.36,2.3Z"/>
          <path class="cls-5" d="m796.34,530.79c-1.58,1.11-4.9,3.3-7.11,3.58-2.98.39-8.55-7.21-8.55-7.21h.06c.25,0,1.46.36,6.72,4.8,2.72,2.29,7.35-3.24,7.35-3.24,0,0,.87.72,1.52,2.06Z"/>
          <path class="cls-5" d="m794.79,551.08h-6.6c-2.21-.35-3.84-.99-6.11-1.28-3.44-.45-5.03.96-5.34,1.28-.04.04-.06.07-.06.07h-28.03c-.71-1.01-.03-3.34.64-5.06.85-.76,1.09,3.29,1.56,3.93.47.64,22.87.23,24.16-.71,1.29-.94,5.17-2.59,10.58-1.29,4.71,1.12,11.65-1.76,13.36-2.53.65,1.92,1.2,3.29,1.2,3.29,0,0,.32,1.59-5.36,2.3Z"/>
        </g>
        <g>
          <path class="cls-36" d="m830.01,551.08h-6.6c-2.21-.35-3.84-.99-6.11-1.28-3.44-.45-5.03.96-5.34,1.28-.04.04-.06.07-.06.07h-28.03c-.71-1.01-.03-3.34.64-5.06.45-1.17,1.42-2.05,2.62-2.4,2.97-.86,8.83-1.63,14.2-6.49,3.02-2.73,14.58-10.03,14.58-10.03h.06c.25,0,1.46.36,6.72,4.8,2.72,2.29,7.35-3.24,7.35-3.24,0,0,.87.72,1.52,2.06.52,1.06.9,2.51.6,4.3-.42,2.53.93,7.22,2.01,10.4.65,1.92,1.2,3.29,1.2,3.29,0,0,.32,1.59-5.36,2.3Z"/>
          <path class="cls-5" d="m831.56,530.79c-1.58,1.11-4.9,3.3-7.11,3.58-2.98.39-8.55-7.21-8.55-7.21h.06c.25,0,1.46.36,6.72,4.8,2.72,2.29,7.35-3.24,7.35-3.24,0,0,.87.72,1.52,2.06Z"/>
          <path class="cls-5" d="m830.01,551.08h-6.6c-2.21-.35-3.84-.99-6.11-1.28-3.44-.45-5.03.96-5.34,1.28-.04.04-.06.07-.06.07h-28.03c-.71-1.01-.03-3.34.64-5.06.85-.76,1.09,3.29,1.56,3.93.47.64,22.87.23,24.16-.71,1.29-.94,5.17-2.59,10.58-1.29,4.71,1.12,11.65-1.76,13.36-2.53.65,1.92,1.2,3.29,1.2,3.29,0,0,.32,1.59-5.36,2.3Z"/>
        </g>
        <g>
          <path class="cls-18" d="m900.44,316.72c-.65-3.28-2.96-5.94-6.09-7.1-5.08-1.88-13.4-3.58-23.63-.58-17.26,5.07-18.95,15.69-17.81,23.32,1.14,7.63-2.24,19.79-1.75,28.45.5,8.65,2.98,30.4,15.76,29.26,12.78-1.14,53.99-12.21,53.99-12.21,0,0,7.12-13.55-7.5-33.17-8.67-11.64-11.83-22.24-12.97-27.96Z"/>
          <g>
            <path class="cls-18" d="m892.53,306.71l-3.42.31s-.39-2.36-1.96-3.85c-1.21-1.14-2.88-1.55-4.95-1.21-1.97.31-3.39,1.22-4.1,2.67-1.01,2.05-.45,4.68-.45,4.71l-3.33.77c-.04-.18-1.01-4.47.74-8.06,1.2-2.49,3.35-3.92,6.32-4.48,3.06-.49,5.65.26,7.7,2.22,2.82,2.71,3.44,6.75,3.46,6.92Z"/>
            <g>
              <path class="cls-24" d="m929.38,375.91s-41.21,11.1-54,12.22c-12.78,1.16-15.27-20.58-15.74-29.26-.5-8.63,2.87-20.8,1.75-28.45-.23-1.44-.36-3.05-.26-4.66.33-6.81,4.14-14.54,18.04-18.62,10.26-3.02,18.55-1.3,23.65.59,3.12,1.16,5.45,3.82,6.09,7.09.15.67.29,1.48.47,2.28,1.47,6.07,4.86,15.5,12.5,25.69,14.63,19.6,7.5,33.14,7.5,33.14Z"/>
              <path class="cls-8" d="m865.87,360.69l24.84-5.62s5.78,17.79-5.96,21.03c-11.74,3.24-16.61-3.65-18.88-15.41Z"/>
              <path class="cls-7" d="m865.87,360.69s5.73,5.52,13.47,3.58c7.74-1.95,11.36-9.2,11.36-9.2l-24.84,5.62Z"/>
              <path class="cls-8" d="m895.74,353.93l24.83-5.62s5.78,17.79-5.96,21.03c-11.74,3.24-16.61-3.65-18.88-15.41Z"/>
              <path class="cls-18" d="m895.74,353.93s5.73,5.52,13.47,3.58c7.74-1.95,11.36-9.19,11.36-9.19l-24.83,5.62Z"/>
              <path class="cls-18" d="m908.92,314.8c.15.67.29,1.48.47,2.28-3.28,6.78-9.51,15.43-20.04,17.44-17.91,3.49-28.21-8.77-28.21-8.77.33-6.81,4.14-14.54,18.04-18.62,10.26-3.02,18.55-1.3,23.65.59,3.12,1.16,5.45,3.82,6.09,7.09Z"/>
              <path class="cls-28" d="m889.6,338.27h0c-1.12.25-2.25-.46-2.5-1.58l-.42-1.85c-.25-1.12.46-2.25,1.58-2.5h0c1.12-.25,2.25.46,2.5,1.58l.42,1.85c.25,1.12-.46,2.25-1.58,2.5Z"/>
            </g>
          </g>
        </g>
        <path class="cls-10" d="m876.46,275.05s2.86,6.74,5.84,8.62,5.81,6.4,6.43,10.03c1.13,6.68-3.98,10.82-7.75,10.82s-7.36-5.13-9.57-17.38c-.12-.67-3.69-7.7-3.69-7.7l8.74-4.39Z"/>
      </g>
      <g>
        <path class="cls-36" d="m227.47,21.14c-4.5-6.83-22.35-3.01-39.87,8.53-17.52,11.54-28.09,26.43-23.59,33.26,4.5,6.83,22.35,3.01,39.87-8.53,17.53-11.54,28.09-26.43,23.59-33.26Z"/>
        <path class="cls-39" d="m135.92,274.81l3.46.21c-.03-.08,1.35-60.42,6.64-84.84,9.86-45.49,35.64-81.1,35.92-81.4l-6.19-1.98c-.31.33-5.19,7.9-12.12,21.87-6.38,12.87-16.64,34.32-21.17,59.3-4.47,24.66-6.67,86.52-6.54,86.85Z"/>
        <path d="m198.45,20.6s-22.62-4.82-33.47,13.57c-10.85,18.39-11.46,50.36-18.69,60.81-7.24,10.45-20,54.57-6.43,64.44,13.57,9.87,97.15-.36,101.85-4.86s-.28-50.83-8.45-64.25c-8.17-13.42,11.73-76.54-34.8-69.7Z"/>
        <path class="cls-25" d="m232.14,221.93c25.59-6.51,53.72-46.21,53.72-46.21l-7.21-6.25c-7.46,8.79-38.47,23.94-38.47,23.94.17-8.05-.04-15.39-.55-22.07-3.44-45.41-20.56-60.54-25.23-63.86-.75-.54-1.19-.76-1.19-.76,0,0-.02.33-.04.95-.07,1.35-.19,4.07-.32,7.8-.95,27.79-2.08,111.9,19.3,106.46Z"/>
        <path class="cls-25" d="m278.65,169.47c.11-1.07.83-16.67,3.93-19.64,3.1-2.97,9.22-7.02,10.98-6.69,1.76.33,7.73,10.26,4.91,17.1-2.82,6.84-12.61,15.48-12.61,15.48l-7.21-6.25Z"/>
        <path class="cls-25" d="m176.42,485.94c1.56,6.2,3.27,12.1,5.02,17.59.38,1.18.74,2.34,1.12,3.47.19.56.38,1.12.56,1.67.37,1.09.73,2.15,1.09,3.2.47,1.36.94,2.69,1.41,3.97.34.95.69,1.88,1.02,2.79,5.19,13.92,9.54,22.74,9.54,22.74l10.34-.71s-3.88-18.47-4.66-44.91c-.03-.94-.05-1.9-.07-2.86-.04-2.05-.06-4.14-.06-6.28,0-.87,0-1.76.01-2.65.21-22.78,3.03-49.7,12.03-75.41,7.32-20.9,12.62-40.45,16.46-58.12,12.38-57.04,9.47-94.51,9.47-94.51l-58.16,6.81-2.71.32c-.25,26.71-.93,62.98-1.53,91.34-.1,4.92-.2,9.61-.3,13.96-.4,18.21-.71,30.65-.71,30.65-11.19,24.08-7.12,58.07.14,86.95Z"/>
        <path class="cls-25" d="m148.67,249.38c10.99-24.65,16.25-31.62,16.43-39.38.15-6.13-2.88-12.75-8.75-28.98-1.38-3.82-2.34-7.76-2.92-11.73-4.65-31.28,13.44-65.1,24.69-67.41,3.13-.83,8.43-12.13,8.37-30.33l1.41.28,23.68,4.69s-.54,7.45-.55,14.47c-.02,5.85.3,11.8,1.62,12.5,1.7.15,20.29,3.48,23.67,8.81,3.32,5.24-.38,5.73.91,24.81,1.73,25.49-16.25,55.72-.31,106.67,16.28,52.04-94.32,19.22-88.25,5.6Z"/>
        <path class="cls-9" d="m211.56,76.51s-.54,7.45-.55,14.47c-13.25-.37-20.25-12.46-23.12-19.16l23.68,4.69Z"/>
        <path class="cls-25" d="m215.98,83.16s-31.35.52-31.37-19.01c-.02-19.53-4.08-32.61,15.93-33.77,20.01-1.16,23.91,6.29,25.5,12.81,1.59,6.52-1.91,39.33-10.07,39.97Z"/>
        <path d="m214.82,29.91s-8.58,22.91-21.75,26.29c-13.17,3.39-18.89-.14-18.89-.14,0,0,10.1-8.03,12.2-22.04,0,0,21.97-15.02,28.44-4.12Z"/>
        <path d="m212.7,31.77s6.41,5.11,7.97,10.09c1.56,4.97,2.27,15.21,5.25,14.86,0,0,6.47-15.57-.8-24.38-7.71-9.34-12.42-.57-12.42-.57Z"/>
        <path class="cls-25" d="m107.9,275.57l9.41,2.82s31.04-51.51,33.87-64.91c.92-4.36,3.18-13.09,5.81-22.88,5.45-20.26,12.49-45.05,12.49-45.05l2.32-10.04,7.9-34.22s-15.13,1.55-23.98,5.25c-2.93,1.22-5.17,2.68-5.95,4.4-6.5,14.3-12.99,50.38-17.56,76.11-2.54,14.34-4.48,25.48-5.49,27.84-2.82,6.58-11.45,42.8-18.82,60.68Z"/>
        <path d="m213.89,32.54s-6.11,23.99-22.73,31.67c0,0,16.62-14.74,18.03-30.57,1.41-15.84,4.7-1.1,4.7-1.1Z"/>
        <path class="cls-25" d="m143.05,480.93c3.35,35.69,18.07,58.77,18.07,58.77l5.03,4.57s4.58-26.13,7.89-56.05c3.15-28.43,7.47-58.53,12.36-67.71,7.3-13.72,12.69-41.79,16.56-71.44,6.41-49.07,8.68-102.49,8.68-102.49l-58.97-2.92c-5.93,9.97-8.51,26.33-9.13,44.92-.65,19.55.89,41.58,3.03,61.27,2.98,27.56,7.14,50.54,8.1,55.7,0,0,0,.01,0,.03.13.68-.07,1.36-.39,1.97-11.74,23.23-13.43,49.8-11.23,73.38Z"/>
        <path class="cls-12" d="m254.86,199.19c-.92,11.99-5.42,28.13-22.7,30.65-6.11.89-10.49-4.63-13.59-13.81-4.06-12-5.94-30.25-6.69-48.6-.72-17.38-.42-34.86,0-47.21,7.09-.8,20.11-6.81,24.1-8.3.11.12.23.25.33.37.08.1.16.2.23.3.14.19.25.38.36.57,1.72,3.27,1.98,21.65,2.83,38.99.74,15.18,1.95,29.57,4.99,32.39,1.38,1.27,9.88,1.31,9.88,1.31,0,0,.83,5.86.25,13.33Z"/>
        <path class="cls-22" d="m211.87,167.43c1.33,32.39,6.17,64.47,20.28,62.41,17.29-2.52,21.79-18.66,22.71-30.65-4.24-.21-11.72-1.25-14.69-5.78-4.25-6.48-17.51-48.21-17.51-48.21,0,0-5.21,9.37-10.78,22.24Z"/>
        <path class="cls-24" d="m230.22,211.43s-34.69,8.7-65.12-1.43c0,0-16.71,35.48-21.31,50.68-4.6,15.2-39.32,209.79-39.32,209.79,0,0,76.42,22.1,127.21,3.02,0,0,14.97-208.03,8.31-229.83-6.66-21.8-9.77-32.23-9.77-32.23Z"/>
        <path class="cls-12" d="m239.73,152.03c-2.54,25.08-9.5,59.1-9.5,59.1-3.84,2.03-7.76,3.52-11.66,4.58-26.96,7.32-53.45-6.01-53.45-6.01,0,0-.04-.78-.11-1.71-.05-.78-.13-1.65-.22-2.29-.2-1.42-6.6-16.64-6.6-16.64,0,0-.24,1.19-.66,3.21-2.34,11.13-10.37,47.7-15.29,51-2.85,1.9-11.98,1.93-20.54-.4-8.91-2.42-17.21-7.41-17.21-15.52,0-10.38,18.88-57.34,32.49-89.51,0-.04.01-.05.01-.05,7.24-17.15,11.45-29.09,16.99-30.42,0,0,37.27,15.17,57.91,12.84,7.09-.8,20.11-6.79,24.1-8.28.11.12.23.25.33.37.08.1.16.2.23.3.08.11.15.22.22.33,3.02,4.46,2.55,11.85,2.7,14.67.3,5.51,1.4,13.22.27,24.45Z"/>
        <path class="cls-22" d="m158.17,189.3s6.4,15.27,6.6,16.69c.09.64.17,1.52.23,2.3,3.09,2.52,6.83,4.44,10.64,5.6,10.82,3.28,15.53-17.47,14.88-27.82-.65-10.35-15.95-39.9-21.05-40.51-5.09-.61-11.3,43.75-11.3,43.75Z"/>
        <path class="cls-26" d="m157.51,192.51c.42-2.02.66-3.21.66-3.21-.34,1.09-.56,2.16-.66,3.21Z"/>
        <path class="cls-20" d="m202.2,218.05c19.76,0,27.6-5.55,28.2-6.01l1.28-9.31c-.19.14-26.7,16.06-67.73.81l.87,7.05c15.78,5.86,27.12,7.45,37.38,7.45Z"/>
        <path class="cls-22" d="m104.47,227.69c0,8.14,8.3,13.14,17.21,15.57-12.28-14.62,14.59-103.1,15.28-105.36-13.6,32.27-32.49,79.37-32.49,89.78Z"/>
        <g>
          <path d="m190.23,550.03h6.6c2.21-.35,3.84-.99,6.11-1.28,3.44-.45,5.03.96,5.34,1.28.04.04.06.07.06.07h28.03c.71-1.01.03-3.34-.64-5.06-.45-1.17-1.42-2.05-2.62-2.4-2.97-.86-8.83-1.63-14.2-6.49-3.02-2.73-14.58-10.03-14.58-10.03h-.06c-.25,0-1.46.36-6.72,4.8-2.72,2.29-7.35-3.24-7.35-3.24,0,0-.87.72-1.52,2.06-.52,1.06-.9,2.51-.6,4.3.42,2.53-.93,7.22-2.01,10.4-.65,1.92-1.2,3.29-1.2,3.29,0,0-.32,1.59,5.36,2.3Z"/>
          <path class="cls-5" d="m188.68,529.75c1.58,1.11,4.9,3.3,7.11,3.58,2.98.39,8.55-7.21,8.55-7.21h-.06c-.25,0-1.46.36-6.72,4.8-2.72,2.29-7.35-3.24-7.35-3.24,0,0-.87.72-1.52,2.06Z"/>
          <path class="cls-5" d="m190.23,550.03h6.6c2.21-.35,3.84-.99,6.11-1.28,3.44-.45,5.03.96,5.34,1.28.04.04.06.07.06.07h28.03c.71-1.01.03-3.34-.64-5.06-.85-.76-1.09,3.29-1.56,3.93-.47.64-22.87.23-24.16-.71-1.29-.94-5.17-2.59-10.58-1.29-4.71,1.12-11.65-1.76-13.36-2.53-.65,1.92-1.2,3.29-1.2,3.29,0,0-.32,1.59,5.36,2.3Z"/>
        </g>
        <g>
          <path d="m155.01,550.03h6.6c2.21-.35,3.84-.99,6.11-1.28,3.44-.45,5.03.96,5.34,1.28.04.04.06.07.06.07h28.03c.71-1.01.03-3.34-.64-5.06-.45-1.17-1.42-2.05-2.62-2.4-2.97-.86-8.83-1.63-14.2-6.49-3.02-2.73-14.58-10.03-14.58-10.03h-.06c-.25,0-1.46.36-6.72,4.8-2.72,2.29-7.35-3.24-7.35-3.24,0,0-.87.72-1.52,2.06-.52,1.06-.9,2.51-.6,4.3.42,2.53-.93,7.22-2.01,10.4-.65,1.92-1.2,3.29-1.2,3.29,0,0-.32,1.59,5.36,2.3Z"/>
          <path class="cls-5" d="m153.46,529.75c1.58,1.11,4.9,3.3,7.11,3.58,2.98.39,8.55-7.21,8.55-7.21h-.06c-.25,0-1.46.36-6.72,4.8-2.72,2.29-7.35-3.24-7.35-3.24,0,0-.87.72-1.52,2.06Z"/>
          <path class="cls-5" d="m155.01,550.03h6.6c2.21-.35,3.84-.99,6.11-1.28,3.44-.45,5.03.96,5.34,1.28.04.04.06.07.06.07h28.03c.71-1.01.03-3.34-.64-5.06-.85-.76-1.09,3.29-1.56,3.93-.47.64-22.87.23-24.16-.71-1.29-.94-5.17-2.59-10.58-1.29-4.71,1.12-11.65-1.76-13.36-2.53-.65,1.92-1.2,3.29-1.2,3.29,0,0-.32,1.59,5.36,2.3Z"/>
        </g>
        <path class="cls-25" d="m108.56,274s-2.86,6.74-5.84,8.62c-2.98,1.88-5.81,6.4-6.43,10.03-1.13,6.68,3.98,10.82,7.75,10.82s7.36-5.13,9.57-17.38c.12-.67,3.69-7.7,3.69-7.7l-8.74-4.39Z"/>
        <g>
          <polygon class="cls-6" points="292.88 134.68 292.44 139.2 291.05 153.45 290.17 162.57 271.98 162.57 270.86 153.45 269.11 139.2 268.56 134.68 292.88 134.68"/>
          <polygon class="cls-14" points="294.17 134.68 267.13 134.68 267.65 131.97 293.51 131.97 294.17 134.68"/>
          <polygon class="cls-14" points="292.44 139.2 291.05 153.45 270.86 153.45 269.11 139.2 292.44 139.2"/>
        </g>
        <path class="cls-25" d="m294.83,144.33s-4.59-5.13-9.19-1.21c-4.59,3.92.3,12.29,4.29,14.58,3.99,2.29,5.26,3.48,5.26,3.48l-.37-16.85Z"/>
        <path class="cls-39" d="m190.58,275.09l-3.45-.26c.04-.07,6.76-60.46,4.79-85.53-3.68-46.71-24.45-85.71-24.69-86.05l6.4-1.14c.26.37,4.09,8.58,9.08,23.45,4.6,13.7,11.89,36.48,13.03,62.01,1.13,25.21-4.98,87.21-5.15,87.52Z"/>
        <g>
          <path class="cls-37" d="m148.7,261.81s3.36-8.27,8.7-10.33l27.26,5.14s-6.73,6.4-7.36,10.58l-28.59-5.39Z"/>
          <path d="m182.92,308.45l-46.59-8.78c-2.19-.41-3.63-2.52-3.22-4.71l5.82-30.89c.41-2.19,2.52-3.63,4.71-3.22l46.59,8.78c2.19.41,3.63,2.52,3.22,4.71l-5.82,30.89c-.41,2.19-2.52,3.63-4.71,3.22Z"/>
          <g>
            <rect class="cls-26" x="143.75" y="244.75" width="22.28" height="28.56" transform="translate(2.27 -1.35) rotate(.5)"/>
            <rect class="cls-6" x="142.47" y="244.74" width="22.28" height="28.56" transform="translate(2.27 -1.33) rotate(.5)"/>
          </g>
          <g>
            <rect class="cls-21" x="149.76" y="252.19" width="22.28" height="28.56" transform="translate(195.1 -42.93) rotate(37.43)"/>
            <rect class="cls-15" x="147.79" y="250.68" width="22.28" height="28.56" transform="translate(193.77 -42.04) rotate(37.43)"/>
          </g>
          <path class="cls-27" d="m171.54,306.3l-44.61-8.41c-2.74-.52-4.54-3.15-4.02-5.89l5.45-28.91c.52-2.74,3.15-4.54,5.89-4.02l44.61,8.41c2.74.52,4.54,3.15,4.02,5.89l-5.45,28.91c-.52,2.74-3.15,4.54-5.89,4.02Z"/>
        </g>
        <path class="cls-12" d="m160.99,45.98s-14.26-28.39,5.67-39.61c19.93-11.22,34.52-6.81,45.48,6.91l-51.15,32.7Z"/>
        <path class="cls-22" d="m241.28,10.16c-4.1-6.57-18.45-5.51-35.77,1.58-6.77,2.77-13.98,6.46-21.22,10.98-9,5.61-16.84,11.76-22.99,17.77-11.47,11.22-17.07,21.95-13.35,27.91,1.14,1.82,2.84,2.99,5.4,3.67,2.54-5.47,9.83-10.59,11.89-14.85,2.92-6.02,10.29-16.94,23.8-25.36,10.37-6.47,20.69-10.28,27.79-10.73,4.13-.27,7.18.6,8.51,2.74,1.04,1.68.93,3.94-.14,6.57,1.01,1.7,2.16,4.1,3.11,7.28,11.23-11.08,16.67-21.66,12.99-27.55Z"/>
      </g>
    </g>
    <g>
      <path class="cls-16" d="m364.25,126.3l-2.69-12.25s-8.82,5.59-13.96,13.59c-5.14,7.99-7.59,29.3-9.06,30.1-1.47.8-17.74-24.27-20.59-28.22-3.52-4.89-4.83-10.5-7.04-14.76-2.2-4.26-9.96-5.71-12.9-5.18-2.94.53,4.04,13,4.04,13,0,0,17.63,30.63,23.51,47.42,5.88,16.78,24.24,24.77,27.18,22.38,2.94-2.4,11.51-66.06,11.51-66.06Z"/>
      <path class="cls-29" d="m310.72,117.09s-.73-3.23-2.71-3.89-5.42-.07-5.64,0c-.22.07-4.03-1.98-4.03-1.98l3.15,5.86s6.16,7.26,8.21,4.54c2.05-2.71,1.03-4.54,1.03-4.54Z"/>
      <path class="cls-29" d="m297.23,111.5s-2.22,11.31-1.66,13.68c.56,2.38,1.98,1.1,2.25.59,1.09-2.13,1.86-9.38,1.86-9.38l-2.44-4.89Z"/>
      <path class="cls-29" d="m302.02,120.91s-1.06,7.02-2.15,7.84c-.71.54-1.61.22-1.91-1.2-.29-1.42,1.42-10.07,1.42-10.07l2.64,3.42Z"/>
      <path class="cls-38" d="m308.5,140.82l3.69-1.8-15.67-32.16h0c-2.04.99-2.88,3.45-1.89,5.49l13.88,28.47Z"/>
      <path d="m345.23,49.46c3.09-9.82,6.24-19.68,16.8-26.36,8.54-5.41,18.18-5.81,26.93-2.08,24.79,10.56,7.39,29.38,37.13,52.68,9.24,7.24,17.8,14.01,23.34,23.86,10,17.77,7.4,35.58-16.25,53.45-57.91,43.75-90.26-40.17-91.19-55.86-.7-11.68,1.25-39.37,3.23-45.69Z"/>
      <path class="cls-3" d="m454.89,497.7s1.9,19.34,6.8,22.9c4.9,3.55,11.43,16.69,8.16,23.8-1.02,2.22-3.06,3.5-5.39,4.22-6.88,2.12-14.2-1.45-17.13-8.03-1.64-3.67-3.07-8.57-3.36-14.75-.73-15.72-5.63-23.71-5.63-23.71l16.54-4.43Z"/>
      <path class="cls-3" d="m379.63,505.62s-1.54,19.52-.29,25.86c.67,3.4,4.41,10.39,2.69,13.58-1.71,3.2-3.67,4-3.67,4l-44.43.71c-2.42.04-.82-1.52,1.13-2.95,3.19-2.34,5.77-3.89,15.97-8.82.67-.32,3.09-1.86,3.96-2.39,2.22-1.35,4.44-3.47,6.35-5.6,3.19-3.54,3.47-20.73,3.47-20.73l14.81-3.67Z"/>
      <path class="cls-2" d="m344.9,246.17s-5.59,31.69-1.92,52.47c3.67,20.78,21.3,213.36,21.3,213.36l19.59,1.1s4.11-80.45,3.37-91.63c-.73-11.19-6.55-29.91-6.55-29.91l1.95-64.95-24.72-85.33-13.02,4.89Z"/>
      <path class="cls-33" d="m403.38,242.11s15.43,23.17,19.1,42.35c3.67,19.18-2.7,78.12,4.37,103.25,3.82,13.6,18.32,34.61,20.53,52.19s10.85,63.63,10.85,63.63l-19.58,3.87-45.51-115.01-35.7-103.95-9.14-53.54,55.1,7.19Z"/>
      <path class="cls-18" d="m390,107.65s13.51,1.53,21.59,10.32c8.08,8.79-13.06,79.45-14.53,90.64-1.47,11.19,12.04,37.29,12.04,37.29,0,0-50.48,9.33-64.2.27,0,0-1.47-80.45,0-88.44,1.47-7.99,13.71-40.49,16.65-43.69,2.94-3.2,28.44-6.39,28.44-6.39Z"/>
      <path class="cls-29" d="m409.1,124.61c-1.3-3.94-5.77-5.83-9.57-4.19-5.22,2.26-12.42,6.54-15.93,13.87-5.88,12.25-26.45,54.34-32.81,55.94-6.37,1.6-32.33-43.69-32.33-43.69,0,0,.73-7.99-1.47-12.52-2.2-4.53-8.82-9.32-9.79-7.72-.98,1.6,3.67,5.59,3.67,6.39s-1.96,1.33-4.65-.27-4.15-4.83-4.15-4.83c0,0-4.42,8.03.23,15.22,4.65,7.19,6.61,10.12,6.61,10.12,0,0,30.12,66.86,41.14,67.66,10.26.74,69.37-64.81,59.06-95.99Z"/>
      <path class="cls-29" d="m383.2,80.41s.11.6.3,1.62c.91,4.9,4.42,21.16,6.79,25.63,2.86,5.4-9.8,22.63-21.99,20.53-3.63-.63,3.07-15.83,2.75-17.44-.62-3.08-1.45-7.29-2.31-11.6-.48-2.43-.97-4.9-1.43-7.22-1.3-6.59-2.37-11.98-2.37-11.98l18.27.45Z"/>
      <path class="cls-32" d="m383.49,82.03c-.19-1.02-.3-1.62-.3-1.62l-18.27-.45s1.06,5.39,2.37,11.98c.46,2.31.94,4.76,1.42,7.18,2.82-.41,5.77-1.78,8.72-4.36,3.22-2.81,5.33-6.2,6.61-9.81-.23-1.15-.41-2.15-.55-2.91Z"/>
      <path class="cls-29" d="m372.21,37s7.45,1.03,12.85,8c5.4,6.97,11.21,28.51-2.19,40.22-13.41,11.71-26.65-1.55-28.62-15.6-1.96-14.06-1.57-33.13,17.96-32.62Z"/>
      <path class="cls-29" d="m349.96,64.81c1.6,3.1,4.29,4.82,6,3.84,1.71-.98,1.81-4.3.21-7.4-1.6-3.1-4.29-4.82-6-3.84-1.71.98-1.81,4.3-.2,7.4Z"/>
      <path d="m369.94,36.67s11.5,20.49,19.73,21.43c8.23.95,9.31,11.83,9.31,11.83,0,0-2.94-25.08-11.09-29.92-8.15-4.84-17.95-3.34-17.95-3.34Z"/>
      <path class="cls-29" d="m386.98,62.98c-.67,3.64.68,6.97,3.01,7.45,2.33.48,4.76-2.08,5.43-5.72.67-3.64-.68-6.97-3.01-7.45-2.33-.48-4.76,2.08-5.43,5.72Z"/>
      <path class="cls-35" d="m446,537.13c10.67,1.94,17.77-4.29,21.47-8.95,2.71,5.28,4.38,11.88,2.38,16.22-1.76,3.82-6.54,4.87-10.59,5.02-4.28.16-8.27-2.08-10.4-5.79-.99-1.74-2.01-3.9-2.87-6.49Z"/>
      <path class="cls-35" d="m355,535.62c11.75,3.01,20.43.96,25.29-.99,1.25,3.54,2.91,7.99,2.03,10.55-1.08,3.14-2.61,3.85-3.97,3.88-10.73.28-39.31.66-47.49.77-1.14.01-1.77-1.32-1.04-2.19,2.03-2.42,24.3-11.49,25.18-12.02Z"/>
    </g>
    <path class="cls-17" d="m968.46,556.26H1.29c-.71,0-1.29-.93-1.29-2.06h0c0-1.13.58-2.06,1.29-2.06h967.17c.71,0,1.54.79,1.54,1.92l-.25.14c0,1.13-.58,2.06-1.29,2.06Z"/>
  </g>
</svg>