<?xml version="1.0" encoding="UTF-8"?>
<svg id="Layer_2" data-name="Layer 2" xmlns="http://www.w3.org/2000/svg" viewBox="0 0 1802.72 764.89">
  <defs>
    <style>
      .cls-1 {
        fill: #eaac11;
      }

      .cls-2 {
        fill: #fff;
      }

      .cls-3 {
        fill: #f9d387;
      }

      .cls-4 {
        fill: #050a16;
      }

      .cls-5 {
        fill: #aa541a;
      }

      .cls-6 {
        fill: #1e630a;
      }

      .cls-7 {
        fill: #a8d29f;
      }

      .cls-8 {
        fill: #2e5908;
      }

      .cls-9 {
        fill: #ba850f;
      }

      .cls-10 {
        fill: #2e3552;
      }

      .cls-11 {
        fill: #b55515;
      }

      .cls-12 {
        fill: #d39735;
      }

      .cls-13 {
        fill: #296608;
      }

      .cls-14 {
        fill: #ffc063;
      }

      .cls-15 {
        fill: #7f3e12;
      }

      .cls-16 {
        fill: #2c7c0b;
      }

      .cls-17 {
        fill: #592705;
      }

      .cls-18 {
        fill: #fcbd00;
      }

      .cls-19 {
        fill: #aa7c09;
      }

      .cls-20 {
        fill: #efab50;
      }

      .cls-21 {
        fill: #ccb21d;
      }

      .cls-22 {
        fill: #edb73e;
      }

      .cls-23 {
        fill: #381b07;
      }

      .cls-24 {
        fill: #ddb81b;
      }

      .cls-25 {
        fill: #000102;
      }

      .cls-26 {
        fill: #1d6b1f;
      }

      .cls-27 {
        fill: #f5fcff;
      }

      .cls-28 {
        fill: #281106;
      }

      .cls-29 {
        fill: #233862;
      }

      .cls-30 {
        fill: #287a0a;
      }

      .cls-31 {
        fill: #6b320b;
      }

      .cls-32 {
        fill: #633313;
      }
    </style>
  </defs>
  <g id="Layer_1-2" data-name="Layer 1">
    <g>
      <path class="cls-28" d="m1392.27,12.86c.04-1.04.84-12.27,17.95-12.86,0,0-8.41,1-9.87,4.7,0,0,5.73-4.57,10.39-3.1,4.67,1.47,7.4,9.64,7.43,12.33.03,2.69-2.56,11.35-5.52,12.09-1.12.28-2.41.2-3.59,0,.79,1.23,1.56,2.59,2.3,4.1,6.83,14.01-.21,27.71-5.99,26.2-3.71-.97-4.76,5.35-4.76,5.35l-36.01-29.15s13.23-27.37,27.66-19.67Z"/>
      <path class="cls-30" d="m1379.73,425.7l7.65,2.85s33.22-46.08,37.31-86.62c.73-7.24.49-14.25-1.09-20.73,0,0,.32-1.85.89-5.13.26-1.53.59-3.37.96-5.48,1.08-6.19,2.57-14.66,4.27-24.3,3.91-22.19,8.97-50.55,12.91-71.4l-2.06-.66-22.3-7.19-4.61-14.64-16.61-4.37s-3.71,7.26-7.03,41.53c-.61,4.5-1.17,9.45-1.59,14.83-1.29,16.41-1.39,36.77,1.58,60.04.76,5.96,1.72,12.11,2.92,18.43.87,4.63,1.01,10.95.64,18.2-1.67,33.14-13.84,84.65-13.84,84.65Z"/>
      <path class="cls-8" d="m1388.44,244.39l36.06,71.68c.26-1.53.59-3.37.96-5.48,1.08-6.19,2.57-14.66,4.27-24.3,3.91-22.19,8.97-50.55,12.91-71.4l-2.06-.66-22.3-7.19-4.61-14.64-21.56-11.96s0,3.34-1.88,39.81c-.61,4.5-1.36,18.77-1.78,24.14Z"/>
      <path class="cls-6" d="m1404.3,197.22l.83-7.16c13.98,3.71,52.97-13.66,52.97-13.66,0,0,11.93,15.19,10.15,43.73-.87,13.93-2.45,73.14-4.11,90.66-.6,6.35-1.12,10.87-1.34,12.67,0,0,0,.01,0,.02-.07.55.13,1.07.41,1.55,2.44,4.14,4.46,8.45,6.11,12.86,16.26,43.32-2.5,96.67-2.5,96.67l-4.87-1.96s-10.68-59.37-19.35-85.6c-1.47-4.45-2.88-7.94-4.18-10.03-3.77-6.09-7.27-16.03-10.45-27.86-6-22.37-10.84-51.46-14.05-73.92-2.74-19.02-9.62-37.96-9.62-37.96Z"/>
      <path class="cls-5" d="m1305.07,171.4l-1.09,8.23s4.96-.66,5.77-.72c2.55-.17,10.08-.66,17.09-1.42,10.54-1.04,18.17-1.28,23.15-4.35,7.58-4.63,20.03-18.81,28.13-32.99.23-.35.41-.69.58-1.04,4.23-7.53,7.18-14.99,7.41-20.95.17-3.65-.23-6.77-.98-9.49-.98-3.59-2.6-6.43-4.28-8.57-.23-.35-.46-.69-.81-.98-2.78-3.3-5.5-4.69-5.5-4.69-1.39-.58-6,5.02-7.57,6.7l-1.31,3.88c-1.27,1.33-15.26,46.29-21.57,53.29-2.72,3.01-15.39,7.74-26.94,10.94-7.49,2.08-12.08,2.18-12.08,2.18Z"/>
      <path class="cls-11" d="m1377.59,110.4c4.39,2.04,9.69,3.42,16.11,3.77,24.04,1.32,29.5-19.76,30.49-33.75-3.47-1.26-6.5-1.14-8.25-1.04-1.39.08-2.84.21-4.12.35-.61.07-1.21-.1-1.7-.48-3.03-2.38-7.64-9.57-10.41-20.91l-1.04.48-17.35,8.16s1.84,5.64,3.2,11.05c.59,2.34,1.08,4.64,1.3,6.42.2,1.68-.75,3.28-2.3,3.94h0s0,0,0,.02c-.17.44-3.95,10.05-5.93,21.99Z"/>
      <path class="cls-18" d="m1463.13,184.23c-.2,8.89-62.82,16.78-73.59,10.81,0,0-2.8-13.48-6.35-28.63-1.07-4.56-2.21-9.26-3.36-13.8-2.71-10.66-5.5-20.39-7.64-25.01-.22-.48-.42-.95-.6-1.43-4.8-12.72,4.19-26.33-2.02-30.35,0,0,3.68-3.39,13.97-7.43,0,0,0,0,0,.02-.16.6-1.08,9.05.69,12.35,3.48,6.53,17.08,3.11,23.29-4.94,3.64-4.72,6.45-9.48,7.73-13.94.29-1.01.71-2.49.71-2.49,0,0,11.47-1.55,17.92,1.06,0,0-2.55,5.53-3.48,11.63-.09.58-.16,1.16-.22,1.74-.12,1.23-.16,2.46-.09,3.66.09,1.59.91,2.99,2.21,4.37,1.19,1.26,2.8,2.5,4.62,3.83,1.19.86,2.48,1.76,3.79,2.75.12,7.18-.39,19,.94,31.6.33,3.2,1.4,6.26,3.07,8.97.67,1.08,1.42,2.1,2.27,3.06,6.78,7.6,16.38,31.14,16.15,32.18Z"/>
      <path class="cls-31" d="m1381.32,66.99s1.84,5.64,3.2,11.05c10.14-2.83,13.22-13.49,14.15-19.2l-17.35,8.16Z"/>
      <path class="cls-11" d="m1379.19,72.96s24.26-5.61,20.53-20.67c-3.73-15.05-3.11-25.92-18.76-22.97-15.65,2.95-17.22,9.44-17.2,14.76.02,5.33,9.02,29.95,15.42,28.88Z"/>
      <path class="cls-28" d="m1362.4,35.54c2.61-5.46,5.68-5.17,7.6-4.2,11.4-10.55,22.58-1.93,22.58-1.93,4.3,10.4,13.63,14.64,13.63,14.64,0,0-3.73,3.82-14.53,3.73-3.3-.03-6.62-1.54-9.64-3.63,5.82,5.86,12.65,9.43,12.65,9.43-13.52-2.59-22.59-18.24-23.52-19.9-1.15,1.69-3.34,5.29-3.52,8.33-.25,4.13,1.17,12.16-1.2,12.46,0,0-7.97-10.76-4.06-18.94Z"/>
      <path class="cls-24" d="m1369.55,95.82s-2.15,1.24-6.09,13.27c0,0,4.51,5.6,10.01,5.08,0,0,.73-16.97-3.92-18.35Z"/>
      <path class="cls-25" d="m1438.52,438.55h38.52s.92-5.87-1.09-10.33c-1.93-4.27-4.95-6.22-4.22-11.39-2.45,2.52-6.44,5.34-12.01,4.59-.68,1.11-4.41,7.03-6.68,8.66-2.52,1.81-13.74,1.16-14.52,8.46Z"/>
      <path class="cls-25" d="m1355.8,438.55h38.53s1.44-6.14-1.09-10.33c-2.24-3.7-1.38-5.81.28-8.87-1.75.71-4,1.36-6.49,1.22-1.92-.11-3.95-.98-5.73-2.01-1.66,1.89-8.76,9.94-10.98,11.53-2.52,1.81-13.74,1.16-14.52,8.46Z"/>
      <path class="cls-11" d="m1321,144.34s-3.38-4.55-5.49-5.51c-2.11-.95-4.11-6.83-5.28-5.04-.71,1.09,1.09,5.17.63,6.08-.46.92-5.12-1.02-5.94-2.33-.55-.88-5.35-6.67-5.46-4-.11,2.67,4.08,12.93,6.15,14.23,2.07,1.31,9.89,3.07,9.89,3.07l5.49-6.51Z"/>
      <path class="cls-21" d="m1426,119.36c-8.71,21.31-42.24,47.71-42.24,47.71l-.58-.65c-1.07-4.56-2.21-9.26-3.36-13.8l35.72-33.25h10.47Z"/>
      <path class="cls-11" d="m1316.6,144.77l-1.09,6.08s19.16,4.38,23.39,5.31l.05.02c7.3,1.45,15.53,2.95,22.7,3.7,5.07.49,9.6.6,12.93.15.34-.04.62-.1.98-.19,8.21-1.64,21.57-11.42,33.74-22.89,1.68-1.58,3.32-3.19,4.92-4.74,5.87-5.84,11.17-11.81,15.19-17.22,2.43-3.21,4.46-6.23,5.8-8.86.49-.92.95-1.79,1.29-2.66,6.91-15.3.31-20.89.31-20.89-.13-.13-.27-.25-.45-.4-1.22-.82-3-.55-5.21.53-2.78,1.33-6.3,3.98-10.2,7.35-6.12,5.4-42.83,50.09-51.39,51.79-7.44,1.48-52.95,2.92-52.95,2.92Z"/>
      <path class="cls-24" d="m1432.94,80.11s7.48,2.1,8.13,9.94c.65,7.84-.37,32.09-.37,32.09,0,0-24.45-7.01-34.41-21.97,0,0,17.96-19.86,26.64-20.06Z"/>
      <path class="cls-11" d="m1307.31,171.64s-2.17-2.63-5.41-3.45c-3.25-.82-10.27-4.24-9.45-2.45.82,1.8,4.73,3.92,4.08,5.22,0,0-11.16-3.1-11.48-1.14-.33,1.96,3.93,9.44,8.71,11.05,1.58.53,12.57-1.58,12.57-1.58l.99-7.65Z"/>
    </g>
    <g>
      <path class="cls-7" d="m1676.53,719.77c-15.93-11.64-48.47-3.78-72.49,4.62-3.59-5.04-7.94-10.24-13.2-15.32,51.74-33.33,123.21-104.42,85.33-110.43-32.93-5.23-77.36,58.75-101.11,97.7-24.66-16.59-62.45-28.79-120.15-24.56-149.73,10.98-266.71-85.61-352.93-53.39-68.56,25.61-131.38,39.96-191.98,35.06,2.61-44.26,3.17-131.17-31.58-140.19-35.29-9.15-.67,89.55,18.56,138.83-4.51-.58-9.02-1.27-13.51-2.07-12.46-24.56-32.98-56.71-55.52-57.8-21.23-1.03,4.97,27.86,30.75,52.35-74.1-15.56-162,44.68-163.45,115.89h925.08s-1.64-10.4-8.9-24.1c35.75-.7,82.4-3.95,65.1-16.59Z"/>
      <g>
        <rect class="cls-6" x="724.93" y="705.42" width="172.11" height="55.05"/>
        <rect class="cls-30" x="671.87" y="705.41" width="172.1" height="55.06"/>
        <polygon class="cls-8" points="897.04 704.8 897.04 736.56 843.97 704.8 897.04 704.8"/>
      </g>
      <g>
        <g>
          <rect class="cls-19" x="1035.74" y="506.7" width="138.76" height="253.76" transform="translate(2210.24 1267.16) rotate(180)"/>
          <rect class="cls-18" x="992.95" y="506.7" width="138.76" height="253.76" transform="translate(2124.67 1267.16) rotate(180)"/>
        </g>
        <polygon class="cls-9" points="1131.72 506.7 1174.5 544.8 1174.5 506.7 1131.72 506.7"/>
      </g>
      <g>
        <path class="cls-5" d="m1288.81,163.09c-2.7-.41-10.83,7.11-10.83,7.11h0c-17.36,2.01-42.74,6.62-51.88,8.37-6.48,1.25-23.9-4.69-40.91-11.51-20.24-8.11-39.9-17.47-39.9-17.47-11.23-.57-23.98,19.91-1.21,32.94,3.48,1.99,16.54,5.38,31.58,8.48h0c20.75,4.27,45.26,7.98,53.6,6.68,9.69-1.52,37.13-11.55,53.44-19.24h0s.02,0,.04-.02c.06-.03.12-.06.18-.09.98-.46,4.97-2.24,7.64-2.08,3.06.18,9.87-5.41,10.07-6.91.21-1.49-9.14-5.86-11.84-6.27Z"/>
        <path class="cls-19" d="m1267.61,421.18l-9.56,1.94s-43.74-49.15-50.49-69.83c-3.61-11.05-26.7-15.83-50.84-22.07-21-5.43-42.8-11.97-53.21-24.74-22.37-27.43,14.05-61.14,14.05-61.14,0,0,38.72,23.01,72.13,46.79,23.35,16.62,44.1,33.6,47.23,43.37,7.59,23.74,23.7,68.87,30.68,85.67Z"/>
        <path class="cls-29" d="m1254.82,437.39h5.38c1.8-.28,3.13-.8,4.98-1.05,2.8-.37,4.1.78,4.35,1.05.04.04.05.05.05.05h22.84c.57-.82.02-2.72-.52-4.12-.36-.95-1.16-1.67-2.14-1.95-2.42-.7-7.2-1.33-11.57-5.29-2.46-2.22-11.88-8.17-11.88-8.17h-.05c-.21,0-1.19.29-5.48,3.91-2.21,1.87-5.99-2.64-5.99-2.64,0,0-.71.59-1.24,1.68-.43.86-.74,2.05-.49,3.51.34,2.06-.76,5.88-1.64,8.47-.53,1.57-.98,2.68-.98,2.68,0,0-.26,1.29,4.37,1.87Z"/>
        <path class="cls-9" d="m1189.7,292.14l-32.97,39.09c-21-5.43-42.8-11.97-53.21-24.74-22.37-27.43,14.05-61.14,14.05-61.14,0,0,38.72,23.01,72.13,46.79Z"/>
        <path class="cls-18" d="m1159.74,271.72s-2.66,8.38-6.99,20.99c-5.47,15.95-13.62,38.65-22.46,59.71-1.94,4.63-3.92,9.18-5.91,13.56-7.35,16.2-14.88,30.09-21.51,37.15-11.91,12.69-40.85,94.27-40.85,94.27l-7.21-2s-10.06-69.66,25.57-109.3c.38-.42.68-.91.72-1.48,0,0,0-.01,0-.02.47-5.87,2.17-32.14,5.86-58.77.91-6.53,1.93-13.08,3.09-19.36.07-.4.15-.8.22-1.19,5.42-29.02,10.61-41.92,17.31-48.42l49.25,14.02,2.92.83Z"/>
        <path class="cls-29" d="m1054,507.43h5.38c1.8-.28,3.13-.81,4.98-1.05,2.8-.37,4.1.78,4.35,1.05.03.03.05.05.05.05h22.84c.57-.82.02-2.72-.52-4.12-.36-.95-1.16-1.67-2.14-1.95-2.42-.7-7.2-1.33-11.57-5.28-2.46-2.22-11.88-8.17-11.88-8.17h-.05c-.21,0-1.19.3-5.48,3.91-2.21,1.87-5.99-2.64-5.99-2.64,0,0-.71.59-1.24,1.68-.43.86-.74,2.05-.49,3.51.34,2.06-.76,5.88-1.64,8.47-.53,1.57-.98,2.68-.98,2.68,0,0-.26,1.29,4.37,1.87Z"/>
        <path class="cls-5" d="m1074.2,171.12s-11.93,18.22-24.99,35.68c-10.99,14.67-22.77,28.81-28.95,31.11-8.72,3.25-32.79,12.52-48.66,19.84,0,0-10.85-2.19-12.94-.44-2.09,1.75-7.8,10.35-6.85,11.51.95,1.17,9.68,2.4,12.2.66,2.19-1.52,6.53-2.08,7.61-2.2.07,0,.13-.01.2-.02.03,0,.05,0,.05,0h0c17.93-1.93,46.58-7.63,55.65-11.37,7.8-3.23,26.81-19.15,42.3-33.59h0c11.23-10.47,20.62-20.16,22.56-23.67,12.67-22.97-8.88-33.83-18.17-27.5Z"/>
        <path class="cls-4" d="m1107.66,97.93c-.98-1.43-1.97-2.69-2.95-3.81,1.22.03,2.54-.09,3.64-.55,2.89-1.2,4.21-10.38,3.78-13.1-.43-2.72-4.45-10.6-9.41-11.39-4.96-.79-10.08,4.72-10.08,4.72.92-3.97,9.3-6.26,9.3-6.26-17.27,3.18-16.39,14.7-16.27,15.76-15.81-5.63-25.09,24.14-25.09,24.14l40.94,24.13s.11-6.58,4.01-6.15c6.09.66,11.16-14.3,2.12-27.48Z"/>
        <path class="cls-5" d="m1110.27,160.38c-9.39,4.43-21.86-1.95-21.79-2.02.81-.81.52-3.22-.22-6.37-.74-3.29-2.48-7.79-5.7-13.15-.67-1.14-1.34-2.28-2.15-3.49l1.07-.4,18.25-7.31s2.95,5.3,6.04,10.13c2.62,4.03,5.37,7.65,6.58,7.52.07-.07,12.15,8.25-2.08,15.1Z"/>
        <path class="cls-32" d="m1099.74,129.45c-.47,6.51-2.68,18.25-11.47,22.55-.74-3.29-2.48-7.79-5.7-13.15l17.18-9.4Z"/>
        <path class="cls-5" d="m1081.49,146.25s23.76-9.37,17.7-24.07c-6.06-14.71-7.08-25.82-22.5-20.46-15.43,5.36-16.04,12.18-15.22,17.58.83,5.4,13.68,29.02,20.02,26.96Z"/>
        <path class="cls-4" d="m1090.35,118.82c10.97-1.55,14.17-5.98,14.17-5.98,0,0-10.1-2.9-16.04-12.8,0,0-12.33-4.16-21.47,2.79-.55.72-.95,1.58-1.16,2.58-2.09-.69-5.24-.51-7.06,5.41-2.73,8.89,6.98,18.6,6.98,18.6,2.35-.67-.3-8.59-.67-12.82-.27-3.11,1.41-7.1,2.31-8.99,1.16,1.51,12.74,16.06,26.87,16.64,0,0-7.47-2.59-14.26-7.66,3.38,1.66,6.97,2.7,10.32,2.22Z"/>
        <path class="cls-30" d="m1155.51,190.69c-.2-.71-.42-1.45-.64-2.2,3.53-6.75,5.26-12.82,6-17.97,1.61-10.87-1.14-17.58-1.14-17.58,0,0-16.48-8.74-23.76-9.85-.03-.01-.06-.02-.09-.03-.09-.01-.18-.02-.29-.03-7.35-1.01-23.25,2.23-23.25,2.23,0,0,3.07,8.17-5.59,13.61-8.66,5.44-17.9-1.39-17.9-1.39-.28.19-.58.39-.88.61,0,0,0,0,0,0,0,0-22.78,15.03-24.82,18.46-2.04,3.44-10.8,20.44-10.8,20.44,0,0,2.78,14.27,33.54,15.47,2.53,6.13,4.47,12.12,5.1,17.11,2.44,19.38-.39,34.66,2.46,45.97,2.85,11.31,54.18,4.86,63.48,2.68,9.3-2.18,7.21-12.1,7.92-21.75.9-12.12-6.29-55.1-9.32-65.79Z"/>
        <path class="cls-6" d="m1160.87,170.52c-.74,5.17-2.48,11.27-6.04,18.05-.81-3.56-4.09-16.57-9.39-22.48,0,0,8.92.81,15.43,4.43Z"/>
      </g>
      <path class="cls-10" d="m1801.58,760.46c.11,0,.23,0,.34.03,1.21.2.97,2.05-.26,2.04l-146.06-1.4c0,1.15-10,4-71.02-1H0c215.85,6,214.91,5.06,214.91,3.91v-1.49"/>
      <rect class="cls-6" x="1291.8" y="433.89" width="248.63" height="326.56"/>
      <rect class="cls-30" x="1215.14" y="433.89" width="248.63" height="326.56"/>
      <polygon class="cls-26" points="1540.43 433.89 1540.43 482.73 1463.77 433.89 1540.43 433.89"/>
    </g>
    <g>
      <path class="cls-23" d="m798.94,310.61c-1.84-3.55,40.18-16.34,40.84,18.71,0,0,78.71-1.94,41.13-45.81-13.01-15.19-11.67-27.75-11.28-39.43.4-11.69-8.1-45.67-37.24-42.25,0,0-7.63-3.1-17.15,1.84-21.65,11.23-70.16,119.87-16.3,106.94Z"/>
      <path class="cls-15" d="m931.97,302.22s.17-9.33,3.58-11.66c3.41-2.33,8.73-8.23,9.03-6.61.3,1.62-3.63,4.28-3.53,5.3.1,1.02,7.17-1.82,9.07-2.83,1.89-1.01,6.08-3.84,6.52-2.85.44.99-4.75,9.51-10.42,12.36-5.66,2.85-10.95,9.08-10.95,9.08l-3.3-2.8Z"/>
      <path class="cls-18" d="m870.66,343.9s5.3,3.18,12.95,5.84c9.22,3.2,21.86,5.64,32.75.82,5.2-2.3,9.21-6.27,12.29-10.87,0-.01.01-.01.01-.01,8.71-13.01,10.01-31.12,10.01-31.12-1.54-7.17-7.52-8.91-7.52-8.91,0,0-20.97,20.93-24.03,21.23-3.06.31-41.33-30.24-47.67-33.12-6.34-2.87-18.97,1.53-18.97,1.53l30.17,54.61Z"/>
      <path class="cls-21" d="m883.61,349.74c9.22,3.2,21.86,5.64,32.75.82,5.2-2.3,9.21-6.27,12.29-10.87-.43.36-11.58,9.49-21.84,3.91-10.47-5.69-24.6-16.3-28.96-7.04-1.88,4,1.41,8.9,5.76,13.19Z"/>
      <path class="cls-29" d="m745.69,664.32s-8.82,8.05-7.1,13.77c1.72,5.72,9.68,9.53,10.76,16.52,1.08,6.99,5.38,10.8,9.25,10.8s18.46,0,18.46,0c0,0,2.85-4.92-4.03-6.4-6.88-1.48-9.48-9.7-9.05-17.32.43-7.63-.64-17.79-.64-17.79l-14.63-3.39-3.01,3.81Z"/>
      <path class="cls-29" d="m820.34,667.74s-3.17,34.1.7,36l49.55-.1s0-5.72-7.96-6.99c-7.96-1.27-21.94-5.93-24.31-16.31-2.37-10.38-17.99-12.6-17.99-12.6Z"/>
      <path class="cls-15" d="m785.03,423.11c10.2-22.87,16.44-29.43,15.25-36.53-.89-5.28,2.7-98.5,2.7-98.5,1.21-.37,3.64-.71,4.96-1.01,4.18-.93,7.64-3.87,9.09-7.9,1.74-4.86,3.12-12.04,3.08-21.03l1.31.26,21.96,4.35s-.5,6.91-.51,13.42c0,.05,0,.11,0,.16-.03,5.66,3.68,10.65,9.12,12.21,2.77.8,5.19,1.49,5.19,1.49,0,0,8.06,23.03,9.61,46.68,1.54,23.65-14.67,33.93.12,81.2,15.1,48.28-87.5,17.83-81.86,5.2Z"/>
      <path class="cls-17" d="m843.37,262.75s-.5,6.91-.51,13.42c-12.29-.35-18.79-11.56-21.45-17.77l21.96,4.35Z"/>
      <path class="cls-15" d="m847.48,268.92s-29.08.48-29.1-17.63c-.02-18.11-3.79-30.25,14.78-31.32,18.57-1.07,22.18,5.84,23.66,11.88,1.48,6.04-1.77,36.49-9.34,37.08Z"/>
      <path class="cls-23" d="m846.4,219.52s-7.96,21.25-20.18,24.39c-12.22,3.14-17.52-.13-17.52-.13,0,0,9.37-7.45,11.32-20.44,0,0,20.38-13.93,26.38-3.82Z"/>
      <path class="cls-23" d="m844.43,221.24s5.9,2.21,8.33,6.51c2.38,4.21,4.4,9.79,3.93,16.63,0,0,6-14.44-.74-22.61-7.15-8.66-11.52-.53-11.52-.53Z"/>
      <path class="cls-2" d="m841.15,257.68s2.01,2.64,6.02,2.45c3.23-.15,4.48-2.96,4.48-2.96,0,0-5.94-1.43-10.5.51Z"/>
      <path class="cls-18" d="m788.99,329.32s.11,13.79.85,26.28c.49,8.28,1.25,15.99,2.44,18.74,2.98,6.88,6.35,8,6.35,8l26.02,6.38,9.15,2.24,28.85-8.62s13.14-36.68,7.86-57.32c-5.28-20.65-13.34-34.98-13.34-34.98,0,0-23.54,23.05-54.19-1.95l-13.98,41.24Z"/>
      <path class="cls-21" d="m789.84,355.6c.49,8.28,1.25,15.99,2.44,18.74,2.98,6.88,6.35,8,6.35,8l26.02,6.38,11.3-3.32s-37.72-5.72-33.54-38.17l-12.56,8.38Z"/>
      <path class="cls-6" d="m860.8,387.91s14.29,44.47,15.2,59.61c.92,15.14-27.31,215.08-28.45,222.06-1.07,6.58-9.24,10.77-9.24,10.77,0,0-3.76,2.22-9.12.7-7.44-2.1-9.79-4.61-9.79-4.61,0,0-11.12-142.6-4.24-193.54,6.88-50.94,6.96-94.99,6.96-94.99h38.66Z"/>
      <path class="cls-30" d="m800.27,386.58s-21.79,29.24-23.82,49.01c-2.03,19.77-3.19,89.2-7.52,108.47-4.33,19.27-20.23,56.35-20.23,116.45,0,0,1.65,3.44,6.76,5.28,1.63.59,3.82,1.16,5.94,1.64,4.21.97,8.53-1.09,10.45-4.96,10.75-21.65,45-91.47,46.76-105.96,1.24-10.26,12.06-78.14,35.64-117.97,5.66-9.56-3.48-47.59-3.48-47.59l-50.5-4.37Z"/>
      <path class="cls-29" d="m863.09,381.04s-5.74,4.54-17.13,4.77c-13.61.27-47.33-3.47-47.33-3.47,0,0-1.5,4.19-1.44,8.61,0,0,41.19,10.39,65.05,1.52,0,0,3.08-5.79.85-11.42Z"/>
      <path class="cls-2" d="m843.01,390.51c0-3.88,2.79-7.03,6.21-7.03s6.21,3.15,6.21,7.03-2.79,7.03-6.21,7.03-6.21-3.15-6.21-7.03Zm2.06,0c0,2.74,1.86,4.97,4.15,4.97s4.15-2.23,4.15-4.97-1.86-4.97-4.15-4.97-4.15,2.23-4.15,4.97Z"/>
      <path class="cls-15" d="m756.8,436.69s-4.6,6.01-5.6,8.55c-1,2.54.58,5.18-.42,5.18s.92-5.29.42-5.18c-.5.11-2.91,8.81-4.66,9.02-1.75.21-3.33-9.76-2.42-13.67.92-3.92,4.87-8.61,4.87-8.61l7.81,4.72Z"/>
      <path class="cls-1" d="m802.97,288.08s-16.09,2.18-24.74,19.24c-6.69,13.18-11.28,54.65-16,67.7-4.52,12.49-10.75,36.65-14.23,56-.27,1.5.56,2.98,1.98,3.54l5.92,2.35c1.28.51,2.73.01,3.43-1.17,5.26-8.83,25.98-44.17,33.18-64.62,8.41-23.91,24.15-38.75,24.15-38.75l-13.68-44.29Z"/>
    </g>
    <g>
      <path class="cls-12" d="m931.42,260.01c-6.45,6.82-12.89,10.02-19.12,9.49-6.27-.53-12.33-4.93-17.54-12.72-1.9-2.85-2.24-6.43-.91-9.6,1.34-3.19,4.17-5.48,7.57-6.12l4-.75.48,2.58-4,.75c-2.53.48-4.64,2.18-5.64,4.56-1,2.39-.76,4.99.67,7.13,3.31,4.95,8.7,10.98,15.58,11.56,5.4.46,11.12-2.46,17-8.68l1.9,1.8Z"/>
      <path class="cls-12" d="m951.74,238.52l-1.9-1.8c5.88-6.22,8.47-12.09,7.72-17.46-.96-6.84-7.28-11.88-12.41-14.91-2.22-1.31-4.83-1.41-7.16-.27-2.32,1.13-3.9,3.33-4.23,5.88l-.53,4.04-2.6-.34.53-4.04c.45-3.43,2.57-6.38,5.68-7.9,3.09-1.51,6.69-1.37,9.64.37,8.07,4.76,12.8,10.57,13.68,16.8.87,6.2-1.95,12.8-8.41,19.62Z"/>
      <path class="cls-12" d="m952.66,285.73c-.2.21-.52-.06-.36-.29l5.71-8.2c1.28-1.83,1.15-4.3-.3-5.99l-15.02-17.58,1.94-2.06,17.73,14.51c1.77,1.45,4.32,1.48,6.12.08l7.6-5.92c.22-.17.5.13.31.34,1.36,1.28-22.38,26.39-23.74,25.1Z"/>
      <path class="cls-22" d="m955.39,244.46l-1.14,4.2c-1.62,5.99-6.14,10.76-12.03,12.72l-4.13,1.37c-6.47,2.15-13.6.57-18.55-4.12l-22.56-21.33,30.7-32.47,22.56,21.33c4.95,4.68,6.93,11.71,5.15,18.3Z"/>
      <path class="cls-3" d="m927.68,204.83c1.66,1.57-3.88,10.1-12.35,19.07-8.48,8.97-16.69,14.97-18.35,13.4-1.66-1.57,3.88-10.1,12.35-19.07,8.48-8.97,16.69-14.97,18.35-13.4Z"/>
      <path class="cls-12" d="m926.42,205.96c1.24,1.18-4.1,8.85-11.94,17.14-7.84,8.29-15.2,14.05-16.45,12.88-1.24-1.18,4.1-8.85,11.94-17.14,7.84-8.29,15.2-14.06,16.45-12.88Z"/>
      <path class="cls-3" d="m924.99,231.65l4.01,1.24c.35.11.73.04,1.02-.19l3.29-2.61c.73-.58,1.8-.07,1.81.86l.06,4.2c0,.37.19.71.5.91l3.5,2.33c.77.51.62,1.69-.26,1.99l-3.97,1.36c-.35.12-.62.4-.72.76l-1.13,4.04c-.25.89-1.42,1.11-1.97.37l-2.52-3.36c-.22-.29-.57-.46-.94-.45l-4.2.17c-.93.04-1.49-1-.96-1.76l2.42-3.44c.21-.3.26-.69.13-1.03l-1.46-3.94c-.32-.87.49-1.73,1.38-1.46Z"/>
    </g>
    <g>
      <path class="cls-20" d="m1274.7,18.53c.11.59.2,1.21.49,1.71.51.66.99,1.33,1.44,2.02-.33-.04-.66-.06-.99-.07-3.28-.12-6.36.92-8.7,2.92-2.09,1.79-3.28,4.13-3.37,6.59-.09,2.47.94,4.89,2.89,6.82,2.18,2.16,5.19,3.41,8.46,3.53,3.27.12,6.35-.91,8.68-2.9.15.49.29.97.44,1.46,1.08.6,1.81,1.93,1.76,3.46-.07,2.03-1.51,3.63-3.2,3.57-1.33-.05-2.42-1.11-2.8-2.55-1.58.46-3.26.68-5.01.62-8.15-.29-14.54-6.61-14.27-14.12.26-7.17,6.51-12.83,14.19-13.06Z"/>
      <path class="cls-20" d="m1340.91,20.89c-.15.58-.28,1.19-.61,1.67-.55.62-1.08,1.26-1.58,1.91.33-.01.66-.01.99,0,3.28.12,6.28,1.37,8.46,3.53,1.95,1.93,2.98,4.35,2.89,6.82-.09,2.47-1.29,4.81-3.37,6.59-2.33,2-5.42,3.03-8.7,2.92-3.27-.12-6.27-1.36-8.45-3.51-.18.48-.36.95-.54,1.43-1.12.52-1.95,1.8-2,3.32-.07,2.03,1.24,3.72,2.93,3.79,1.33.05,2.5-.93,2.97-2.34,1.54.57,3.21.92,4.96.98,8.15.29,14.99-5.56,15.26-13.06.26-7.17-5.57-13.26-13.21-14.04Z"/>
      <path class="cls-14" d="m1272.63,16.9l-.14,3.75c-.62,16.96,12.74,31.2,29.82,31.81,7.87.18,13.24,1.18,20.83-1.84,10.93-4.3,19.07-14.76,19.53-27.46l.14-3.75-70.18-2.51Z"/>
      <path class="cls-27" d="m1323.14,50.63s-.02,0-.02,0l-9.96-32.29,11.57.41,7.99,25.88c-2.79,2.55-6.03,4.59-9.57,5.98Z"/>
      <path class="cls-27" d="m1315.83,52.52l-10.5-34.45,5.81.21,10.07,33.05c-1.89.62-3.66.99-5.39,1.2Z"/>
      <path class="cls-27" d="m1333.89,43.52l-7.89-24.71,2.76.1,7.14,22.36c-.63.78-1.31,1.54-2.01,2.25Z"/>
      <path class="cls-14" d="m1275.77,14.89l63.88,2.28c2.33.08,4.18,1.44,4.26,3.07l-72.61-2.6c.19-1.62,2.14-2.84,4.47-2.75Z"/>
      <polygon class="cls-14" points="1318.36 52.14 1314.08 70.43 1298.28 69.86 1294.47 51.29 1318.36 52.14"/>
      <polygon class="cls-20" points="1294.47 51.29 1295.32 55.48 1317.39 56.27 1318.36 52.14 1294.47 51.29"/>
      <polygon class="cls-14" points="1292.97 92.49 1316.87 93.34 1315.41 84.14 1313.92 74.8 1298.12 74.23 1295.52 83.43 1292.97 92.49"/>
      <polygon class="cls-20" points="1292.97 92.49 1316.87 93.34 1315.41 84.14 1295.52 83.43 1292.97 92.49"/>
      <path class="cls-27" d="m1295.5,69.77l21.35.76c.94.03,1.68.82,1.64,1.75l-.04.98c-.03.93-.82,1.67-1.77,1.63l-21.35-.76c-.94-.03-1.68-.82-1.64-1.75l.04-.98c.03-.93.82-1.67,1.77-1.63Z"/>
      <g>
        <path class="cls-14" d="m1291.35,85.67h28.24v4.08c0,1.07-.87,1.94-1.94,1.94h-24.37c-1.07,0-1.94-.87-1.94-1.94v-4.08h0Z" transform="translate(2606.95 223.93) rotate(-177.95)"/>
        <path class="cls-14" d="m1281.8,94.44l-.07,1.83,46.88,1.68.07-1.83c.08-2.11-1.16-3.87-2.75-3.92l-41.09-1.47c-1.6-.06-2.96,1.61-3.03,3.72Z"/>
        <polygon class="cls-27" points="1317.78 91.9 1319.06 97.6 1321.01 97.67 1319.73 91.97 1317.78 91.9"/>
        <polygon class="cls-27" points="1320.58 92 1321.86 97.7 1323.82 97.77 1322.54 92.07 1320.58 92"/>
        <polygon class="cls-27" points="1315.29 91.81 1316.57 97.52 1318.52 97.59 1317.24 91.88 1315.29 91.81"/>
      </g>
      <g>
        <path class="cls-14" d="m1262.76,137.44l-.07,1.83,78.56,2.81.07-1.83c.08-2.11-2.03-3.9-4.71-3.99l-68.86-2.46c-2.68-.1-4.91,1.54-4.99,3.65Z"/>
        <polygon class="cls-27" points="1322.96 135.77 1325.24 141.51 1328.52 141.62 1326.24 135.89 1322.96 135.77"/>
        <polygon class="cls-27" points="1327.65 135.94 1329.93 141.67 1333.22 141.79 1330.93 136.05 1327.65 135.94"/>
        <polygon class="cls-27" points="1318.79 135.62 1321.07 141.36 1324.35 141.48 1322.06 135.74 1318.79 135.62"/>
      </g>
      <path class="cls-14" d="m1286.53,47.52l-.05,1.38c-.09,2.39,1.79,4.4,4.2,4.48l31.47,1.13c2.41.09,4.43-1.78,4.52-4.17l.05-1.38-40.18-1.44Z"/>
      <polygon class="cls-13" points="1273.8 134.01 1332.91 136.13 1333.57 98.12 1275.97 96.06 1273.8 134.01"/>
      <polygon class="cls-16" points="1287.86 134.51 1318.86 135.62 1319.86 97.63 1289.65 96.55 1287.86 134.51"/>
    </g>
  </g>
</svg>