<?xml version="1.0" encoding="UTF-8"?>
<svg id="Layer_2" data-name="Layer 2" xmlns="http://www.w3.org/2000/svg" viewBox="0 0 115.65 115.65">
  <defs>
    <style>
      .cls-1 {
        fill: #fcbd0b;
      }

      .cls-2 {
        fill: none;
        stroke: #136730;
        stroke-miterlimit: 10;
        stroke-width: 4px;
      }
    </style>
  </defs>
  <g id="Layer_1-2" data-name="Layer 1">
    <g>
      <path class="cls-1" d="m85.85,28.87H30.2c-6.23,0-11.3,5.07-11.3,11.3v38.87c0,6.23,5.07,11.3,11.3,11.3h55.65c6.23,0,11.3-5.07,11.3-11.3v-38.87c0-6.23-5.07-11.3-11.3-11.3Zm0,5.4c.46,0,.91.06,1.34.16l-23.48,26.64c-1.44,1.63-3.51,2.57-5.69,2.57s-4.25-.94-5.69-2.57l-23.48-26.64c.43-.1.88-.16,1.34-.16h55.65Zm5.9,44.77c0,3.25-2.64,5.9-5.9,5.9H30.2c-3.25,0-5.9-2.64-5.9-5.9v-38.87c0-.79.16-1.54.44-2.23l23.54,26.71c2.46,2.79,6.01,4.4,9.74,4.4s7.27-1.6,9.74-4.4l23.54-26.71c.28.69.44,1.44.44,2.23v38.87Z"/>
      <circle class="cls-2" cx="57.83" cy="57.83" r="55.83"/>
    </g>
  </g>
</svg>