<?xml version="1.0" encoding="UTF-8"?>
<svg id="Layer_2" data-name="Layer 2" xmlns="http://www.w3.org/2000/svg" viewBox="0 0 115.65 115.65">
  <defs>
    <style>
      .cls-1 {
        fill: #fcbd0b;
      }

      .cls-2 {
        fill: none;
        stroke: #136730;
        stroke-miterlimit: 10;
        stroke-width: 4px;
      }
    </style>
  </defs>
  <g id="Layer_1-2" data-name="Layer 1">
    <path class="cls-1" d="m95.8,56.14l-28.56-32.73c-2.37-2.72-5.81-4.28-9.41-4.28s-7.04,1.56-9.42,4.28l-28.56,32.73c-.69.79-.85,1.9-.42,2.86.43.95,1.38,1.56,2.43,1.56h4.88v33.3c0,1.47,1.19,2.67,2.67,2.67h56.83c1.47,0,2.67-1.19,2.67-2.67v-33.3h4.88c1.05,0,1.99-.61,2.43-1.56.43-.95.27-2.07-.42-2.86Zm-43.37-29.22c1.36-1.56,3.33-2.45,5.4-2.45s4.04.89,5.4,2.45l24.7,28.31H27.73l24.7-28.31Zm31.15,64.27h-51.5v-30.63h51.5v30.63Z"/>
    <circle class="cls-2" cx="57.83" cy="57.83" r="55.83"/>
  </g>
</svg>