<?xml version="1.0" encoding="UTF-8"?>
<svg id="Layer_2" data-name="Layer 2" xmlns="http://www.w3.org/2000/svg" viewBox="0 0 115.65 115.65">
  <defs>
    <style>
      .cls-1 {
        fill: #fcbd0b;
      }

      .cls-2 {
        fill: none;
        stroke: #136730;
        stroke-miterlimit: 10;
        stroke-width: 4px;
      }
    </style>
  </defs>
  <g id="Layer_1-2" data-name="Layer 1">
    <circle class="cls-2" cx="57.83" cy="57.83" r="55.83"/>
    <path class="cls-1" d="m69.21,53.48c5.7-3.66,9.49-10.03,9.49-17.29,0-11.33-9.22-20.55-20.55-20.55s-20.55,9.22-20.55,20.55c0,7.26,3.79,13.63,9.49,17.29-11.65,4.46-19.94,15.76-19.94,28.96,0,5.56,4.53,10.09,10.09,10.09h41.82c5.56,0,10.09-4.53,10.09-10.09,0-13.2-8.29-24.49-19.94-28.96Zm-26.3-17.29c0-8.4,6.84-15.24,15.24-15.24s15.24,6.84,15.24,15.24-6.84,15.24-15.24,15.24-15.24-6.84-15.24-15.24Zm36.15,51.03h-41.82c-2.64,0-4.79-2.15-4.79-4.79,0-14.17,11.53-25.7,25.7-25.7s25.7,11.53,25.7,25.7c0,2.64-2.15,4.79-4.79,4.79Z"/>
  </g>
</svg>