<?xml version="1.0" encoding="UTF-8"?>
<svg id="Layer_2" data-name="Layer 2" xmlns="http://www.w3.org/2000/svg" viewBox="0 0 115.65 115.65">
  <defs>
    <style>
      .cls-1 {
        fill: #fcbd0b;
        fill-rule: evenodd;
      }

      .cls-2 {
        fill: none;
        stroke: #136730;
        stroke-miterlimit: 10;
        stroke-width: 4px;
      }
    </style>
  </defs>
  <g id="Layer_1-2" data-name="Layer 1">
    <g>
      <circle class="cls-2" cx="57.83" cy="57.83" r="55.83"/>
      <path class="cls-1" d="m80.57,66.73c-2.53-1.51-5.82-3.2-8.79-1.98-2.28.93-3.74,4.51-5.22,6.34-.76.94-1.67,1.08-2.83.61-8.58-3.41-15.15-9.14-19.88-17.03-.8-1.23-.66-2.19.31-3.33,1.43-1.68,3.22-3.59,3.61-5.86.39-2.27-.68-4.92-1.61-6.94-1.2-2.58-2.54-6.26-5.12-7.72-2.38-1.34-5.51-.59-7.62,1.13-3.65,2.98-5.42,7.64-5.37,12.26.01,1.31.18,2.62.48,3.89.74,3.05,2.15,5.89,3.73,8.6,1.2,2.04,2.49,4.02,3.9,5.93,4.59,6.23,10.29,11.64,16.9,15.69,3.3,2.02,6.86,3.79,10.54,5.01,4.13,1.36,7.81,2.78,12.27,1.94,4.67-.89,9.27-3.78,11.12-8.27.55-1.33.82-2.82.52-4.22-.63-2.91-4.57-4.64-6.92-6.04Z"/>
    </g>
  </g>
</svg>