<?xml version="1.0" encoding="UTF-8"?>
<svg id="Layer_2" data-name="Layer 2" xmlns="http://www.w3.org/2000/svg" viewBox="0 0 115.65 115.65">
  <defs>
    <style>
      .cls-1 {
        fill: #fcbd0b;
      }

      .cls-2 {
        fill: none;
        stroke: #136730;
        stroke-miterlimit: 10;
        stroke-width: 4px;
      }
    </style>
  </defs>
  <g id="Layer_1-2" data-name="Layer 1">
    <g>
      <g>
        <path class="cls-1" d="m73.79,15.53h-31.92c-6.45,0-11.7,5.25-11.7,11.7v55.66c0,6.45,5.25,11.7,11.7,11.7h31.92c6.45,0,11.7-5.25,11.7-11.7V27.24c0-6.45-5.25-11.7-11.7-11.7Zm-31.92,5.4h31.92c3.48,0,6.3,2.83,6.3,6.3v44.59h-44.53V27.24c0-3.47,2.83-6.3,6.3-6.3Zm31.92,68.26h-31.92c-3.48,0-6.3-2.83-6.3-6.3v-5.67h44.53v5.67c0,3.48-2.83,6.3-6.3,6.3Z"/>
        <path class="cls-1" d="m57.09,28.7c1.19,0,2.16-.97,2.16-2.16s-.97-2.16-2.16-2.16-2.16.97-2.16,2.16.97,2.16,2.16,2.16Z"/>
        <path class="cls-1" d="m57.09,80.58c-1.19,0-2.16.97-2.16,2.16s.97,2.16,2.16,2.16,2.16-.97,2.16-2.16-.97-2.16-2.16-2.16Z"/>
      </g>
      <circle class="cls-2" cx="57.83" cy="57.83" r="55.83"/>
    </g>
  </g>
</svg>